<?xml version="1.0" standalone="no"?>
<!DOCTYPE svg PUBLIC "-//W3C//DTD SVG 1.1//EN" "http://www.w3.org/Graphics/SVG/1.1/DTD/svg11.dtd" >
<svg>
<metadata>
Created by FontForge 20090914 at Mon Apr 17 21:39:26 2017
 By www-data
Copyright URW Software, Copyright 1992 by URW
</metadata>
<defs>
<font id="FuturaT-Medium" horiz-adv-x="500" >
  <font-face 
    font-family="FuturTMed Med"
    font-weight="500"
    font-stretch="normal"
    units-per-em="1000"
    panose-1="0 0 0 0 0 0 0 0 0 0"
    ascent="750"
    descent="-250"
    x-height="421"
    cap-height="667"
    bbox="-133 -230.002 1168 917.004"
    underline-thickness="91"
    underline-position="-10"
    unicode-range="U+000D-U+FB02"
  />
<missing-glyph horiz-adv-x="250" 
 />
    <glyph glyph-name=".notdef" horiz-adv-x="250" 
 />
    <glyph glyph-name=".null" horiz-adv-x="0" 
 />
    <glyph glyph-name=".null" horiz-adv-x="0" 
 />
    <glyph glyph-name="nonmarkingreturn" unicode="&#xd;" horiz-adv-x="250" 
 />
    <glyph glyph-name="space" unicode=" " horiz-adv-x="250" 
 />
    <glyph glyph-name="exclam" unicode="!" horiz-adv-x="293" 
d="M147 107c16.667 0 30.834 -5.83301 42.501 -17.5s17.5 -25.834 17.5 -42.501s-5.83301 -30.834 -17.5 -42.501s-25.834 -17.5 -42.501 -17.5s-30.834 5.83301 -42.501 17.5s-17.5 25.834 -17.5 42.501s5.83301 30.834 17.5 42.501s25.834 17.5 42.501 17.5zM98 667h97
v-518h-97v518z" />
    <glyph glyph-name="quotedbl" unicode="&#x22;" horiz-adv-x="363" 
d="M65 399l-18 268h110l-18 -268h-74zM223 399l-18 268h111l-19 -268h-74z" />
    <glyph glyph-name="numbersign" unicode="#" horiz-adv-x="555" 
d="M534 403h-106l-15 -123h96v-76h-106l-25 -207l-76 10l25 197h-128l-26 -207l-77 10l25 198h-99v75h109l16 123h-100v76h109l24 194l75 -10l-22 -184h127l24 194l76 -10l-23 -184h97v-76zM223 403l-15 -123h128l14 123h-127z" />
    <glyph glyph-name="dollar" unicode="$" horiz-adv-x="567" 
d="M331 676c34 -5.33301 61.8252 -16.3369 83.4922 -33.0039s42.167 -43 61.5 -79l-84 -47c-13.333 24.667 -27.666 42.334 -42.999 53.001s-33.666 16 -54.999 16c-25.333 0 -46.5 -7.33301 -63.5 -22s-25.5 -33.334 -25.5 -56.001c0 -10.667 1.5 -20 4.5 -28
s8.33301 -15.667 16 -23s17.834 -14.666 30.501 -21.999s29 -15.666 49 -24.999c34 -15.333 60.5 -28.666 79.5 -39.999s35.167 -23 48.5 -35c18.667 -16.667 33.167 -37.167 43.5 -61.5s15.5 -49.833 15.5 -76.5c0 -49.333 -14.667 -92.5 -44 -129.5
s-68.333 -61.833 -117 -74.5v-90h-75v87c-28 4.66699 -52.667 11.834 -74 21.501s-39.833 22.167 -55.5 37.5s-28.667 34.333 -39 57s-19.166 49.334 -26.499 80.001l95 19c13.333 -44 29.333 -75 48 -93s44.667 -27 78 -27c32.667 0 59.334 10.333 80.001 31s31 47 31 79
c0 14 -2 26.333 -6 37s-11 21 -21 31s-23.5 19.833 -40.5 29.5s-38.833 20.5 -65.5 32.5l-38.5 18.5c-10.333 5 -19.166 9.66699 -26.499 14s-13.666 8.5 -18.999 12.5s-11 8.66699 -17 14c-15.333 15.333 -27.666 33.833 -36.999 55.5s-14 44.167 -14 67.5
c0 41.333 12.833 76.666 38.5 105.999s62.167 50.333 109.5 63v85h75v-85z" />
    <glyph glyph-name="percent" unicode="%" horiz-adv-x="810" 
d="M194 674c22 0 42.667 -4.16699 62 -12.5s36.166 -19.666 50.499 -33.999s25.833 -31 34.5 -50s13 -39.167 13 -60.5s-4.33301 -41.5 -13 -60.5s-20.167 -35.667 -34.5 -50s-31.166 -25.666 -50.499 -33.999s-40 -12.5 -62 -12.5s-42.833 4.16699 -62.5 12.5
s-36.667 19.666 -51 33.999s-25.833 31 -34.5 50s-13 39.167 -13 60.5s4.33301 41.5 13 60.5s20.167 35.667 34.5 50s31.333 25.666 51 33.999s40.5 12.5 62.5 12.5zM194 602c-24 0 -44.333 -8.33301 -61 -25s-25 -36.667 -25 -60s8.5 -43.5 25.5 -60.5
s37.167 -25.5 60.5 -25.5s43.333 8.33301 60 25s25 37 25 61c0 23.333 -8.33301 43.333 -25 60s-36.667 25 -60 25zM619 652l-382 -663l-47 29l382 660zM616 308c22 0 42.667 -4.16504 62 -12.498s36.166 -19.666 50.499 -33.999s25.833 -31 34.5 -50s13 -39.5 13 -61.5
c0 -21.333 -4.33301 -41.5 -13 -60.5s-20.167 -35.667 -34.5 -50s-31.166 -25.666 -50.499 -33.999s-40 -12.5 -62 -12.5s-42.833 4.16699 -62.5 12.5s-36.667 19.666 -51 33.999s-25.833 31 -34.5 50s-13 39.167 -13 60.5s4.33301 41.666 13 60.999
s20.167 36.166 34.5 50.499s31.333 25.666 51 33.999s40.5 12.5 62.5 12.5zM616 236.002c-24 0 -44.333 -8.33301 -61 -25s-25 -36.667 -25 -60s8.5 -43.5 25.5 -60.5s37.167 -25.5 60.5 -25.5s43.333 8.33301 60 25s25 37 25 61c0 23.333 -8.33301 43.333 -25 60
s-36.667 25 -60 25z" />
    <glyph glyph-name="ampersand" unicode="&#x26;" horiz-adv-x="646" 
d="M461 226l10.5049 12.0039l21.5 24c6 7.33301 10.833 13 14.5 17s6.83398 7.83301 9.50098 11.5l8 10.5l10 12l66 -68c-6.66699 -10 -12.334 -17.667 -17.001 -23l-24 -27l-15.5 -17.5l-9 -10.5c-2.33301 -2.66699 -4.5 -5 -6.5 -7l-7 -7l124 -153h-125l-67 81
c-60.667 -62.667 -125 -94 -193 -94c-29.333 0 -56.666 5.16699 -81.999 15.5s-47.333 24.5 -66 42.5s-33.334 39.167 -44.001 63.5s-16 50.5 -16 78.5c0 22.667 4.5 45 13.5 67s21.833 41.667 38.5 59l13 13c3.33301 3.33301 7.66602 7 12.999 11
s12.666 9.16699 21.999 15.5l40 27.5c0 0.666992 0.833008 1.5 2.5 2.5s3.5 2.5 5.5 4.5c-21.333 23.333 -37.5 46.666 -48.5 69.999s-16.5 46 -16.5 68c0 46 14.5 83 43.5 111s67.5 42 115.5 42c23.333 0 44.666 -3.66699 63.999 -11s36 -17.333 50 -30
s25 -27.834 33 -45.501s12 -37.167 12 -58.5c0 -14 -1.83301 -27.333 -5.5 -40s-9.83398 -25.334 -18.501 -38.001s-20.334 -25.834 -35.001 -39.501s-32.667 -28.5 -54 -44.5zM262.005 314.004c-22 -14.667 -40.167 -27.833 -54.5 -39.5s-25.833 -22.167 -34.5 -31.5
s-14.667 -18.5 -18 -27.5s-5 -18.5 -5 -28.5c0 -14 3 -27.5 9 -40.5s14.167 -24.667 24.5 -35s22 -18.5 35 -24.5s26.5 -9 40.5 -9c20.667 0 41.5 6 62.5 18s44.833 31.333 71.5 58zM283.005 442.005c16.667 12.667 30 23.166 40 31.499s17.667 15.833 23 22.5
s8.83301 13 10.5 19s2.5 13 2.5 21c0 17.333 -6 31.5 -18 42.5s-28 16.5 -48 16.5c-17.333 0 -32.166 -5.5 -44.499 -16.5s-18.5 -24.833 -18.5 -41.5c0 -6.66699 0.5 -12.5 1.5 -17.5s3.16699 -10.667 6.5 -17s8.16602 -13.666 14.499 -21.999l25.5 -32.5l2 -2l1 -2z" />
    <glyph glyph-name="quotesingle" unicode="'" horiz-adv-x="205" 
d="M65 399l-18 268h110l-18 -268h-74z" />
    <glyph glyph-name="parenleft" unicode="(" horiz-adv-x="324" 
d="M264 702c-8 -18 -14.834 -34.1709 -20.501 -48.5039s-10.667 -27.666 -15 -39.999s-8 -24.166 -11 -35.499l-9.5 -35c-8.66699 -36.667 -15.667 -79.167 -21 -127.5s-8 -94.833 -8 -139.5c0 -22 0.666992 -45 2 -69s3.33301 -47.667 6 -71s5.83398 -45.833 9.50098 -67.5
s7.5 -41.5 11.5 -59.5l9.5 -35c3 -11.333 6.66699 -23.166 11 -35.499s9.33301 -25.666 15 -39.999s12.5 -30.5 20.5 -48.5l-90 -35c-8 16.667 -15 32 -21 46s-11.333 27.667 -16 41s-9 27.333 -13 42s-8 30.667 -12 48c-10 44.667 -17.833 91.667 -23.5 141
s-8.5 97 -8.5 143s2.83301 93.5 8.5 142.5s13.5 95.833 23.5 140.5c4 18 8 34.167 12 48.5s8.33301 28.333 13 42s10 27.5 16 41.5s13 29.333 21 46z" />
    <glyph glyph-name="parenright" unicode=")" horiz-adv-x="324" 
d="M60 -150c8 18 14.832 34.1709 20.499 48.5039s10.667 27.666 15 39.999s8.16602 24.166 11.499 35.499s6.33301 23 9 35c4 18 7.83301 37.833 11.5 59.5s6.83398 44.167 9.50098 67.5s4.66699 47 6 71s2 47 2 69c0 44.667 -2.66699 91.167 -8 139.5
s-12.333 90.833 -21 127.5c-2.66699 12 -5.66699 23.667 -9 35s-7.16602 23.166 -11.499 35.499s-9.33301 25.666 -15 39.999s-12.5 30.5 -20.5 48.5l90 35c8 -16.667 15 -32 21 -46s11.333 -27.833 16 -41.5s9 -27.667 13 -42s8 -30.5 12 -48.5
c10 -44.667 17.833 -91.5 23.5 -140.5s8.5 -96.5 8.5 -142.5s-2.83301 -93.667 -8.5 -143s-13.5 -96.333 -23.5 -141c-4 -17.333 -8 -33.333 -12 -48s-8.33301 -28.667 -13 -42s-10 -27 -16 -41s-13 -29.333 -21 -46z" />
    <glyph glyph-name="asterisk" unicode="*" horiz-adv-x="567" 
d="M240 729h87l-7 -116l109 42l27 -82l-113 -30l74 -90l-70 -51l-64 98l-63 -98l-70 51l74 90l-113 30l27 82l109 -42z" />
    <glyph glyph-name="plus" unicode="+" horiz-adv-x="567" 
d="M53 387h190v186h80v-186h190v-80h-190v-187h-80v187h-190v80z" />
    <glyph glyph-name="comma" unicode="," horiz-adv-x="253" 
d="M198 91l-123 -247l-66 27l102 254z" />
    <glyph glyph-name="hyphen" unicode="-" horiz-adv-x="193" 
d="M193 256v-85h-193v85h193z" />
    <glyph glyph-name="period" unicode="." horiz-adv-x="253" 
d="M127 107c16.667 0 30.834 -5.83301 42.501 -17.5s17.5 -25.834 17.5 -42.501s-5.83301 -30.834 -17.5 -42.501s-25.834 -17.5 -42.501 -17.5s-30.834 5.83301 -42.501 17.5s-17.5 25.834 -17.5 42.501s5.83301 30.834 17.5 42.501s25.834 17.5 42.501 17.5z" />
    <glyph glyph-name="slash" unicode="/" horiz-adv-x="458" 
d="M455 701l-382 -884l-80 36l381 884z" />
    <glyph glyph-name="zero" unicode="0" horiz-adv-x="567" 
d="M284 678c34 0 65.333 -8.66699 94 -26s53.5 -41.166 74.5 -71.499s37.333 -66.666 49 -108.999s17.5 -88.5 17.5 -138.5s-5.83301 -96 -17.5 -138s-28 -78.167 -49 -108.5s-46 -54.166 -75 -71.499s-60.5 -26 -94.5 -26s-65.333 8.66699 -94 26
s-53.5 41.166 -74.5 71.499s-37.333 66.5 -49 108.5s-17.5 88 -17.5 138s5.83301 96.167 17.5 138.5s28 78.666 49 108.999s46 54.166 75 71.499s60.5 26 94.5 26zM283 587c-19.333 0 -37.333 -6.33496 -54 -19.002s-31 -30.167 -43 -52.5s-21.5 -49 -28.5 -80
s-10.5 -64.833 -10.5 -101.5c0 -36 3.5 -69.5 10.5 -100.5s16.5 -57.833 28.5 -80.5s26.333 -40.334 43 -53.001s34.667 -19 54 -19c20 0 38.333 6.33301 55 19s31 30.334 43 53.001s21.5 49.334 28.5 80.001s10.5 64.334 10.5 101.001s-3.5 70.5 -10.5 101.5
s-16.5 57.667 -28.5 80s-26.333 39.833 -43 52.5s-35 19 -55 19z" />
    <glyph glyph-name="one" unicode="1" horiz-adv-x="567" 
d="M135 573l55 94h161v-667h-101v573h-115z" />
    <glyph glyph-name="two" unicode="2" horiz-adv-x="567" 
d="M481 95l0.00195312 -95.001h-448l232 280l40.5 51.5l39.5 52.5c13.333 18 22.833 34 28.5 48s8.5 28.667 8.5 44c0 16 -3 30.667 -9 44s-14 24.833 -24 34.5s-22 17.334 -36 23.001s-29 8.5 -45 8.5c-67.333 0 -106 -39.667 -116 -119h-100c8 68 30 120.167 66 156.5
s84 54.5 144 54.5c31.333 0 60.333 -5 87 -15s49.667 -24 69 -42s34.5 -39.333 45.5 -64s16.5 -51.667 16.5 -81c0 -18 -2 -35.167 -6 -51.5s-11.333 -34.333 -22 -54s-25.334 -41.667 -44.001 -66s-42.334 -53.5 -71.001 -87.5l-104 -122h248z" />
    <glyph glyph-name="three" unicode="3" horiz-adv-x="567" 
d="M239 396c22 0 37.9971 0.498047 47.9971 1.49805s19.333 3.5 28 7.5c14.667 6 26.5 16.833 35.5 32.5s13.5 32.834 13.5 51.501c0 29.333 -9.33301 53 -28 71s-43.334 27 -74.001 27c-28 0 -49.333 -6.66699 -64 -20s-25.667 -36.666 -33 -69.999h-100
c10.667 62.667 31.834 108.5 63.501 137.5s76.834 43.5 135.501 43.5c29.333 0 56 -4.5 80 -13.5s44.833 -21.5 62.5 -37.5s31.334 -35.167 41.001 -57.5s14.5 -46.833 14.5 -73.5c0 -62.667 -24 -110.667 -72 -144c54.667 -33.333 82 -86.666 82 -159.999
c0 -30 -5.33301 -57.333 -16 -82s-25.5 -46 -44.5 -64s-41.833 -32 -68.5 -42s-56 -15 -88 -15c-40 0 -76.5 9 -109.5 27s-58.167 43 -75.5 75c-6.66699 13.333 -11.5 26.333 -14.5 39s-5.5 29.667 -7.5 51h97c5.33301 -32.667 17.833 -57.5 37.5 -74.5
s45.834 -25.5 78.501 -25.5c32 0 58.667 10.833 80 32.5s32 49.167 32 82.5c0 24.667 -5.16699 46.167 -15.5 64.5s-24.833 31.166 -43.5 38.499c-9.33301 4 -19 6.66699 -29 8s-25.333 2.33301 -46 3v86z" />
    <glyph glyph-name="four" unicode="4" horiz-adv-x="567" 
d="M518 186v-91h-71v-95h-101v95h-327l428 621v-530h71zM346 409l-154 -223h154v223z" />
    <glyph glyph-name="five" unicode="5" horiz-adv-x="567" 
d="M271 573l-32.9971 -111.001c5.33301 1.33301 10 2 14 2h12c32.667 0 62.667 -5.66699 90 -17s50.666 -27.5 69.999 -48.5s34.5 -45.833 45.5 -74.5s16.5 -60.667 16.5 -96c0 -34 -6.33301 -65.667 -19 -95s-30 -54.666 -52 -75.999s-48.167 -38 -78.5 -50
s-63.5 -18 -99.5 -18c-46 0 -85.833 10 -119.5 30s-63.5 51.333 -89.5 94l76 65c21.333 -36.667 42.666 -62 63.999 -76s48.333 -21 81 -21c19.333 0 37.5 3.83301 54.5 11.5s31.833 18.167 44.5 31.5s22.5 29.166 29.5 47.499s10.5 37.833 10.5 58.5
s-3.66699 39.834 -11 57.501s-17.333 33 -30 46s-27.667 23.167 -45 30.5s-36 11 -56 11c-24.667 0 -45.834 -4.5 -63.501 -13.5s-35.5 -24.167 -53.5 -45.5h-33l104 351h276v-94h-205z" />
    <glyph glyph-name="six" unicode="6" horiz-adv-x="567" 
d="M431 635l-159 -217.002c8.66699 1.33301 16.5 2.33301 23.5 3s12.833 1 17.5 1c26 0 50.667 -5.66699 74 -17s44 -26.666 62 -45.999s32.167 -41.666 42.5 -66.999s15.5 -52 15.5 -80c0 -30.667 -5.83301 -59.5 -17.5 -86.5s-27.667 -50.667 -48 -71s-44 -36.333 -71 -48
s-56.167 -17.5 -87.5 -17.5c-30 0 -58.5 5.83301 -85.5 17.5s-50.833 27.5 -71.5 47.5s-37 43.167 -49 69.5s-18 53.833 -18 82.5c0 51.333 21.667 107.333 65 168l233 316zM283 332.998c-17.333 0 -33.666 -3.33301 -48.999 -10s-28.666 -15.667 -39.999 -27
s-20.333 -24.666 -27 -39.999s-10 -31.666 -10 -48.999s3.33301 -33.666 10 -48.999s15.667 -28.666 27 -39.999s24.666 -20.333 39.999 -27s31.666 -10 48.999 -10s33.666 3.33301 48.999 10s28.666 15.667 39.999 27s20.333 24.666 27 39.999s10 31.666 10 48.999
s-3.33301 33.666 -10 48.999s-15.667 28.666 -27 39.999s-24.666 20.333 -39.999 27s-31.666 10 -48.999 10z" />
    <glyph glyph-name="seven" unicode="7" horiz-adv-x="567" 
d="M57 573v94h497l-421 -690l-80 51l333 545h-329z" />
    <glyph glyph-name="eight" unicode="8" horiz-adv-x="567" 
d="M164 347c-23.333 16.667 -41.3301 37.002 -53.9971 61.002s-19 50.667 -19 80c0 27.333 5 52.5 15 75.5s23.667 43 41 60s38 30.333 62 40s50 14.5 78 14.5c27.333 0 52.666 -4.83301 75.999 -14.5s43.666 -23 60.999 -40s30.833 -37 40.5 -60s14.5 -48.167 14.5 -75.5
c0 -57.333 -24.333 -104.333 -73 -141c28 -14 49.5 -34.833 64.5 -62.5s22.5 -58.834 22.5 -93.501c0 -30 -5.16699 -57.333 -15.5 -82s-24.666 -45.834 -42.999 -63.501s-40.333 -31.5 -66 -41.5s-53.834 -15 -84.501 -15c-30 0 -57.833 5.16699 -83.5 15.5
s-47.834 24.5 -66.501 42.5s-33.334 39.5 -44.001 64.5s-16 51.833 -16 80.5c0 35.333 7.83301 66.5 23.5 93.5s37.834 47.5 66.501 61.5zM285.003 587.002c-14 0 -27 -2.66699 -39 -8s-22.5 -12.5 -31.5 -21.5s-16 -19.5 -21 -31.5s-7.5 -24.667 -7.5 -38
c0 -14 2.5 -27 7.5 -39s12 -22.5 21 -31.5s19.5 -16.167 31.5 -21.5s25 -8 39 -8s27 2.66699 39 8s22.5 12.5 31.5 21.5s16 19.5 21 31.5s7.5 25 7.5 39c0 28 -9.5 51.5 -28.5 70.5s-42.5 28.5 -70.5 28.5zM284.003 303.002c-15.333 0 -29.832 -3 -43.499 -9
s-25.5 -14 -35.5 -24s-17.833 -21.667 -23.5 -35s-8.5 -27.666 -8.5 -42.999s3 -29.666 9 -42.999s14 -25 24 -35s21.667 -18 35 -24s27.666 -9 42.999 -9s29.666 3 42.999 9s25 14 35 24s17.833 21.667 23.5 35s8.5 27.666 8.5 42.999s-2.83301 29.666 -8.5 42.999
s-13.5 25 -23.5 35s-21.667 18 -35 24s-27.666 9 -42.999 9z" />
    <glyph glyph-name="nine" unicode="9" horiz-adv-x="567" 
d="M135 32l159 216.998c-8 -1.33301 -15.167 -2.16602 -21.5 -2.49902s-11.166 -0.5 -14.499 -0.5c-27.333 0 -53 5.5 -77 16.5s-45 26 -63 45s-32.333 41.333 -43 67s-16 52.834 -16 81.501c0 30.667 5.83301 59.5 17.5 86.5s27.667 50.5 48 70.5
s44.166 35.833 71.499 47.5s56.333 17.5 87 17.5c30 0 58.5 -5.83301 85.5 -17.5s50.833 -27.5 71.5 -47.5s37 -43 49 -69s18 -53.667 18 -83c0 -52 -21.667 -107.667 -65 -167l-233 -317zM283 586.998c-17.333 0 -33.666 -3.33301 -48.999 -10s-28.666 -15.667 -39.999 -27
s-20.333 -24.666 -27 -39.999s-10 -31.666 -10 -48.999s3.33301 -33.666 10 -48.999s15.667 -28.666 27 -39.999s24.666 -20.333 39.999 -27s31.666 -10 48.999 -10s33.666 3.33301 48.999 10s28.666 15.667 39.999 27s20.333 24.666 27 39.999s10 31.666 10 48.999
s-3.33301 33.666 -10 48.999s-15.667 28.666 -27 39.999s-24.666 20.333 -39.999 27s-31.666 10 -48.999 10z" />
    <glyph glyph-name="colon" unicode=":" horiz-adv-x="253" 
d="M127 107c16.667 0 30.834 -5.83301 42.501 -17.5s17.5 -25.834 17.5 -42.501s-5.83301 -30.834 -17.5 -42.501s-25.834 -17.5 -42.501 -17.5s-30.834 5.83301 -42.501 17.5s-17.5 25.834 -17.5 42.501s5.83301 30.834 17.5 42.501s25.834 17.5 42.501 17.5zM127 432
c16.667 0 30.834 -5.83301 42.501 -17.5s17.5 -25.834 17.5 -42.501s-5.83301 -30.834 -17.5 -42.501s-25.834 -17.5 -42.501 -17.5s-30.834 5.83301 -42.501 17.5s-17.5 25.834 -17.5 42.501s5.83301 30.834 17.5 42.501s25.834 17.5 42.501 17.5z" />
    <glyph glyph-name="semicolon" unicode=";" horiz-adv-x="253" 
d="M198 91l-123 -247l-66 27l102 254zM147 432c16.667 0 30.834 -5.83301 42.501 -17.5s17.5 -25.834 17.5 -42.501s-5.83301 -30.834 -17.5 -42.501s-25.834 -17.5 -42.501 -17.5s-30.834 5.83301 -42.501 17.5s-17.5 25.834 -17.5 42.501s5.83301 30.834 17.5 42.501
s25.834 17.5 42.501 17.5z" />
    <glyph glyph-name="less" unicode="&#x3c;" 
d="M466 493l-327 -155l327 -155v-99l-433 212v85l433 211v-99z" />
    <glyph glyph-name="equal" unicode="=" horiz-adv-x="567" 
d="M53 453h460v-73h-460v73zM53 313h460v-73h-460v73z" />
    <glyph glyph-name="greater" unicode="&#x3e;" 
d="M34 183l327 155l-327 155v99l433 -212v-85l-433 -211v99z" />
    <glyph glyph-name="question" unicode="?" horiz-adv-x="433" 
d="M364 311c-0.666992 -23.333 -2.83203 -41.502 -6.49902 -54.502s-10.167 -26.167 -19.5 -39.5c-12.667 -19.333 -30.5 -34.833 -53.5 -46.5s-46.167 -17.5 -69.5 -17.5c-20.667 0 -40 3.83301 -58 11.5s-33.667 18.167 -47 31.5s-23.833 28.833 -31.5 46.5
s-11.5 36.834 -11.5 57.501c0 35.333 8.83301 63 26.5 83s47.834 38 90.501 54c21.333 8 38.5 14.833 51.5 20.5s23 11.334 30 17.001s11.5 12 13.5 19s3 15.833 3 26.5c0 18.667 -6 33.834 -18 45.501s-27.667 17.5 -47 17.5s-35.166 -5.66699 -47.499 -17
s-18.5 -26.333 -18.5 -45c0 -6 0.333008 -11.5 1 -16.5s2 -12.5 4 -22.5h-101c-1.33301 9.33301 -2 16.166 -2 20.499v14.5c0 22.667 4.16699 43.667 12.5 63s19.666 36.166 33.999 50.499s31.5 25.5 51.5 33.5s41.667 12 65 12s44.833 -4 64.5 -12s37 -19.167 52 -33.5
s26.667 -31 35 -50s12.5 -39.5 12.5 -61.5c0 -27.333 -5 -52 -15 -74s-24.667 -39.667 -44 -53c-11.333 -8 -24 -15 -38 -21s-35 -13.333 -63 -22c-20 -6 -34.333 -13.167 -43 -21.5s-13 -19.166 -13 -32.499c0 -14 5 -26 15 -36s21.667 -15 35 -15
c17.333 0 30.166 5.16699 38.499 15.5s13.166 27.5 14.499 51.5h97zM217.002 106.998c16.667 0 30.834 -5.83301 42.501 -17.5s17.5 -25.834 17.5 -42.501s-5.83301 -30.834 -17.5 -42.501s-25.834 -17.5 -42.501 -17.5s-30.834 5.83301 -42.501 17.5
s-17.5 25.834 -17.5 42.501s5.83301 30.834 17.5 42.501s25.834 17.5 42.501 17.5z" />
    <glyph glyph-name="at" unicode="@" horiz-adv-x="778" 
d="M547 281c-1.33301 -9.33301 -2.16602 -16.8311 -2.49902 -22.498s-0.5 -14.167 -0.5 -25.5c0 -19.333 8.66699 -29 26 -29c13.333 0 25.833 4.83301 37.5 14.5s22.167 22.5 31.5 38.5s16.666 34.667 21.999 56s8 43.666 8 66.999c0 34.667 -6.66699 66.667 -20 96
s-31.833 54.5 -55.5 75.5s-51.834 37.5 -84.501 49.5s-68.334 18 -107.001 18c-39.333 0 -76 -7.33301 -110 -22s-63.667 -35 -89 -61s-45.166 -56.333 -59.499 -91s-21.5 -72 -21.5 -112c0 -41.333 7.16699 -79.166 21.5 -113.499s34.333 -63.833 60 -88.5
s56.5 -43.834 92.5 -57.501s75.667 -20.5 119 -20.5c20 0 38.5 0.833008 55.5 2.5s33.833 4.66699 50.5 9s33.834 10 51.501 17s37.5 15.833 59.5 26.5l23 -62c-40 -20 -79.167 -34.667 -117.5 -44s-79.166 -14 -122.499 -14c-54 0 -103.5 8.5 -148.5 25.5
s-83.833 40.833 -116.5 71.5s-58 67 -76 109s-27 88.333 -27 139c0 48.667 9.16699 94.167 27.5 136.5s43.5 79 75.5 110s69.833 55.333 113.5 73s90.5 26.5 140.5 26.5c47.333 0 91 -7.5 131 -22.5s74.5 -35.833 103.5 -62.5s51.833 -58.334 68.5 -95.001
s25 -76.334 25 -119.001c0 -32 -4.66699 -62.5 -14 -91.5s-21.833 -54.5 -37.5 -76.5s-33.834 -39.333 -54.501 -52s-42.667 -19 -66 -19c-36 0 -61 17.333 -75 52c-19.333 -19.333 -37.833 -33.166 -55.5 -41.499s-38.167 -12.5 -61.5 -12.5
c-24.667 0 -47.167 4.5 -67.5 13.5s-37.833 21.667 -52.5 38s-26 35.833 -34 58.5s-12 47.667 -12 75s4.66699 52.833 14 76.5s22.333 44 39 61s36.5 30.333 59.5 40s47.833 14.5 74.5 14.5c23.333 0 44.333 -4.5 63 -13.5s35.667 -23.167 51 -42.5l5 48h66zM391 435.002
c-30 0 -54.167 -11.001 -72.5 -33.001s-27.5 -51 -27.5 -87c0 -29.333 7.66699 -53.5 23 -72.5s34.666 -28.5 57.999 -28.5c15.333 0 29.833 3.5 43.5 10.5s25.834 16.333 36.501 28s19 25.334 25 41.001s9 32.167 9 49.5c0 26 -9 47.833 -27 65.5s-40.667 26.5 -68 26.5z
" />
    <glyph glyph-name="A" unicode="A" horiz-adv-x="655" 
d="M186 162l-75 -162h-108l330 709l318 -709h-110l-70 162h-285zM331 483l-103 -226h202z" />
    <glyph glyph-name="B" unicode="B" horiz-adv-x="523" 
d="M80 667l100.001 0.00292969c40 0 72.333 -2.66699 97 -8s45.667 -14 63 -26c23.333 -16 41.833 -38 55.5 -66s20.5 -57.667 20.5 -89c0 -47.333 -18 -87 -54 -119c35.333 -12.667 63.166 -33.834 83.499 -63.501s30.5 -64.167 30.5 -103.5
c0 -28.667 -5.83301 -55.334 -17.5 -80.001s-28.167 -46 -49.5 -64c-10.667 -8.66699 -21.667 -16.167 -33 -22.5s-23.833 -11.333 -37.5 -15s-29 -6.33398 -46 -8.00098s-36.833 -2.5 -59.5 -2.5h-153v667zM212.001 380.003c72.667 0 109 32.668 109 98.001
c0 31.333 -9 55.166 -27 71.499s-44 24.5 -78 24.5h-35v-194h31zM243.001 95.0039c43.333 0 76.5 8.5 99.5 25.5s34.5 41.167 34.5 72.5c0 68.667 -48.333 103 -145 103h-51v-201h62z" />
    <glyph glyph-name="C" unicode="C" horiz-adv-x="619" 
d="M573 512c-32 26 -61.665 44.6641 -88.998 55.9971s-58 17 -92 17s-65.833 -6.5 -95.5 -19.5s-55.5 -31 -77.5 -54s-39.333 -49.833 -52 -80.5s-19 -63.667 -19 -99s6.33301 -68.333 19 -99s30 -57.167 52 -79.5s48.167 -39.833 78.5 -52.5s63.166 -19 98.499 -19
c31.333 0 60.666 5.83301 87.999 17.5s57 31.167 89 58.5v-121c-58 -33.333 -117.667 -50 -179 -50c-48.667 0 -94.167 9 -136.5 27s-79 42.5 -110 73.5s-55.5 67.833 -73.5 110.5s-27 88.334 -27 137.001c0 46.667 9.33301 90.834 28 132.501s43.667 78.334 75 110.001
s68.166 56.667 110.499 75s86.833 27.5 133.5 27.5c35.333 0 66.333 -3.66699 93 -11s55.334 -20 86.001 -38v-119z" />
    <glyph glyph-name="D" unicode="D" horiz-adv-x="642" 
d="M80 667l140 -0.000976562c28.667 0 54.667 -1.16699 78 -3.5s44.833 -6.16602 64.5 -11.499s38 -12 55 -20s33.5 -18 49.5 -30c42 -30.667 74 -69 96 -115s33 -97.667 33 -155c0 -56.667 -11.333 -107.5 -34 -152.5s-56 -83.5 -100 -115.5
c-16.667 -12 -33.167 -22.167 -49.5 -30.5s-34 -15 -53 -20s-39.833 -8.5 -62.5 -10.5s-49 -3 -79 -3h-138v667zM226 94.999c40.667 0 74.668 3.66992 102.001 11.0029s52.666 19.666 75.999 36.999c29.333 21.333 51.833 48.5 67.5 81.5s23.5 69.5 23.5 109.5
c0 39.333 -8 75.666 -24 108.999s-38.333 60.666 -67 81.999c-22 16.667 -47 28.667 -75 36s-62.333 11 -103 11h-45v-477h45z" />
    <glyph glyph-name="E" unicode="E" 
d="M181 572v-160h259v-95h-259v-222h267v-95h-368v667h368v-95h-267z" />
    <glyph glyph-name="F" unicode="F" horiz-adv-x="449" 
d="M181 572v-160h224v-95h-224v-317h-101v667h333v-95h-232z" />
    <glyph glyph-name="G" unicode="G" horiz-adv-x="745" 
d="M699 347l-0.000976562 -30.999c0 -44 -4.66699 -81.833 -14 -113.5s-24.333 -61.5 -45 -89.5c-29.333 -40 -66.333 -71 -111 -93s-92 -33 -142 -33c-46.667 0 -90.667 9 -132 27s-77.333 42.667 -108 74s-55 68 -73 110s-27 86.667 -27 134c0 48.667 9 94.167 27 136.5
s42.833 79.166 74.5 110.499s68.834 56 111.501 74s88.667 27 138 27c53.333 0 101.333 -10.667 144 -32s85 -56 127 -104l-72 -69c-29.333 38.667 -59.833 66.667 -91.5 84s-68.5 26 -110.5 26c-34.667 0 -67 -6.5 -97 -19.5s-56.167 -30.833 -78.5 -53.5
s-39.833 -49.5 -52.5 -80.5s-19 -64.167 -19 -99.5c0 -34 6.5 -66.167 19.5 -96.5s30.5 -56.833 52.5 -79.5s47.667 -40.667 77 -54s60.333 -20 93 -20c25.333 0 49.5 4.5 72.5 13.5s43.5 21.167 61.5 36.5s32.833 33.333 44.5 54s18.5 42.667 20.5 66h-166v95h276z" />
    <glyph glyph-name="H" unicode="H" horiz-adv-x="649" 
d="M468 406v261h101v-667h-101v311h-287v-311h-101v667h101v-261h287z" />
    <glyph glyph-name="I" unicode="I" horiz-adv-x="261" 
d="M181 0h-101v667h101v-667z" />
    <glyph glyph-name="J" unicode="J" horiz-adv-x="363" 
d="M282 235c0 -50 -3.66602 -89.1689 -10.999 -117.502s-20.666 -53.166 -39.999 -74.499c-33.333 -37.333 -76.333 -56 -129 -56c-23.333 0 -43.833 2.5 -61.5 7.5s-37.167 13.833 -58.5 26.5l50 86c13.333 -9.33301 25.166 -15.833 35.499 -19.5s21.166 -5.5 32.499 -5.5
c30 0 51 11.333 63 34s18 62.334 18 119.001v432h101v-432z" />
    <glyph glyph-name="K" unicode="K" horiz-adv-x="586" 
d="M440 667h134l-300 -302l302 -365h-134l-240 297l-21 -21v-276h-101v667h101v-266z" />
    <glyph glyph-name="L" unicode="L" horiz-adv-x="392" 
d="M181 95h196v-95h-297v667h101v-572z" />
    <glyph glyph-name="M" unicode="M" horiz-adv-x="850" 
d="M197 717l229 -518l237 518l126 -717h-103l-64 402l-197 -433l-192 434l-72 -403h-104z" />
    <glyph glyph-name="N" unicode="N" horiz-adv-x="747" 
d="M80 712l486 -508v463h101v-708l-486 508v-467h-101v712z" />
    <glyph glyph-name="O" unicode="O" horiz-adv-x="790" 
d="M397 680c48 0 93.002 -9.16797 135.002 -27.501s78.667 -43.166 110 -74.499s56.166 -68 74.499 -110s27.5 -87 27.5 -135c0 -47.333 -9.16699 -92 -27.5 -134s-43.166 -78.667 -74.499 -110s-68 -56.166 -110 -74.499s-87 -27.5 -135 -27.5
c-48.667 0 -94.334 8.83301 -137.001 26.5s-79.834 42 -111.501 73s-56.5 67.5 -74.5 109.5s-27 87 -27 135s9.16699 93.333 27.5 136s43.333 79.667 75 111s68.667 56.166 111 74.499s87.833 27.5 136.5 27.5zM396.002 584.999c-34.667 0 -67.168 -6.49805 -97.501 -19.498
s-56.666 -30.833 -78.999 -53.5s-39.833 -49.334 -52.5 -80.001s-19 -64 -19 -100c0 -34.667 6.5 -67.334 19.5 -98.001s30.667 -57.167 53 -79.5s48.5 -40 78.5 -53s62.333 -19.5 97 -19.5c34 0 66 6.5 96 19.5s56.167 30.833 78.5 53.5s40 49.167 53 79.5
s19.5 62.833 19.5 97.5c0 36 -6.33301 69.5 -19 100.5s-30 57.667 -52 80s-48 40 -78 53s-62.667 19.5 -98 19.5z" />
    <glyph glyph-name="P" unicode="P" horiz-adv-x="477" 
d="M181 0l-100.996 -0.00195312v667h114c25.333 0 47.333 -0.666992 66 -2s35.167 -3.66602 49.5 -6.99902s27.166 -7.66602 38.499 -12.999s22.333 -12 33 -20c22.667 -17.333 40.5 -40 53.5 -68s19.5 -57.333 19.5 -88c0 -30 -5.33301 -57.333 -16 -82
s-25.834 -45.5 -45.501 -62.5s-43.334 -30.167 -71.001 -39.5s-58.834 -14 -93.501 -14h-47v-271zM218.004 363.998c92.667 0 139 36 139 108c0 68 -47.667 102 -143 102h-33v-210h37z" />
    <glyph glyph-name="Q" unicode="Q" horiz-adv-x="790" 
d="M632 -13l-51.999 54.001c-28 -17.333 -57.833 -30.666 -89.5 -39.999s-63.834 -14 -96.501 -14c-48 0 -93.167 9 -135.5 27s-79.166 42.5 -110.499 73.5s-56 67.5 -74 109.5s-27 87 -27 135s9.16699 93.167 27.5 135.5s43.166 79.166 74.499 110.499
s68.333 56.166 111 74.499s88 27.5 136 27.5s93.167 -9.16699 135.5 -27.5s79.333 -43.5 111 -75.5s56.5 -69.5 74.5 -112.5s27 -89.167 27 -138.5c0 -46 -7.5 -87.167 -22.5 -123.5s-39.167 -71.833 -72.5 -106.5l110 -109h-127zM579.001 167.001
c22.667 24 38.998 48.833 48.998 74.5s15 56.167 15 91.5s-6.33301 68.333 -19 99s-30.167 57.334 -52.5 80.001s-48.5 40.5 -78.5 53.5s-62.667 19.5 -98 19.5s-68.166 -6.33301 -98.499 -19s-56.5 -30.167 -78.5 -52.5s-39.167 -49 -51.5 -80s-18.5 -64.833 -18.5 -101.5
c0 -35.333 6.16699 -68.166 18.5 -98.499s29.333 -56.833 51 -79.5s47.334 -40.334 77.001 -53.001s61.5 -19 95.5 -19c20.667 0 41.5 2.66699 62.5 8s39.833 12.666 56.5 21.999l-157 152h130z" />
    <glyph glyph-name="R" unicode="R" horiz-adv-x="532" 
d="M512 0l-122.998 -0.00195312l-190 273h-18v-273h-101v667h118c43.333 0 78.166 -3 104.499 -9s50.166 -16 71.499 -30c24.667 -16 44.167 -38 58.5 -66s21.5 -58 21.5 -90c0 -47.333 -13.5 -88.166 -40.5 -122.499s-62.833 -56.166 -107.5 -65.499zM213.002 360.998
c46.667 0 82.167 9.16699 106.5 27.5s36.5 45.5 36.5 81.5c0 68 -46.333 102 -139 102h-36v-211h32z" />
    <glyph glyph-name="S" unicode="S" horiz-adv-x="515" 
d="M376 519c-15.333 25.333 -30.001 42.6699 -44.001 52.0029s-32.667 14 -56 14c-28 0 -51.167 -8 -69.5 -24s-27.5 -35.667 -27.5 -59c0 -22.667 10.667 -41.334 32 -56.001c5.33301 -4 9.5 -7 12.5 -9s7.5 -4.33301 13.5 -7l27 -11.5l54 -21.5
c54 -22.667 93.5 -49.5 118.5 -80.5s37.5 -68.833 37.5 -113.5c0 -30.667 -5.33301 -59.334 -16 -86.001s-25.334 -49.5 -44.001 -68.5s-41 -34 -67 -45s-54 -16.5 -84 -16.5c-60 0 -108.667 17.167 -146 51.5s-60.666 82.833 -69.999 145.5l102 23
c2.66699 -20 5.16699 -35 7.5 -45s6.16602 -19.333 11.499 -28c8.66699 -16 21.667 -28.667 39 -38s36.333 -14 57 -14c32 0 58.167 10.5 78.5 31.5s30.5 47.5 30.5 79.5c0 37.333 -15.333 66.666 -46 87.999c-15.333 10 -31.666 18.667 -48.999 26l-22 9l-21 9l-21 9
c-91.333 38.667 -137 94.667 -137 168c0 25.333 5 48.833 15 70.5s24 40.5 42 56.5s39.167 28.5 63.5 37.5s50.833 13.5 79.5 13.5c40 0 74.333 -8.83301 103 -26.5s54.334 -46.167 77.001 -85.5z" />
    <glyph glyph-name="T" unicode="T" horiz-adv-x="427" 
d="M264 0h-101v572h-153v95h407v-95h-153v-572z" />
    <glyph glyph-name="U" unicode="U" horiz-adv-x="653" 
d="M181 265c0 -30 1.49902 -53.167 4.49902 -69.5s8.5 -31.5 16.5 -45.5c12 -21.333 29.167 -38 51.5 -50s46.833 -18 73.5 -18c26 0 50.167 6 72.5 18s39.5 28.667 51.5 50c8 14 13.5 29.167 16.5 45.5s4.5 39.5 4.5 69.5v402h101v-429c0 -36 -6.16699 -69.333 -18.5 -100
s-29.5 -57.167 -51.5 -79.5s-48 -39.833 -78 -52.5s-62.667 -19 -98 -19s-68.166 6.33301 -98.499 19s-56.5 30.167 -78.5 52.5s-39.167 48.833 -51.5 79.5s-18.5 64 -18.5 100v429h101v-402z" />
    <glyph glyph-name="V" unicode="V" horiz-adv-x="598" 
d="M297 205l187 462h110l-299 -717l-292 717h110z" />
    <glyph glyph-name="W" unicode="W" horiz-adv-x="938" 
d="M286 221l181 478l174 -478l184 446h109l-298 -710l-171 473l-179 -473l-283 710h109z" />
    <glyph glyph-name="X" unicode="X" horiz-adv-x="546" 
d="M36 667h114l128 -226l133 226h116l-192 -319l201 -348h-112l-148 255l-152 -255h-114l210 349z" />
    <glyph glyph-name="Y" unicode="Y" horiz-adv-x="531" 
d="M-3 667h116l152 -267l154 267h115l-218 -379v-288h-101v288z" />
    <glyph glyph-name="Z" unicode="Z" horiz-adv-x="553" 
d="M515 95v-95h-485l327 572h-274v95h439l-327 -572h320z" />
    <glyph glyph-name="bracketleft" unicode="[" horiz-adv-x="316" 
d="M186 -86h84v-91h-183v906h183v-91h-84v-724z" />
    <glyph glyph-name="backslash" unicode="\" horiz-adv-x="458" 
d="M465 -147l-80 -36l-382 884l80 36z" />
    <glyph glyph-name="bracketright" unicode="]" horiz-adv-x="316" 
d="M131 638h-84v91h183v-906h-183v91h84v724z" />
    <glyph glyph-name="asciicircum" unicode="^" 
d="M15 351l169 319h131l169 -319h-106l-129 239l-128 -239h-106z" />
    <glyph glyph-name="underscore" unicode="_" 
d="M500 -56v-91h-500v91h500z" />
    <glyph glyph-name="grave" unicode="`" 
d="M176 676l119 -158l-53 -32l-157 142z" />
    <glyph glyph-name="a" unicode="a" horiz-adv-x="530" 
d="M468 421v-421.004h-97v44c-22.667 -21.333 -43.5 -36.166 -62.5 -44.499s-41.167 -12.5 -66.5 -12.5c-29.333 0 -56.333 5.66699 -81 17s-45.834 27 -63.501 47s-31.5 43.833 -41.5 71.5s-15 57.834 -15 90.501c0 31.333 5 60.333 15 87s24 49.834 42 69.501
s39.167 35 63.5 46s50.5 16.5 78.5 16.5c26.667 0 49.834 -4.66699 69.501 -14s40.167 -24.666 61.5 -45.999v49h97zM257 344.996c-16.667 0 -32.168 -3.33301 -46.501 -10s-26.666 -16 -36.999 -28s-18.5 -26.333 -24.5 -43s-9 -34.667 -9 -54c0 -40 11 -72.667 33 -98
s50 -38 84 -38c36 0 65 12.5 87 37.5s33 57.833 33 98.5c0 40 -11 72.5 -33 97.5s-51 37.5 -87 37.5z" />
    <glyph glyph-name="b" unicode="b" horiz-adv-x="530" 
d="M158 372c20.667 21.333 41.165 36.6689 61.498 46.002s43.5 14 69.5 14c28 0 54.167 -5.5 78.5 -16.5s45.5 -26.333 63.5 -46s32 -42.834 42 -69.501s15 -55.667 15 -87c0 -32.667 -5 -62.834 -15 -90.501s-23.833 -51.5 -41.5 -71.5s-38.667 -35.667 -63 -47
s-51.166 -17 -80.499 -17c-25.333 0 -48.166 4.5 -68.499 13.5s-40.833 23.5 -61.5 43.5v-44h-97v729h97v-357zM271.998 345.003c-36 0 -65.001 -12.5 -87.001 -37.5s-33 -57.5 -33 -97.5c0 -40.667 11 -73.5 33 -98.5s51 -37.5 87 -37.5c34 0 62 12.667 84 38s33 58 33 98
c0 19.333 -3 37.333 -9 54s-14.167 31 -24.5 43s-22.666 21.333 -36.999 28s-29.833 10 -46.5 10z" />
    <glyph glyph-name="c" unicode="c" horiz-adv-x="421" 
d="M389 274c-22 26.667 -41.6641 45.167 -58.9971 55.5s-37.666 15.5 -60.999 15.5c-18.667 0 -35.834 -3.33301 -51.501 -10s-29.334 -16 -41.001 -28s-20.667 -26.333 -27 -43s-9.5 -34.667 -9.5 -54c0 -20 3.16699 -38.333 9.5 -55s15 -31 26 -43s24.333 -21.333 40 -28
s32.5 -10 50.5 -10c24 0 44.667 5.16699 62 15.5s37.666 29.5 60.999 57.5v-129c-22.667 -11.333 -42.667 -19.333 -60 -24s-37.666 -7 -60.999 -7c-32 0 -61.833 5.66699 -89.5 17s-51.667 27 -72 47s-36.333 43.5 -48 70.5s-17.5 55.833 -17.5 86.5c0 32 6 61.667 18 89
s28.333 51 49 71s45.167 35.667 73.5 47s58.833 17 91.5 17c21.333 0 41.166 -2.33301 59.499 -7s37.166 -12 56.499 -22v-129z" />
    <glyph glyph-name="d" unicode="d" horiz-adv-x="530" 
d="M468 729l0.000976562 -729.003h-97v44c-20.667 -20 -41.167 -34.5 -61.5 -43.5s-43.166 -13.5 -68.499 -13.5c-28.667 0 -55.334 5.66699 -80.001 17s-45.834 27 -63.501 47s-31.5 43.833 -41.5 71.5s-15 57.834 -15 90.501c0 31.333 5 60.333 15 87s24 49.834 42 69.501
s39.167 35 63.5 46s50.5 16.5 78.5 16.5c26 0 49.167 -4.66699 69.5 -14s40.833 -24.666 61.5 -45.999v357h97zM257.001 344.997c-34 0 -62 -12.668 -84 -38.001s-33 -57.666 -33 -96.999c0 -40 11 -72.667 33 -98s50 -38 84 -38c36 0 65 12.5 87 37.5s33 57.833 33 98.5
c0 40 -11 72.5 -33 97.5s-51 37.5 -87 37.5z" />
    <glyph glyph-name="e" unicode="e" horiz-adv-x="489" 
d="M143 187c2.66699 -34.667 13.668 -62.1699 33.001 -82.5029s44.666 -30.5 75.999 -30.5c24.667 0 45 5.83301 61 17.5s33.667 33.167 53 64.5l82 -46c-25.333 -43.333 -53.833 -74.666 -85.5 -93.999s-69.834 -29 -114.501 -29c-30.667 0 -58.667 5.33301 -84 16
s-47.166 25.667 -65.499 45s-32.5 42.5 -42.5 69.5s-15 56.833 -15 89.5c0 34.667 4.83301 65.834 14.5 93.501s23.334 51.334 41.001 71.001s39.167 34.667 64.5 45s53.666 15.5 84.999 15.5c30 0 57.333 -5.16699 82 -15.5s45.5 -25 62.5 -44s30.167 -42 39.5 -69
s14 -57.167 14 -90.5v-26h-301zM344.001 265.997c-6.66699 25.333 -18.333 44.667 -35 58s-37.667 20 -63 20c-23.333 0 -43.833 -7 -61.5 -21s-29.5 -33 -35.5 -57h195z" />
    <glyph glyph-name="f" unicode="f" horiz-adv-x="262" 
d="M162 0h-97.0039v330h-35v91h35v162c0 28.667 2.33301 52.167 7 70.5s12.334 33.166 23.001 44.499c11.333 12.667 26.833 23 46.5 31s39.167 12 58.5 12c13.333 0 24.333 -1 33 -3s20.334 -6 35.001 -12v-99c-17.333 8.66699 -29.666 14.334 -36.999 17.001
s-15.666 4 -24.999 4c-17.333 0 -29 -6 -35 -18s-9 -35.667 -9 -71v-138h106v-91h-106v-330z" />
    <glyph glyph-name="g" unicode="g" horiz-adv-x="529" 
d="M468 10c0 -20.667 -0.499023 -38.6699 -1.49902 -54.0029s-3 -29.166 -6 -41.499s-6.66699 -23.5 -11 -33.5s-10.166 -20 -17.499 -30c-17.333 -26 -40.833 -46 -70.5 -60s-62.5 -21 -98.5 -21c-62.667 0 -112.167 18.333 -148.5 55s-54.833 86.667 -55.5 150h95
c1.33301 -18 3 -31.833 5 -41.5s5.66699 -18.834 11 -27.501c8.66699 -15.333 21.667 -27.333 39 -36s35.666 -13 54.999 -13c71.333 0 107 43.667 107 131v59c-20 -21.333 -40.5 -36.666 -61.5 -45.999s-44.833 -14 -71.5 -14c-28 0 -54 5.5 -78 16.5
s-44.833 26.333 -62.5 46s-31.334 42.834 -41.001 69.501s-14.5 55.667 -14.5 87c0 32.667 5 62.834 15 90.501s23.667 51.5 41 71.5s38 35.667 62 47s50.333 17 79 17c52.667 0 96.667 -19.667 132 -59v48h97v-411zM257.001 344.997
c-35.333 0 -63.499 -12.334 -84.499 -37.001s-31.5 -57.667 -31.5 -99s10.5 -74.166 31.5 -98.499s49.5 -36.5 85.5 -36.5c35.333 0 63.666 12.5 84.999 37.5s32 58.167 32 99.5c0 40 -10.833 72.333 -32.5 97s-50.167 37 -85.5 37z" />
    <glyph glyph-name="h" unicode="h" horiz-adv-x="485" 
d="M158 729l0.000976562 -343c18.667 16.667 36.667 28.5 54 35.5s37 10.5 59 10.5c26.667 0 50.667 -5 72 -15s38.666 -24 51.999 -42c10.667 -14 18 -29.667 22 -47s6 -40.666 6 -69.999v-258h-97v249c0 33.333 -5.83301 57.666 -17.5 72.999s-30.167 23 -55.5 23
c-35.333 0 -60 -10.333 -74 -31s-21 -57.667 -21 -111v-203h-97v729h97z" />
    <glyph glyph-name="i" unicode="i" horiz-adv-x="220" 
d="M159 0h-97v421h97v-421zM111 659c17.333 0 32.166 -6.16699 44.499 -18.5s18.5 -27.166 18.5 -44.499s-6.33301 -32.333 -19 -45s-27.667 -19 -45 -19s-32.166 6.33301 -44.499 19s-18.5 27.667 -18.5 45s6.16699 32.166 18.5 44.499s27.5 18.5 45.5 18.5z" />
    <glyph glyph-name="j" unicode="j" horiz-adv-x="220" 
d="M159 -229h-97v650h97v-650zM111 659c17.333 0 32.166 -6.16699 44.499 -18.5s18.5 -27.166 18.5 -44.499s-6.33301 -32.333 -19 -45s-27.667 -19 -45 -19s-32.166 6.33301 -44.499 19s-18.5 27.667 -18.5 45s6.16699 32.166 18.5 44.499s27.5 18.5 45.5 18.5z" />
    <glyph glyph-name="k" unicode="k" horiz-adv-x="440" 
d="M158 285l136 136h131l-183 -177l196 -244h-126l-139 177l-15 -15v-162h-97v729h97v-444z" />
    <glyph glyph-name="l" unicode="l" horiz-adv-x="220" 
d="M158 0h-97v729h97v-729z" />
    <glyph glyph-name="m" unicode="m" horiz-adv-x="699" 
d="M158 421l-0.00195312 -39c18.667 19.333 34.834 32.5 48.501 39.5s31.167 10.5 52.5 10.5c48.667 0 86.334 -20.667 113.001 -62c31.333 41.333 73 62 125 62c95.333 0 143 -57.333 143 -172v-260h-97v234c0 40 -5 68.5 -15 85.5s-26.667 25.5 -50 25.5
c-28 0 -48.167 -10 -60.5 -30s-18.5 -52.667 -18.5 -98v-217h-97v233c0 74.667 -21.667 112 -65 112c-28 0 -48.167 -10.167 -60.5 -30.5s-18.5 -52.833 -18.5 -97.5v-217h-97v421h97z" />
    <glyph glyph-name="n" unicode="n" horiz-adv-x="485" 
d="M158 421l0.00195312 -39.001c19.333 18.667 37.166 31.667 53.499 39s36.166 11 59.499 11c52 0 90.333 -14.167 115 -42.5s37 -72.166 37 -131.499v-258h-97v235c0 42 -5.66699 70.833 -17 86.5s-32 23.5 -62 23.5c-32.667 0 -55.667 -10.667 -69 -32s-20 -58 -20 -110
v-203h-97v421h97z" />
    <glyph glyph-name="o" unicode="o" horiz-adv-x="531" 
d="M266 432c31.333 0 60.6641 -5.66699 87.9971 -17s51 -27 71 -47s35.833 -43.667 47.5 -71s17.5 -56.666 17.5 -87.999c0 -30.667 -5.83301 -59.5 -17.5 -86.5s-27.5 -50.5 -47.5 -70.5s-43.667 -35.833 -71 -47.5s-56.666 -17.5 -87.999 -17.5
s-60.666 5.83301 -87.999 17.5s-51.166 27.5 -71.499 47.5s-36.333 43.5 -48 70.5s-17.5 55.833 -17.5 86.5c0 31.333 5.83301 60.666 17.5 87.999s27.5 51 47.5 71s43.667 35.667 71 47s57 17 89 17zM264.998 345c-38 0 -68.333 -12.333 -91 -37s-34 -57.667 -34 -99
c0 -40.667 11.333 -73.334 34 -98.001s53 -37 91 -37s68.5 12.333 91.5 37s34.5 57.334 34.5 98.001c0 41.333 -11.5 74.333 -34.5 99s-53.5 37 -91.5 37z" />
    <glyph glyph-name="p" unicode="p" horiz-adv-x="530" 
d="M61 -229l0.00195312 650.003h97v-46c20.667 20 41.167 34.5 61.5 43.5s43.166 13.5 68.499 13.5c29.333 0 56.166 -5.66699 80.499 -17s45.333 -27 63 -47s31.5 -43.833 41.5 -71.5s15 -57.834 15 -90.501c0 -31.333 -5 -60.333 -15 -87s-24 -49.834 -42 -69.501
s-39.167 -35 -63.5 -46s-50.5 -16.5 -78.5 -16.5c-26 0 -49.333 4.66699 -70 14s-41 24.666 -61 45.999v-276h-97zM272.002 345.003c-36 0 -64.999 -12.499 -86.999 -37.499s-33 -57.5 -33 -97.5c0 -40.667 11 -73.5 33 -98.5s51 -37.5 87 -37.5
c16.667 0 32.167 3.33301 46.5 10s26.666 16 36.999 28s18.5 26.333 24.5 43s9 35 9 55c0 39.333 -11 71.666 -33 96.999s-50 38 -84 38z" />
    <glyph glyph-name="q" unicode="q" horiz-adv-x="530" 
d="M371 47c-20 -21.333 -40.334 -36.6689 -61.001 -46.002s-44 -14 -70 -14c-28 0 -54.167 5.5 -78.5 16.5s-45.5 26.333 -63.5 46s-32 42.834 -42 69.501s-15 55.667 -15 87c0 32.667 5 62.834 15 90.501s23.833 51.5 41.5 71.5s38.834 35.667 63.501 47
s51.334 17 80.001 17c25.333 0 48.166 -4.5 68.499 -13.5s40.833 -23.5 61.5 -43.5v46h97v-650h-97v276zM256.999 344.997c-34 0 -62 -12.668 -84 -38.001s-33 -57.666 -33 -96.999c0 -40 11 -72.667 33 -98s50 -38 84 -38c36 0 65 12.5 87 37.5s33 57.833 33 98.5
c0 40 -11 72.5 -33 97.5s-51 37.5 -87 37.5z" />
    <glyph glyph-name="r" unicode="r" horiz-adv-x="331" 
d="M158 421l-0.000976562 -38c18 19.333 33.833 32.5 47.5 39.5s30.167 10.5 49.5 10.5c15.333 0 28.5 -1.83301 39.5 -5.5s24.833 -10.5 41.5 -20.5l-45 -89c-11.333 8 -20.666 13.5 -27.999 16.5s-16 4.5 -26 4.5c-27.333 0 -47.333 -9.66699 -60 -29s-19 -50 -19 -92
v-218h-97v421h97z" />
    <glyph glyph-name="s" unicode="s" horiz-adv-x="359" 
d="M226 306c-13.333 26 -29.333 39.002 -48 39.002c-8.66699 0 -16.167 -2.83301 -22.5 -8.5s-9.5 -12.834 -9.5 -21.501c0 -9.33301 3.5 -17 10.5 -23s22.167 -14.333 45.5 -25c26 -12 47.5 -23 64.5 -33s30.333 -20.167 40 -30.5s16.5 -21.5 20.5 -33.5s6 -25.667 6 -41
c0 -20 -3.83301 -38.5 -11.5 -55.5s-18.334 -32 -32.001 -45s-29.5 -23.167 -47.5 -30.5s-37.333 -11 -58 -11c-70.667 0 -121 34.667 -151 104l83 38c11.333 -21.333 21.833 -35.833 31.5 -43.5s21.834 -11.5 36.501 -11.5c15.333 0 27.5 4.16699 36.5 12.5
s13.5 19.166 13.5 32.499c0 7.33301 -0.833008 13.333 -2.5 18s-5.66699 9.5 -12 14.5s-16 10.833 -29 17.5l-53.5 27c-31.333 15.333 -52.833 30.833 -64.5 46.5s-17.5 36.5 -17.5 62.5c0 38 12.333 68.667 37 92s57 35 97 35c51.333 0 90.333 -27.667 117 -83z" />
    <glyph glyph-name="t" unicode="t" horiz-adv-x="242" 
d="M161 0h-97v330h-41v91h41v154h97v-154h76v-91h-76v-330z" />
    <glyph glyph-name="u" unicode="u" horiz-adv-x="482" 
d="M158 179c0 -36 6.66699 -62.5 20 -79.5s34 -25.5 62 -25.5c28.667 0 49.667 8.5 63 25.5s20 43.5 20 79.5v242h97v-244c0 -33.333 -3.33301 -60.166 -10 -80.499s-18 -39.166 -34 -56.499c-34 -35.333 -79.333 -53 -136 -53c-56 0 -101 17.667 -135 53
c-16 17.333 -27.333 36.166 -34 56.499s-10 47.166 -10 80.499v244h97v-242z" />
    <glyph glyph-name="v" unicode="v" horiz-adv-x="444" 
d="M223 185l108 236h109l-218 -450l-217 450h109z" />
    <glyph glyph-name="w" unicode="w" horiz-adv-x="684" 
d="M224 181l119 278l120 -278l109 240h108l-220 -453l-117 272l-118 -272l-220 453h109z" />
    <glyph glyph-name="x" unicode="x" horiz-adv-x="494" 
d="M41 421h116l93 -123l96 123h119l-156 -193l180 -228h-115l-124 157l-126 -157h-119l187 228z" />
    <glyph glyph-name="y" unicode="y" horiz-adv-x="480" 
d="M5 421h113l128 -242l120 242h110l-335 -650h-111l164 308z" />
    <glyph glyph-name="z" unicode="z" horiz-adv-x="480" 
d="M451 91v-91h-443l273 330h-215v91h407l-272 -330h250z" />
    <glyph glyph-name="braceleft" unicode="{" horiz-adv-x="316" 
d="M260 648c-12.667 0 -23.167 -0.998047 -31.5 -2.99805s-14.833 -6 -19.5 -12s-7.83398 -14 -9.50098 -24s-2.5 -23 -2.5 -39v-173c0 -16.667 -1 -31 -3 -43s-5.16699 -22.667 -9.5 -32s-10.5 -17.5 -18.5 -24.5s-18 -14.167 -30 -21.5c40.667 -24.667 61 -56.667 61 -96
v-196c0 -16.667 0.833008 -30.167 2.5 -40.5s4.83398 -18.5 9.50098 -24.5s11.167 -10 19.5 -12s18.833 -3 31.5 -3h11v-87c-5.33301 0 -10 -0.166992 -14 -0.5s-7.33301 -0.5 -10 -0.5c-8.66699 0 -16.167 -0.166992 -22.5 -0.5s-10.166 -0.5 -11.499 -0.5
c-40.667 0 -70.167 11.5 -88.5 34.5s-27.5 60.167 -27.5 111.5v213c0 15.333 -5 28.833 -15 40.5s-23.667 19.5 -41 23.5v83c20 5.33301 34.333 14.166 43 26.499s13 31.166 13 56.499v192c0 50 9.16699 86 27.5 108s47.833 33 88.5 33h12.5
c6.33301 0 13.166 -0.333008 20.499 -1h11c4 0 8.66699 -0.333008 14 -1v-87h-11z" />
    <glyph glyph-name="bar" unicode="|" 
d="M300 667v-834h-100v834h100z" />
    <glyph glyph-name="braceright" unicode="}" horiz-adv-x="316" 
d="M56 -96c13.333 0 23.9971 0.999023 31.9971 2.99902s14.333 5.83301 19 11.5s7.83398 13.667 9.50098 24s2.5 23.5 2.5 39.5v173c0 16.667 1 31 3 43s5.16699 22.667 9.5 32s10.5 17.666 18.5 24.999s18 14.333 30 21c-40.667 24.667 -61 56.667 -61 96v196
c0 32.667 -4.16699 54.167 -12.5 64.5s-25.166 15.5 -50.499 15.5h-11v87c5.33301 0.666992 10 1 14 1h10c8 0.666992 15.333 1 22 1h12c40.667 0 70.167 -11.5 88.5 -34.5s27.5 -60.167 27.5 -111.5v-213c0 -15.333 5 -28.666 15 -39.999s23.667 -19.333 41 -24v-83
c-20 -4.66699 -34.333 -13.167 -43 -25.5s-13 -31.166 -13 -56.499v-193c0 -50 -9.16699 -86 -27.5 -108s-47.833 -33 -88.5 -33c-1.33301 0 -5.33301 0.166992 -12 0.5s-13.667 0.5 -21 0.5c-2.66699 0 -6.16699 0.166992 -10.5 0.5s-9.16602 0.5 -14.499 0.5v87h11z" />
    <glyph glyph-name="asciitilde" unicode="~" horiz-adv-x="667" 
d="M92 609c11.333 24 22.333 44 33 60s21.5 29 32.5 39s22.833 17 35.5 21s27 6 43 6c26 0 62 -10 108 -30c22.667 -9.33301 41 -16.166 55 -20.499s26 -6.5 36 -6.5c15.333 0 30 4 44 12c1.33301 0.666992 2 0.833984 2 0.500977s0.666992 0.166992 2 1.5
s4 4.66602 8 9.99902s11 14 21 26c6.66699 8 12.334 12 17.001 12c14 0 29.667 -12.333 47 -37c-22 -44 -44.5 -75.333 -67.5 -94s-50.5 -28 -82.5 -28c-24.667 0 -62 11.333 -112 34c-17.333 7.33301 -33.333 13.166 -48 17.499s-27.334 6.5 -38.001 6.5
c-5.33301 0 -12 -1.33301 -20 -4s-14.667 -5.66699 -20 -9c-1.33301 -0.666992 -2 -0.666992 -2 0s-0.666992 0 -2 -2l-8.5 -12.5l-21.5 -30.5c-5.33301 -7.33301 -11 -11 -17 -11s-13 3.5 -21 10.5s-16 16.5 -24 28.5z" />
    <glyph glyph-name="exclamdown" unicode="&#xa1;" horiz-adv-x="293" 
d="M147 526c16.667 0 30.834 -5.83301 42.501 -17.5s17.5 -25.834 17.5 -42.501s-5.83301 -30.834 -17.5 -42.501s-25.834 -17.5 -42.501 -17.5s-30.834 5.83301 -42.501 17.5s-17.5 25.834 -17.5 42.501s5.83301 30.834 17.5 42.501s25.834 17.5 42.501 17.5zM195 -153h-97
v518h97v-518z" />
    <glyph glyph-name="cent" unicode="&#xa2;" horiz-adv-x="567" 
d="M336 555c22 -2.66699 39.8311 -5.83105 53.498 -9.49805s28.834 -9.83398 45.501 -18.501v-130c-22.667 25.333 -42.834 43 -60.501 53s-38.167 15 -61.5 15c-37.333 0 -67.5 -12.167 -90.5 -36.5s-34.5 -56.5 -34.5 -96.5c0 -38 11.167 -68.833 33.5 -92.5
s51.5 -35.5 87.5 -35.5c14 0 26.333 1 37 3s20.667 5.83301 30 11.5s18.833 13 28.5 22s19.834 20.5 30.501 34.5v-134c-11.333 -4.66699 -21 -8.5 -29 -11.5s-15.5 -5.5 -22.5 -7.5s-14.167 -3.66699 -21.5 -5s-16 -2.66602 -26 -3.99902v-86h-74v90
c-114 35.333 -171 107.666 -171 216.999c0 54.667 14.333 100.667 43 138s71.334 64.666 128.001 81.999v85h74v-84z" />
    <glyph glyph-name="sterling" unicode="&#xa3;" horiz-adv-x="567" 
d="M365 329l-0.00292969 -71h-101c7.33301 -27.333 11 -49 11 -65c0 -7.33301 -0.833008 -15.666 -2.5 -24.999s-5.16699 -22.666 -10.5 -39.999l34.5 -12c7.66699 -2.66699 13.834 -4.66699 18.501 -6c23.333 -8.66699 40 -14.334 50 -17.001s19 -4 27 -4
c12.667 0 23.5 4.16699 32.5 12.5s20.833 25.166 35.5 50.499l81 -48c-19.333 -40.667 -40.333 -69.667 -63 -87s-51 -26 -85 -26c-14.667 0 -30.334 2 -47.001 6s-38 10.667 -64 20c-16 6 -29.333 10.667 -40 14s-19.667 6 -27 8s-13.5 3.33301 -18.5 4s-10.167 1 -15.5 1
c-16.667 0 -29.334 -3.66699 -38.001 -11s-19 -23.333 -31 -48l-86 44c12 20 23 36.667 33 50s20.167 24.166 30.5 32.499s21.5 14.5 33.5 18.5s25.667 6.66699 41 8c3.33301 13.333 5.83301 24.5 7.5 33.5s2.5 18.167 2.5 27.5c0 12 -1.16699 22.333 -3.5 31
s-6.16602 18 -11.499 28h-114v71h78c-13.333 28 -23.666 54 -30.999 78s-11 45.333 -11 64c0 28.667 5.83301 55.5 17.5 80.5s27.5 46.833 47.5 65.5s43.333 33.5 70 44.5s55.334 16.5 86.001 16.5c64.667 0 115.834 -19.167 153.501 -57.5s58.167 -91.166 61.5 -158.499
l-99 -37c-0.666992 16.667 -1.33398 30.334 -2.00098 41.001s-1.5 19.834 -2.5 27.501s-2.33301 14.167 -4 19.5s-4.16699 10.666 -7.5 15.999c-9.33301 17.333 -22.5 30.666 -39.5 39.999s-36.167 14 -57.5 14c-36 0 -65.167 -11 -87.5 -33s-33.5 -51 -33.5 -87
c0 -16 3.5 -33.5 10.5 -52.5s18.833 -43.5 35.5 -73.5c0.666992 -1.33301 1.33398 -2.5 2.00098 -3.5l3 -4.5h130z" />
    <glyph glyph-name="currency" unicode="&#xa4;" horiz-adv-x="667" 
d="M137 229c-32 44 -47.999 90.333 -47.999 139c0 25.333 3.66699 49 11 71s19.666 45 36.999 69l-100 99l55 56l99 -100c25.333 17.333 49 29.666 71 36.999s46.667 11 74 11c24.667 0 47.834 -3.66699 69.501 -11s44.5 -19.333 68.5 -36l99 98l54 -55l-97 -98
c17.333 -25.333 29.666 -48.833 36.999 -70.5s11 -45.167 11 -70.5s-3.66699 -48.666 -11 -69.999s-19.333 -44.333 -36 -69l99 -99l-55 -55l-99 99c-43.333 -32 -91 -48 -143 -48c-24.667 0 -48 3.66699 -70 11s-45.667 19.333 -71 36l-99 -98l-54 55zM334.001 522
c-21.333 0 -41.333 -4 -60 -12s-34.834 -19 -48.501 -33s-24.5 -30.333 -32.5 -49s-12 -38.667 -12 -60c0 -20.667 4 -40.334 12 -59.001s19 -35 33 -49s30.333 -25 49 -33s38.334 -12 59.001 -12c21.333 0 41.166 4 59.499 12s34.333 19 48 33s24.5 30.333 32.5 49
s12 38.334 12 59.001c0 21.333 -4 41.333 -12 60s-18.833 35 -32.5 49s-29.667 25 -48 33s-38.166 12 -59.499 12z" />
    <glyph glyph-name="yen" unicode="&#xa5;" horiz-adv-x="567" 
d="M187 376h-142v71h104l-121 220h109l146 -267l146 267h110l-121 -220h104v-71h-143l-41 -73h184v-71h-192v-232h-94v232h-191v71h183z" />
    <glyph glyph-name="brokenbar" unicode="&#xa6;" 
d="M300 667v-340h-100v340h100zM300 153v-320h-100v320h100z" />
    <glyph glyph-name="section" unicode="&#xa7;" horiz-adv-x="567" 
d="M178 8c4 -35.333 13.998 -61.1699 29.998 -77.5029s39 -24.5 69 -24.5c28.667 0 50.667 7.83301 66 23.5s23 38.5 23 68.5c0 13.333 -1.5 24.5 -4.5 33.5s-8.66699 17.333 -17 25s-20.166 15.167 -35.499 22.5s-35.333 16 -60 26c-30.667 12 -56 23.5 -76 34.5
s-36 23.167 -48 36.5s-20.5 28.166 -25.5 44.499s-7.5 35.5 -7.5 57.5c0 72.667 31.333 123 94 151c-52 30.667 -78 73.667 -78 129c0 24.667 5 47.834 15 69.501s23.833 40.5 41.5 56.5s38.167 28.667 61.5 38s48.333 14 75 14c54 0 97.333 -18.167 130 -54.5
s50.334 -85.833 53.001 -148.5h-92c-2.66699 38 -11.334 65.833 -26.001 83.5s-37 26.5 -67 26.5c-28 0 -50.833 -8.5 -68.5 -25.5s-26.5 -38.833 -26.5 -65.5c0 -25.333 10.333 -45 31 -59l11.5 -8c3 -2 7 -4 12 -6s12.167 -4.66699 21.5 -8l39 -14
c31.333 -11.333 57.5 -22.666 78.5 -33.999s38 -23.666 51 -36.999s22.167 -28.333 27.5 -45s8 -36 8 -58c0 -36.667 -7 -66.667 -21 -90s-38.333 -45.666 -73 -66.999c27.333 -17.333 46.5 -36.166 57.5 -56.499s16.5 -45.5 16.5 -75.5c0 -26 -4.66699 -50.167 -14 -72.5
s-22.333 -41.5 -39 -57.5s-36.5 -28.5 -59.5 -37.5s-48.167 -13.5 -75.5 -13.5c-40 0 -75.667 9.16699 -107 27.5s-53.666 43.166 -66.999 74.499c-6 13.333 -10.333 26.833 -13 40.5s-4.66699 31.167 -6 52.5h95zM286.998 375.996c-14 0 -27 -2.5 -39 -7.5
s-22.5 -12 -31.5 -21s-16.167 -19.333 -21.5 -31s-8 -24.167 -8 -37.5s2.66699 -26 8 -38s12.5 -22.5 21.5 -31.5s19.5 -16 31.5 -21s25 -7.5 39 -7.5s27.167 2.5 39.5 7.5s23 12 32 21s16.167 19.5 21.5 31.5s8 24.667 8 38s-2.66699 25.833 -8 37.5s-12.5 22 -21.5 31
s-19.667 16 -32 21s-25.5 7.5 -39.5 7.5z" />
    <glyph glyph-name="dieresis" unicode="&#xa8;" 
d="M160 615c17.333 0 31.833 -5.83301 43.5 -17.5s17.5 -26.167 17.5 -43.5s-6 -32 -18 -44s-26.333 -18 -43 -18c-17.333 0 -32 6 -44 18s-18 26.667 -18 44c0 16.667 6 31 18 43s26.667 18 44 18zM341 615c17.333 0 31.833 -5.83301 43.5 -17.5s17.5 -26.167 17.5 -43.5
s-6 -32 -18 -44s-26.333 -18 -43 -18c-17.333 0 -32 6 -44 18s-18 26.667 -18 44c0 16.667 6 31 18 43s26.667 18 44 18z" />
    <glyph glyph-name="copyright" unicode="&#xa9;" horiz-adv-x="758" 
d="M512 423c-12.667 10 -23.832 18.166 -33.499 24.499s-19 11.5 -28 15.5s-17.833 6.66699 -26.5 8s-18.667 2 -30 2c-19.333 0 -37.5 -3.66699 -54.5 -11s-31.667 -17.333 -44 -30s-22.166 -27.5 -29.499 -44.5s-11 -35.167 -11 -54.5c0 -20 3.66699 -38.333 11 -55
s17.166 -31.334 29.499 -44.001s27.166 -22.5 44.499 -29.5s36 -10.5 56 -10.5c10 0 19.333 0.833008 28 2.5s17.334 4.33398 26.001 8.00098s18 8.83398 28 15.501s21.333 15 34 25v-88c-38.667 -20.667 -78 -31 -118 -31c-30 0 -58.167 5.33301 -84.5 16
s-49.166 25.334 -68.499 44.001s-34.5 40.667 -45.5 66s-16.5 52.666 -16.5 81.999c0 28 5.83301 54.5 17.5 79.5s27.167 47 46.5 66s42.166 34 68.499 45s53.833 16.5 82.5 16.5c12 0 22.667 -0.5 32 -1.5s18.5 -2.66699 27.5 -5s18.167 -5.5 27.5 -9.5
s19.666 -9 30.999 -15v-87zM374.002 680.999c49.333 0 95.167 -9.00195 137.5 -27.002s79.333 -42.667 111 -74s56.5 -68 74.5 -110s27 -87.333 27 -136c0 -48 -9 -93.167 -27 -135.5s-42.5 -79.166 -73.5 -110.499s-67.5 -56.166 -109.5 -74.499s-86.667 -27.5 -134 -27.5
c-48 0 -93 9 -135 27s-78.833 42.833 -110.5 74.5s-56.5 68.667 -74.5 111s-27 87.5 -27 135.5c0 47.333 9 92 27 134s42.5 78.833 73.5 110.5s67.167 56.667 108.5 75s85.333 27.5 132 27.5zM375.003 629.997c-38.667 0 -75.3311 -7.83398 -109.998 -23.501
s-65 -37 -91 -64s-46.667 -58.5 -62 -94.5s-23 -74.333 -23 -115s7.66699 -79.167 23 -115.5s36.166 -67.833 62.499 -94.5s57.166 -47.834 92.499 -63.501s73 -23.5 113 -23.5s77.5 7.83301 112.5 23.5s65.5 36.834 91.5 63.501s46.5 58.167 61.5 94.5
s22.5 74.833 22.5 115.5c0 41.333 -7.5 80 -22.5 116s-35.5 67.333 -61.5 94s-56.5 47.834 -91.5 63.501s-72.5 23.5 -112.5 23.5h-5z" />
    <glyph glyph-name="ordfeminine" unicode="&#xaa;" horiz-adv-x="362" 
d="M309 654l0.00195312 -254h-64v24c-13.333 -11.333 -25.833 -19.333 -37.5 -24s-25.167 -7 -40.5 -7c-18 0 -34.833 3.33301 -50.5 10s-29 16 -40 28s-19.667 26.333 -26 43s-9.5 35 -9.5 55c0 18.667 3.16699 36 9.5 52s15.166 30 26.499 42s24.5 21.333 39.5 28
s31.5 10 49.5 10c15.333 0 29.166 -2.66699 41.499 -8s24.833 -14 37.5 -26v27h64zM177.002 605c-20.667 0 -37.667 -7.33105 -51 -21.998s-20 -33.334 -20 -56.001c0 -23.333 6.66699 -42.333 20 -57s30.333 -22 51 -22c21.333 0 38.666 7.33301 51.999 22s20 33.667 20 57
s-6.66699 42.166 -20 56.499s-30.666 21.5 -51.999 21.5zM25.002 347.002h300v-57h-300v57z" />
    <glyph glyph-name="guillemotleft" unicode="&#xab;" horiz-adv-x="509" 
d="M456 48l-65 -47l-166 213l166 220l65 -48l-130 -172zM271 48l-65 -47l-166 213l166 220l65 -48l-130 -172z" />
    <glyph glyph-name="logicalnot" unicode="&#xac;" 
d="M366 173h-333v93h433v-266h-100v173z" />
    <glyph glyph-name="registered" unicode="&#xae;" horiz-adv-x="758" 
d="M543 133h-93.001l-119 158v-158h-76v400h80c54 0 95 -10 123 -30s42 -49.667 42 -89c0 -26 -7.66699 -49.333 -23 -70s-34.666 -34.667 -57.999 -42l-6 -2zM343.999 356c54.667 0 82 19 82 57c0 34.667 -26.667 52 -80 52h-15v-109h13zM373.999 681
c49.333 0 95.167 -9.00195 137.5 -27.002s79.333 -42.667 111 -74s56.5 -68 74.5 -110s27 -87.333 27 -136c0 -48 -9 -93.167 -27 -135.5s-42.5 -79.166 -73.5 -110.499s-67.5 -56.166 -109.5 -74.499s-86.667 -27.5 -134 -27.5c-48 0 -93 9 -135 27
s-78.833 42.833 -110.5 74.5s-56.5 68.667 -74.5 111s-27 87.5 -27 135.5c0 47.333 9 92 27 134s42.5 78.833 73.5 110.5s67.167 56.667 108.5 75s85.333 27.5 132 27.5zM375 629.998c-38.667 0 -75.3311 -7.83398 -109.998 -23.501s-65 -37 -91 -64
s-46.667 -58.5 -62 -94.5s-23 -74.333 -23 -115s7.66699 -79.167 23 -115.5s36.166 -67.833 62.499 -94.5s57.166 -47.834 92.499 -63.501s73 -23.5 113 -23.5s77.5 7.83301 112.5 23.5s65.5 36.834 91.5 63.501s46.5 58.167 61.5 94.5s22.5 74.833 22.5 115.5
c0 41.333 -7.5 80 -22.5 116s-35.5 67.333 -61.5 94s-56.5 47.834 -91.5 63.501s-72.5 23.5 -112.5 23.5h-5z" />
    <glyph glyph-name="macron" unicode="&#xaf;" 
d="M402 580v-78h-303v78h303z" />
    <glyph glyph-name="degree" unicode="&#xb0;" horiz-adv-x="400" 
d="M201 686c21.333 0 41.002 -3.83203 59.002 -11.499s33.667 -18.334 47 -32.001s23.833 -29.667 31.5 -48s11.5 -38.5 11.5 -60.5c0 -21.333 -3.83301 -41.333 -11.5 -60s-18.334 -34.834 -32.001 -48.501s-29.5 -24.5 -47.5 -32.5s-37.667 -12 -59 -12
c-20.667 0 -40.167 4 -58.5 12s-34.333 18.833 -48 32.5s-24.334 29.834 -32.001 48.501s-11.5 39 -11.5 61c0 20.667 4 40.167 12 58.5s18.833 34.333 32.5 48s29.667 24.5 48 32.5s37.833 12 58.5 12zM199.002 629.001c-26 0 -48 -9.33301 -66 -28s-27 -42 -27 -70
c0 -12 2.5 -23.667 7.5 -35s11.667 -21.333 20 -30s18 -15.5 29 -20.5s22.5 -7.5 34.5 -7.5c28 0 51 9 69 27s27 40.333 27 67c0 28 -8.83301 51.167 -26.5 69.5s-40.167 27.5 -67.5 27.5z" />
    <glyph glyph-name="plusminus" unicode="&#xb1;" horiz-adv-x="549" 
d="M302 417h237v-55h-237v-233h-55v233h-237v55h237v245h55v-245zM535 55v-55h-524v55h524z" />
    <glyph glyph-name="twosuperior" unicode="&#xb2;" horiz-adv-x="387" 
d="M317 329l0.00292969 -63h-284l146 171c5.33301 7.33301 13.166 17.333 23.499 30s18.5 23 24.5 31c8 10.667 13.667 20 17 28s5 16.667 5 26c0 17.333 -6.33301 31.833 -19 43.5s-28.334 17.5 -47.001 17.5c-38.667 0 -61 -23.333 -67 -70h-68
c5.33301 42.667 19.166 75.167 41.499 97.5s52.5 33.5 90.5 33.5c19.333 0 37.333 -3 54 -9s31 -14.5 43 -25.5s21.5 -24 28.5 -39s10.5 -31.5 10.5 -49.5c0 -10.667 -1.33301 -21 -4 -31s-7.33398 -21 -14.001 -33s-15.667 -25.167 -27 -39.5s-25.666 -31.5 -42.999 -51.5
l-58 -67h147z" />
    <glyph glyph-name="threesuperior" unicode="&#xb3;" horiz-adv-x="387" 
d="M161 506c28 0 47.666 3.83301 58.999 11.5s17 21.167 17 40.5c0 16.667 -5.5 30 -16.5 40s-25.167 15 -42.5 15c-16 0 -28.5 -4.16699 -37.5 -12.5s-15.167 -22.166 -18.5 -41.499h-68c7.33301 40.667 20.666 70 39.999 88s48 27 86 27c36 0 65.667 -10.5 89 -31.5
s35 -47.833 35 -80.5c0 -36.667 -13.667 -65 -41 -85c31.333 -19.333 47 -50.666 47 -93.999c0 -36 -12.667 -65.5 -38 -88.5s-58 -34.5 -98 -34.5c-38.667 0 -69.167 10.167 -91.5 30.5s-35.166 50.166 -38.499 89.499h66c6.66699 -39.333 29.334 -59 68.001 -59
c19.333 0 35 6 47 18s18 27.333 18 46c0 23.333 -6.16699 39.666 -18.5 48.999s-33.5 14.333 -63.5 15v57z" />
    <glyph glyph-name="acute" unicode="&#xb4;" 
d="M258 486l-53 32l119 158l91 -48z" />
    <glyph glyph-name="mu" unicode="&#xb5;" horiz-adv-x="576" 
d="M442 131c0 -27.333 4.49512 -49.166 13.4951 -65.499s20.833 -24.5 35.5 -24.5c12 0 22.833 6.5 32.5 19.5s15.167 29.167 16.5 48.5l27 -1c-7.33301 -39.333 -21.166 -69.333 -41.499 -90s-46.5 -31 -78.5 -31c-25.333 0 -45.166 7.16699 -59.499 21.5
s-25.5 38.166 -33.5 71.499c-52.667 -62 -104.334 -93 -155.001 -93c-17.333 0 -32.666 3.33301 -45.999 10s-30.666 18.667 -51.999 36c0 -9.33301 0.166992 -17.333 0.5 -24s0.833008 -13 1.5 -19s1.83398 -12.333 3.50098 -19s3.83398 -14.667 6.50098 -24
c4 -14.667 7.16699 -26.667 9.5 -36l6 -24c1.66699 -6.66699 2.66699 -12.334 3 -17.001s0.5 -9.66699 0.5 -15c0 -22.667 -4.5 -40.667 -13.5 -54s-21.167 -20 -36.5 -20c-14 0 -25.667 6.66699 -35 20s-14 29.666 -14 48.999c0 6.66699 0.166992 12.334 0.5 17.001
s1 10 2 16s2.66699 13.667 5 23l9.5 38c8 30 12 55.333 12 76v480h88v-331c0 -35.333 8 -62.666 24 -81.999s38.333 -29 67 -29c21.333 0 41 5.83301 59 17.5s35.667 30.167 53 55.5v369h89v-369z" />
    <glyph glyph-name="paragraph" unicode="&#xb6;" horiz-adv-x="567" 
d="M191 -95l-0.000976562 430h-11c-46 0 -83 15 -111 45s-42 69.667 -42 119c0 56 16.333 98 49 126s81.334 42 146.001 42h310l-56 -93h-26v-669h-92v669h-75v-669h-92z" />
    <glyph glyph-name="periodcentered" unicode="&#xb7;" horiz-adv-x="253" 
d="M127 273c16.667 0 30.834 -5.83301 42.501 -17.5s17.5 -25.834 17.5 -42.501s-5.83301 -30.834 -17.5 -42.501s-25.834 -17.5 -42.501 -17.5s-30.834 5.83301 -42.501 17.5s-17.5 25.834 -17.5 42.501s5.83301 30.834 17.5 42.501s25.834 17.5 42.501 17.5z" />
    <glyph glyph-name="cedilla" unicode="&#xb8;" 
d="M237 -218l-63 32l86 133l80 -33z" />
    <glyph glyph-name="onesuperior" unicode="&#xb9;" horiz-adv-x="387" 
d="M97 605l38 62h103v-400h-68v338h-73z" />
    <glyph glyph-name="ordmasculine" unicode="&#xba;" horiz-adv-x="363" 
d="M181 661c20 0 38.5 -3.5 55.5 -10.5s31.833 -16.5 44.5 -28.5s22.667 -26.167 30 -42.5s11 -33.833 11 -52.5s-3.66699 -36.167 -11 -52.5s-17.333 -30.5 -30 -42.5s-27.5 -21.5 -44.5 -28.5s-35.5 -10.5 -55.5 -10.5s-38.5 3.5 -55.5 10.5s-31.833 16.5 -44.5 28.5
s-22.667 26.167 -30 42.5s-11 33.833 -11 52.5s3.66699 36.167 11 52.5s17.333 30.5 30 42.5s27.5 21.5 44.5 28.5s35.5 10.5 55.5 10.5zM181 606c-23.333 0 -41.833 -7.16699 -55.5 -21.5s-20.5 -33.5 -20.5 -57.5s6.83301 -43.167 20.5 -57.5s32.167 -21.5 55.5 -21.5
s41.833 7.16699 55.5 21.5s20.5 33.5 20.5 57.5s-6.83301 43.167 -20.5 57.5s-32.167 21.5 -55.5 21.5zM31 347h300v-57h-300v57z" />
    <glyph glyph-name="guillemotright" unicode="&#xbb;" horiz-adv-x="509" 
d="M53 386l65 48l166 -220l-166 -213l-65 47l129 166zM238 386l65 48l166 -220l-167 -213l-64 47l129 166z" />
    <glyph glyph-name="onequarter" unicode="&#xbc;" horiz-adv-x="855" 
d="M77 605l38 62h103v-400h-68v338h-73zM642 652l-382 -663l-47 29l382 660zM828 116v-60h-42v-56h-69v56h-203l272 381v-321h42zM717 234l-84 -118h84v118z" />
    <glyph glyph-name="onehalf" unicode="&#xbd;" horiz-adv-x="855" 
d="M77 605l38 62h103v-400h-68v338h-73zM642 652l-382 -663l-47 29l382 660zM806 63l0.00390625 -62.9971h-284l146 171l23 29l25 32c8 10.667 13.667 20 17 28s5 16.333 5 25c0 17.333 -6.33301 32 -19 44s-28.334 18 -47.001 18c-38.667 0 -61 -23.667 -67 -71h-68
c5.33301 43.333 19.166 76.166 41.499 98.499s52.5 33.5 90.5 33.5c19.333 0 37.166 -3.16699 53.499 -9.5s30.666 -14.833 42.999 -25.5s22 -23.334 29 -38.001s10.5 -30.334 10.5 -47.001c0 -11.333 -1.33301 -22.333 -4 -33s-7.33398 -22 -14.001 -34
s-15.667 -25.167 -27 -39.5s-25.666 -31.5 -42.999 -51.5l-58 -67h147z" />
    <glyph glyph-name="threequarters" unicode="&#xbe;" horiz-adv-x="855" 
d="M141 506c28 0 47.666 3.83301 58.999 11.5s17 21.167 17 40.5c0 16.667 -5.5 30 -16.5 40s-25.167 15 -42.5 15c-16 0 -28.5 -4.16699 -37.5 -12.5s-15.167 -22.166 -18.5 -41.499h-68c7.33301 40.667 20.666 70 39.999 88s48 27 86 27c36 0 65.667 -10.5 89 -31.5
s35 -47.833 35 -80.5c0 -36.667 -13.667 -65 -41 -85c31.333 -19.333 47 -50.666 47 -93.999c0 -36 -12.667 -65.5 -38 -88.5s-58 -34.5 -98 -34.5c-38.667 0 -69.167 10.167 -91.5 30.5s-35.166 50.166 -38.499 89.499h66c6.66699 -39.333 29.334 -59 68.001 -59
c19.333 0 35 6 47 18s18 27.333 18 46c0 23.333 -6.16699 39.666 -18.5 48.999s-33.5 14.333 -63.5 15v57zM641.999 652l-382 -663l-47 29l382 660zM827.999 116v-60h-42v-56h-69v56h-203l272 381v-321h42zM716.999 234l-84 -118h84v118z" />
    <glyph glyph-name="questiondown" unicode="&#xbf;" horiz-adv-x="433" 
d="M68 202c1.33301 23.333 3.83203 41.502 7.49902 54.502s9.83398 26.167 18.501 39.5c13.333 19.333 31.5 34.833 54.5 46.5s46.167 17.5 69.5 17.5c20.667 0 40 -3.83301 58 -11.5s33.667 -18.167 47 -31.5s23.833 -28.833 31.5 -46.5s11.5 -36.834 11.5 -57.501
c0 -34.667 -8.66699 -62.167 -26 -82.5s-47.666 -38.5 -90.999 -54.5c-21.333 -8 -38.5 -14.833 -51.5 -20.5s-23 -11.334 -30 -17.001s-11.5 -12 -13.5 -19s-3 -15.833 -3 -26.5c0 -18.667 6 -33.834 18 -45.501s27.667 -17.5 47 -17.5c20.667 0 37 5.83301 49 17.5
s18 27.5 18 47.5c0 4.66699 -0.333008 9.5 -1 14.5s-2.33398 12.167 -5.00098 21.5h101l1.5 -20.5c0.333008 -4.33301 0.5 -9.16602 0.5 -14.499c0 -22.667 -4 -43.667 -12 -63s-19.333 -36.166 -34 -50.499s-32 -25.5 -52 -33.5s-41.667 -12 -65 -12
c-22.667 0 -44 4 -64 12s-37.5 19.167 -52.5 33.5s-26.667 31 -35 50s-12.5 39.5 -12.5 61.5c0 56 19.667 98.333 59 127c11.333 8 24.166 15.167 38.499 21.5s35.166 13.5 62.499 21.5c20 6 34.333 13.167 43 21.5s13 19.166 13 32.499c0 14 -5 26 -15 36
s-21.667 15 -35 15c-17.333 0 -30.166 -5.16699 -38.499 -15.5s-13.166 -27.5 -14.499 -51.5h-98zM215.999 526.002c16.667 0 30.834 -5.83301 42.501 -17.5s17.5 -25.834 17.5 -42.501s-5.83301 -30.834 -17.5 -42.501s-25.834 -17.5 -42.501 -17.5
s-30.834 5.83301 -42.501 17.5s-17.5 25.834 -17.5 42.501s5.83301 30.834 17.5 42.501s25.834 17.5 42.501 17.5z" />
    <glyph glyph-name="Agrave" unicode="&#xc0;" horiz-adv-x="655" 
d="M186 162l-75 -162h-108l330 709l318 -709h-110l-70 162h-285zM331 483l-103 -226h202zM260 906l139 -139l-48 -40l-176 119z" />
    <glyph glyph-name="Aacute" unicode="&#xc1;" horiz-adv-x="655" 
d="M186 162l-75 -162h-108l330 709l318 -709h-110l-70 162h-285zM331 483l-103 -226h202zM310 727l-48 40l138 139l86 -60z" />
    <glyph glyph-name="Acircumflex" unicode="&#xc2;" horiz-adv-x="655" 
d="M186 162l-75 -162h-108l330 709l318 -709h-110l-70 162h-285zM331 483l-103 -226h202zM333 917l153 -139l-66 -51l-87 81l-86 -81l-66 51z" />
    <glyph glyph-name="Atilde" unicode="&#xc3;" horiz-adv-x="655" 
d="M186 162l-75 -162h-108l330 709l318 -709h-110l-70 162h-285zM331 483l-103 -226h202zM156 781l14.4951 21.002c3.66699 5.33301 6.83398 9.66602 9.50098 12.999s4.83398 6.16602 6.50098 8.49902s3.83398 4.83301 6.50098 7.5c9.33301 9.33301 20.333 16.833 33 22.5
s25.334 8.5 38.001 8.5s25.334 -1.83301 38.001 -5.5s26.667 -9.16699 42 -16.5l26 -13.5c6 -3 10.833 -5.16699 14.5 -6.5s6.66699 -2.16602 9 -2.49902s4.83301 -0.5 7.5 -0.5c10 0 18.833 3.33301 26.5 10s17.167 18.667 28.5 36l55 -46
c-28 -55.333 -65.667 -83 -113 -83c-11.333 0 -22 1.5 -32 4.5s-25.667 9.5 -47 19.5c-15.333 7.33301 -27.5 12.5 -36.5 15.5s-16.5 4.5 -22.5 4.5c-8.66699 0 -16.5 -3.33301 -23.5 -10s-15.167 -18.334 -24.5 -35.001z" />
    <glyph glyph-name="Adieresis" unicode="&#xc4;" horiz-adv-x="655" 
d="M186 162l-75 -162h-108l330 709l318 -709h-110l-70 162h-285zM331 483l-103 -226h202zM237 857c17.333 0 32 -6 44 -18s18 -26.667 18 -44s-6 -32 -18 -44s-26.667 -18 -44 -18s-32 6 -44 18s-18 26.667 -18 44s6 32 18 44s26.667 18 44 18zM431 857
c17.333 0 32 -6 44 -18s18 -26.667 18 -44s-6 -32 -18 -44s-26.667 -18 -44 -18s-32 6 -44 18s-18 26.667 -18 44s6 32 18 44s26.667 18 44 18z" />
    <glyph glyph-name="Aring" unicode="&#xc5;" horiz-adv-x="655" 
d="M186 162l-75 -162h-108l330 709l318 -709h-110l-70 162h-285zM331 483l-103 -226h202zM334 915c26 0 48.167 -9.16699 66.5 -27.5s27.5 -40.5 27.5 -66.5s-9.16699 -48.167 -27.5 -66.5s-40.5 -27.5 -66.5 -27.5s-48.167 9.16699 -66.5 27.5s-27.5 40.5 -27.5 66.5
s9.16699 48.167 27.5 66.5s40.5 27.5 66.5 27.5zM334 863c-12 0 -22.167 -4.16699 -30.5 -12.5s-12.5 -18.166 -12.5 -29.499s4.16699 -21.166 12.5 -29.499s18.5 -12.5 30.5 -12.5s22.167 4.16699 30.5 12.5s12.5 18.166 12.5 29.499s-4.16699 21.166 -12.5 29.499
s-18.5 12.5 -30.5 12.5z" />
    <glyph glyph-name="AE" unicode="&#xc6;" horiz-adv-x="926" 
d="M193 159l-73 -159h-110l320 667h295l42 -95h-265l70 -161h258l42 -95h-258l95 -221h266l41 -95h-370l-70 159h-283zM341 473l-103 -219h198z" />
    <glyph glyph-name="Ccedilla" unicode="&#xc7;" horiz-adv-x="619" 
d="M573 512c-32 26 -61.665 44.6641 -88.998 55.9971s-58 17 -92 17s-65.833 -6.5 -95.5 -19.5s-55.5 -31 -77.5 -54s-39.333 -49.833 -52 -80.5s-19 -63.667 -19 -99s6.33301 -68.333 19 -99s30 -57.167 52 -79.5s48.167 -39.833 78.5 -52.5s63.166 -19 98.499 -19
c31.333 0 60.666 5.83301 87.999 17.5s57 31.167 89 58.5v-121c-58 -33.333 -117.667 -50 -179 -50c-48.667 0 -94.167 9 -136.5 27s-79 42.5 -110 73.5s-55.5 67.833 -73.5 110.5s-27 88.334 -27 137.001c0 46.667 9.33301 90.834 28 132.501s43.667 78.334 75 110.001
s68.166 56.667 110.499 75s86.833 27.5 133.5 27.5c35.333 0 66.333 -3.66699 93 -11s55.334 -20 86.001 -38v-119zM323.002 -224.003l-63 33l91 138l85 -38z" />
    <glyph glyph-name="Egrave" unicode="&#xc8;" 
d="M181 572v-160h259v-95h-259v-222h267v-95h-368v667h368v-95h-267zM216 906l139 -139l-48 -40l-176 119z" />
    <glyph glyph-name="Eacute" unicode="&#xc9;" 
d="M181 572v-160h259v-95h-259v-222h267v-95h-368v667h368v-95h-267zM239 727l-48 40l138 139l86 -60z" />
    <glyph glyph-name="Ecircumflex" unicode="&#xca;" 
d="M181 572v-160h259v-95h-259v-222h267v-95h-368v667h368v-95h-267zM263 917l153 -139l-66 -51l-87 81l-86 -81l-66 51z" />
    <glyph glyph-name="Edieresis" unicode="&#xcb;" 
d="M181 572v-160h259v-95h-259v-222h267v-95h-368v667h368v-95h-267zM167 857c17.333 0 32 -6 44 -18s18 -26.667 18 -44s-6 -32 -18 -44s-26.667 -18 -44 -18s-32 6 -44 18s-18 26.667 -18 44s6 32 18 44s26.667 18 44 18zM361 857c17.333 0 32 -6 44 -18
s18 -26.667 18 -44s-6 -32 -18 -44s-26.667 -18 -44 -18s-32 6 -44 18s-18 26.667 -18 44s6 32 18 44s26.667 18 44 18z" />
    <glyph glyph-name="Igrave" unicode="&#xcc;" horiz-adv-x="261" 
d="M180 0h-101v667h101v-667zM50 906l132 -139l-48 -40l-166 119z" />
    <glyph glyph-name="Iacute" unicode="&#xcd;" horiz-adv-x="261" 
d="M181 0h-101v667h101v-667zM126 727l-48 40l132 139l82 -60z" />
    <glyph glyph-name="Icircumflex" unicode="&#xce;" horiz-adv-x="261" 
d="M181 0h-101v667h101v-667zM130 917l153 -139l-66 -51l-87 81l-86 -81l-66 51z" />
    <glyph glyph-name="Idieresis" unicode="&#xcf;" horiz-adv-x="261" 
d="M181 0h-101v667h101v-667zM49 857c17.333 0 32 -6 44 -18s18 -26.667 18 -44s-6 -32 -18 -44s-26.667 -18 -44 -18s-32 6 -44 18s-18 26.667 -18 44s6 32 18 44s26.667 18 44 18zM212 857c17.333 0 32 -6 44 -18s18 -26.667 18 -44s-6 -32 -18 -44s-26.667 -18 -44 -18
s-32 6 -44 18s-18 26.667 -18 44s6 32 18 44s26.667 18 44 18z" />
    <glyph glyph-name="Eth" unicode="&#xd0;" horiz-adv-x="642" 
d="M80 303l-59.998 -0.000976562v87h60v277h140c28.667 0 54.667 -1.16699 78 -3.5s44.666 -6.16602 63.999 -11.499s37.5 -12 54.5 -20s33.5 -18 49.5 -30c42 -30.667 74 -69 96 -115s33 -98 33 -156c0 -56 -11.167 -106.5 -33.5 -151.5s-55.5 -83.5 -99.5 -115.5
c-16.667 -12 -33.334 -22.167 -50.001 -30.5s-34.5 -15 -53.5 -20s-39.833 -8.5 -62.5 -10.5s-48.667 -3 -78 -3h-138v303zM226.002 94.999c40.667 0 74.502 3.66895 101.502 11.002s52.167 19.666 75.5 36.999c29.333 21.333 51.833 48.333 67.5 81s23.5 69 23.5 109
s-8 76.667 -24 110s-38 60.666 -66 81.999c-22.667 16.667 -47.834 28.667 -75.501 36s-61.834 11 -102.501 11h-45v-182h143v-87h-143v-208h45z" />
    <glyph glyph-name="Ntilde" unicode="&#xd1;" horiz-adv-x="747" 
d="M80 712l486 -508v463h101v-708l-486 508v-467h-101v712zM196 781l14.4951 21.002c3.66699 5.33301 6.83398 9.66602 9.50098 12.999s4.83398 6.16602 6.50098 8.49902s3.83398 4.83301 6.50098 7.5c9.33301 9.33301 20.333 16.833 33 22.5s25.334 8.5 38.001 8.5
s25.334 -1.83301 38.001 -5.5s26.667 -9.16699 42 -16.5l26 -13.5c6 -3 10.833 -5.16699 14.5 -6.5s6.66699 -2.16602 9 -2.49902s4.83301 -0.5 7.5 -0.5c10 0 18.833 3.33301 26.5 10s17.167 18.667 28.5 36l55 -46c-28 -55.333 -65.667 -83 -113 -83
c-11.333 0 -22 1.5 -32 4.5s-25.667 9.5 -47 19.5c-15.333 7.33301 -27.5 12.5 -36.5 15.5s-16.5 4.5 -22.5 4.5c-8.66699 0 -16.5 -3.33301 -23.5 -10s-15.167 -18.334 -24.5 -35.001z" />
    <glyph glyph-name="Ograve" unicode="&#xd2;" horiz-adv-x="790" 
d="M397 680c48 0 93.002 -9.16797 135.002 -27.501s78.667 -43.166 110 -74.499s56.166 -68 74.499 -110s27.5 -87 27.5 -135c0 -47.333 -9.16699 -92 -27.5 -134s-43.166 -78.667 -74.499 -110s-68 -56.166 -110 -74.499s-87 -27.5 -135 -27.5
c-48.667 0 -94.334 8.83301 -137.001 26.5s-79.834 42 -111.501 73s-56.5 67.5 -74.5 109.5s-27 87 -27 135s9.16699 93.333 27.5 136s43.333 79.667 75 111s68.667 56.166 111 74.499s87.833 27.5 136.5 27.5zM396.002 584.999c-34.667 0 -67.168 -6.49805 -97.501 -19.498
s-56.666 -30.833 -78.999 -53.5s-39.833 -49.334 -52.5 -80.001s-19 -64 -19 -100c0 -34.667 6.5 -67.334 19.5 -98.001s30.667 -57.167 53 -79.5s48.5 -40 78.5 -53s62.333 -19.5 97 -19.5c34 0 66 6.5 96 19.5s56.167 30.833 78.5 53.5s40 49.167 53 79.5
s19.5 62.833 19.5 97.5c0 36 -6.33301 69.5 -19 100.5s-30 57.667 -52 80s-48 40 -78 53s-62.667 19.5 -98 19.5zM335.001 906.001l139 -139l-48 -40l-176 119z" />
    <glyph glyph-name="Oacute" unicode="&#xd3;" horiz-adv-x="790" 
d="M397 680c48 0 93.002 -9.16797 135.002 -27.501s78.667 -43.166 110 -74.499s56.166 -68 74.499 -110s27.5 -87 27.5 -135c0 -47.333 -9.16699 -92 -27.5 -134s-43.166 -78.667 -74.499 -110s-68 -56.166 -110 -74.499s-87 -27.5 -135 -27.5
c-48.667 0 -94.334 8.83301 -137.001 26.5s-79.834 42 -111.501 73s-56.5 67.5 -74.5 109.5s-27 87 -27 135s9.16699 93.333 27.5 136s43.333 79.667 75 111s68.667 56.166 111 74.499s87.833 27.5 136.5 27.5zM396.002 584.999c-34.667 0 -67.168 -6.49805 -97.501 -19.498
s-56.666 -30.833 -78.999 -53.5s-39.833 -49.334 -52.5 -80.001s-19 -64 -19 -100c0 -34.667 6.5 -67.334 19.5 -98.001s30.667 -57.167 53 -79.5s48.5 -40 78.5 -53s62.333 -19.5 97 -19.5c34 0 66 6.5 96 19.5s56.167 30.833 78.5 53.5s40 49.167 53 79.5
s19.5 62.833 19.5 97.5c0 36 -6.33301 69.5 -19 100.5s-30 57.667 -52 80s-48 40 -78 53s-62.667 19.5 -98 19.5zM371.001 727.001l-48 40l138 139l86 -60z" />
    <glyph glyph-name="Ocircumflex" unicode="&#xd4;" horiz-adv-x="790" 
d="M397 680c48 0 93.002 -9.16797 135.002 -27.501s78.667 -43.166 110 -74.499s56.166 -68 74.499 -110s27.5 -87 27.5 -135c0 -47.333 -9.16699 -92 -27.5 -134s-43.166 -78.667 -74.499 -110s-68 -56.166 -110 -74.499s-87 -27.5 -135 -27.5
c-48.667 0 -94.334 8.83301 -137.001 26.5s-79.834 42 -111.501 73s-56.5 67.5 -74.5 109.5s-27 87 -27 135s9.16699 93.333 27.5 136s43.333 79.667 75 111s68.667 56.166 111 74.499s87.833 27.5 136.5 27.5zM396.002 584.999c-34.667 0 -67.168 -6.49805 -97.501 -19.498
s-56.666 -30.833 -78.999 -53.5s-39.833 -49.334 -52.5 -80.001s-19 -64 -19 -100c0 -34.667 6.5 -67.334 19.5 -98.001s30.667 -57.167 53 -79.5s48.5 -40 78.5 -53s62.333 -19.5 97 -19.5c34 0 66 6.5 96 19.5s56.167 30.833 78.5 53.5s40 49.167 53 79.5
s19.5 62.833 19.5 97.5c0 36 -6.33301 69.5 -19 100.5s-30 57.667 -52 80s-48 40 -78 53s-62.667 19.5 -98 19.5zM395.001 917.001l153 -139l-66 -51l-87 81l-86 -81l-66 51z" />
    <glyph glyph-name="Otilde" unicode="&#xd5;" horiz-adv-x="790" 
d="M397 680c48 0 93.002 -9.16797 135.002 -27.501s78.667 -43.166 110 -74.499s56.166 -68 74.499 -110s27.5 -87 27.5 -135c0 -47.333 -9.16699 -92 -27.5 -134s-43.166 -78.667 -74.499 -110s-68 -56.166 -110 -74.499s-87 -27.5 -135 -27.5
c-48.667 0 -94.334 8.83301 -137.001 26.5s-79.834 42 -111.501 73s-56.5 67.5 -74.5 109.5s-27 87 -27 135s9.16699 93.333 27.5 136s43.333 79.667 75 111s68.667 56.166 111 74.499s87.833 27.5 136.5 27.5zM396.002 584.999c-34.667 0 -67.168 -6.49805 -97.501 -19.498
s-56.666 -30.833 -78.999 -53.5s-39.833 -49.334 -52.5 -80.001s-19 -64 -19 -100c0 -34.667 6.5 -67.334 19.5 -98.001s30.667 -57.167 53 -79.5s48.5 -40 78.5 -53s62.333 -19.5 97 -19.5c34 0 66 6.5 96 19.5s56.167 30.833 78.5 53.5s40 49.167 53 79.5
s19.5 62.833 19.5 97.5c0 36 -6.33301 69.5 -19 100.5s-30 57.667 -52 80s-48 40 -78 53s-62.667 19.5 -98 19.5zM228.001 781.001l14.4951 21.002c3.66699 5.33301 6.83398 9.66602 9.50098 12.999s4.83398 6.16602 6.50098 8.49902s3.83398 4.83301 6.50098 7.5
c9.33301 9.33301 20.333 16.833 33 22.5s25.334 8.5 38.001 8.5s25.334 -1.83301 38.001 -5.5s26.667 -9.16699 42 -16.5l26 -13.5c6 -3 10.833 -5.16699 14.5 -6.5s6.66699 -2.16602 9 -2.49902s4.83301 -0.5 7.5 -0.5c10 0 18.833 3.33301 26.5 10s17.167 18.667 28.5 36
l55 -46c-28 -55.333 -65.667 -83 -113 -83c-11.333 0 -22 1.5 -32 4.5s-25.667 9.5 -47 19.5c-15.333 7.33301 -27.5 12.5 -36.5 15.5s-16.5 4.5 -22.5 4.5c-8.66699 0 -16.5 -3.33301 -23.5 -10s-15.167 -18.334 -24.5 -35.001z" />
    <glyph glyph-name="Odieresis" unicode="&#xd6;" horiz-adv-x="790" 
d="M397 680c48 0 93.002 -9.16797 135.002 -27.501s78.667 -43.166 110 -74.499s56.166 -68 74.499 -110s27.5 -87 27.5 -135c0 -47.333 -9.16699 -92 -27.5 -134s-43.166 -78.667 -74.499 -110s-68 -56.166 -110 -74.499s-87 -27.5 -135 -27.5
c-48.667 0 -94.334 8.83301 -137.001 26.5s-79.834 42 -111.501 73s-56.5 67.5 -74.5 109.5s-27 87 -27 135s9.16699 93.333 27.5 136s43.333 79.667 75 111s68.667 56.166 111 74.499s87.833 27.5 136.5 27.5zM396.002 584.999c-34.667 0 -67.168 -6.49805 -97.501 -19.498
s-56.666 -30.833 -78.999 -53.5s-39.833 -49.334 -52.5 -80.001s-19 -64 -19 -100c0 -34.667 6.5 -67.334 19.5 -98.001s30.667 -57.167 53 -79.5s48.5 -40 78.5 -53s62.333 -19.5 97 -19.5c34 0 66 6.5 96 19.5s56.167 30.833 78.5 53.5s40 49.167 53 79.5
s19.5 62.833 19.5 97.5c0 36 -6.33301 69.5 -19 100.5s-30 57.667 -52 80s-48 40 -78 53s-62.667 19.5 -98 19.5zM299.001 857.001c17.333 0 32 -6 44 -18s18 -26.667 18 -44s-6 -32 -18 -44s-26.667 -18 -44 -18s-32 6 -44 18s-18 26.667 -18 44s6 32 18 44
s26.667 18 44 18zM493.001 857.001c17.333 0 32 -6 44 -18s18 -26.667 18 -44s-6 -32 -18 -44s-26.667 -18 -44 -18s-32 6 -44 18s-18 26.667 -18 44s6 32 18 44s26.667 18 44 18z" />
    <glyph glyph-name="multiply" unicode="&#xd7;" horiz-adv-x="567" 
d="M141 544l142 -143l142 143l55 -55l-142 -142l142 -143l-55 -54l-142 142l-142 -142l-55 54l142 143l-142 142z" />
    <glyph glyph-name="Oslash" unicode="&#xd8;" horiz-adv-x="789" 
d="M678 683l56.999 -57.001l-71 -74c52.667 -64.667 79 -137.667 79 -219c0 -47.333 -9.16699 -92 -27.5 -134s-43.166 -78.667 -74.499 -110s-68 -56.166 -110 -74.499s-87 -27.5 -135 -27.5c-42 0 -80.667 6.16699 -116 18.5s-70.666 31.833 -105.999 58.5l-71 -71l-56 57
l70 71c-24 32.667 -41.667 65.834 -53 99.501s-17 70.5 -17 110.5c0 48 9.16699 93.333 27.5 136s43.166 79.667 74.499 111s68.333 56.166 111 74.499s88 27.5 136 27.5c38.667 0 75 -5.83301 109 -17.5s67.333 -29.167 100 -52.5zM534.999 542.999
c-22.667 14.667 -44.999 25.334 -66.999 32.001s-46 10 -72 10c-34.667 0 -67.167 -6.5 -97.5 -19.5s-56.666 -30.833 -78.999 -53.5s-39.833 -49.334 -52.5 -80.001s-19 -64 -19 -100c0 -14 0.666992 -26.667 2 -38s3.66602 -22.5 6.99902 -33.5s7.66602 -22 12.999 -33
s12 -23.167 20 -36.5zM246 132.999c25.333 -18 49.833 -31 73.5 -39s49.167 -12 76.5 -12c34 0 66 6.5 96 19.5s56 30.833 78 53.5s39.5 49.167 52.5 79.5s19.5 62.833 19.5 97.5c0 30 -3.83301 57 -11.5 81s-20.167 48.333 -37.5 73z" />
    <glyph glyph-name="Ugrave" unicode="&#xd9;" horiz-adv-x="653" 
d="M181 265c0 -30 1.49902 -53.167 4.49902 -69.5s8.5 -31.5 16.5 -45.5c12 -21.333 29.167 -38 51.5 -50s46.833 -18 73.5 -18c26 0 50.167 6 72.5 18s39.5 28.667 51.5 50c8 14 13.5 29.167 16.5 45.5s4.5 39.5 4.5 69.5v402h101v-429c0 -36 -6.16699 -69.333 -18.5 -100
s-29.5 -57.167 -51.5 -79.5s-48 -39.833 -78 -52.5s-62.667 -19 -98 -19s-68.166 6.33301 -98.499 19s-56.5 30.167 -78.5 52.5s-39.167 48.833 -51.5 79.5s-18.5 64 -18.5 100v429h101v-402zM265.999 906l139 -139l-48 -40l-176 119z" />
    <glyph glyph-name="Uacute" unicode="&#xda;" horiz-adv-x="653" 
d="M181 265c0 -30 1.49902 -53.167 4.49902 -69.5s8.5 -31.5 16.5 -45.5c12 -21.333 29.167 -38 51.5 -50s46.833 -18 73.5 -18c26 0 50.167 6 72.5 18s39.5 28.667 51.5 50c8 14 13.5 29.167 16.5 45.5s4.5 39.5 4.5 69.5v402h101v-429c0 -36 -6.16699 -69.333 -18.5 -100
s-29.5 -57.167 -51.5 -79.5s-48 -39.833 -78 -52.5s-62.667 -19 -98 -19s-68.166 6.33301 -98.499 19s-56.5 30.167 -78.5 52.5s-39.167 48.833 -51.5 79.5s-18.5 64 -18.5 100v429h101v-402zM302.999 727l-48 40l138 139l86 -60z" />
    <glyph glyph-name="Ucircumflex" unicode="&#xdb;" horiz-adv-x="653" 
d="M181 265c0 -30 1.49902 -53.167 4.49902 -69.5s8.5 -31.5 16.5 -45.5c12 -21.333 29.167 -38 51.5 -50s46.833 -18 73.5 -18c26 0 50.167 6 72.5 18s39.5 28.667 51.5 50c8 14 13.5 29.167 16.5 45.5s4.5 39.5 4.5 69.5v402h101v-429c0 -36 -6.16699 -69.333 -18.5 -100
s-29.5 -57.167 -51.5 -79.5s-48 -39.833 -78 -52.5s-62.667 -19 -98 -19s-68.166 6.33301 -98.499 19s-56.5 30.167 -78.5 52.5s-39.167 48.833 -51.5 79.5s-18.5 64 -18.5 100v429h101v-402zM325.999 917l153 -139l-66 -51l-87 81l-86 -81l-66 51z" />
    <glyph glyph-name="Udieresis" unicode="&#xdc;" horiz-adv-x="653" 
d="M181 265c0 -30 1.49902 -53.167 4.49902 -69.5s8.5 -31.5 16.5 -45.5c12 -21.333 29.167 -38 51.5 -50s46.833 -18 73.5 -18c26 0 50.167 6 72.5 18s39.5 28.667 51.5 50c8 14 13.5 29.167 16.5 45.5s4.5 39.5 4.5 69.5v402h101v-429c0 -36 -6.16699 -69.333 -18.5 -100
s-29.5 -57.167 -51.5 -79.5s-48 -39.833 -78 -52.5s-62.667 -19 -98 -19s-68.166 6.33301 -98.499 19s-56.5 30.167 -78.5 52.5s-39.167 48.833 -51.5 79.5s-18.5 64 -18.5 100v429h101v-402zM229.999 857c17.333 0 32 -6 44 -18s18 -26.667 18 -44s-6 -32 -18 -44
s-26.667 -18 -44 -18s-32 6 -44 18s-18 26.667 -18 44s6 32 18 44s26.667 18 44 18zM423.999 857c17.333 0 32 -6 44 -18s18 -26.667 18 -44s-6 -32 -18 -44s-26.667 -18 -44 -18s-32 6 -44 18s-18 26.667 -18 44s6 32 18 44s26.667 18 44 18z" />
    <glyph glyph-name="Yacute" unicode="&#xdd;" horiz-adv-x="531" 
d="M-3 667h116l152 -267l154 267h115l-218 -379v-288h-101v288zM265 727l-48 40l138 139l86 -60z" />
    <glyph glyph-name="Thorn" unicode="&#xde;" horiz-adv-x="477" 
d="M181 0l-100.996 -0.00195312v667h101v-93h13c25.333 0 47.333 -0.666992 66 -2s35.167 -3.66602 49.5 -6.99902s27.166 -7.83301 38.499 -13.5s22.333 -12.5 33 -20.5c22.667 -17.333 40.5 -39.833 53.5 -67.5s19.5 -56.834 19.5 -87.501s-5.33301 -58.167 -16 -82.5
s-25.834 -45.166 -45.501 -62.499s-43.334 -30.666 -71.001 -39.999s-58.834 -14 -93.501 -14h-47v-177zM218.004 269.998c92.667 0 139 36 139 108c0 68.667 -47.667 103 -143 103h-33v-211h37z" />
    <glyph glyph-name="germandbls" unicode="&#xdf;" horiz-adv-x="550" 
d="M62 334l-35.0039 0.00292969v87h35v106c0 69.333 17 122.333 51 159s83.333 55 148 55c28 0 54 -4.66699 78 -14s44.833 -22.333 62.5 -39s31.334 -36.334 41.001 -59.001s14.5 -47.334 14.5 -74.001c0 -57.333 -23.667 -102 -71 -134c38 -16.667 68 -42.834 90 -78.501
s33 -75.167 33 -118.5c0 -34.667 -6.66699 -66.5 -20 -95.5s-31.666 -54 -54.999 -75s-51.333 -37.5 -84 -49.5s-68 -18 -106 -18v94c52 1.33301 92.667 15 122 41s44 62 44 108c0 23.333 -6.16699 45.333 -18.5 66s-28.166 36 -47.499 46
c-13.333 7.33301 -26.833 12.5 -40.5 15.5s-33.5 6.16699 -59.5 9.5v89c38 1.33301 67 10.833 87 28.5s30 43.167 30 76.5c0 28 -9.5 50.667 -28.5 68s-43.5 26 -73.5 26c-22 0 -41.167 -5.33301 -57.5 -16s-27.166 -24.667 -32.499 -42s-8 -38.333 -8 -63l-1 -18v-18
l-1 -18v-479h-97v334z" />
    <glyph glyph-name="agrave" unicode="&#xe0;" horiz-adv-x="530" 
d="M468 421v-421.004h-97v44c-22.667 -21.333 -43.5 -36.166 -62.5 -44.499s-41.167 -12.5 -66.5 -12.5c-29.333 0 -56.333 5.66699 -81 17s-45.834 27 -63.501 47s-31.5 43.833 -41.5 71.5s-15 57.834 -15 90.501c0 31.333 5 60.333 15 87s24 49.834 42 69.501
s39.167 35 63.5 46s50.5 16.5 78.5 16.5c26.667 0 49.834 -4.66699 69.501 -14s40.167 -24.666 61.5 -45.999v49h97zM257 344.996c-16.667 0 -32.168 -3.33301 -46.501 -10s-26.666 -16 -36.999 -28s-18.5 -26.333 -24.5 -43s-9 -34.667 -9 -54c0 -40 11 -72.667 33 -98
s50 -38 84 -38c36 0 65 12.5 87 37.5s33 57.833 33 98.5c0 40 -11 72.5 -33 97.5s-51 37.5 -87 37.5zM216.999 675.996l119 -158l-53 -32l-157 142z" />
    <glyph glyph-name="aacute" unicode="&#xe1;" horiz-adv-x="530" 
d="M468 421v-421.004h-97v44c-22.667 -21.333 -43.5 -36.166 -62.5 -44.499s-41.167 -12.5 -66.5 -12.5c-29.333 0 -56.333 5.66699 -81 17s-45.834 27 -63.501 47s-31.5 43.833 -41.5 71.5s-15 57.834 -15 90.501c0 31.333 5 60.333 15 87s24 49.834 42 69.501
s39.167 35 63.5 46s50.5 16.5 78.5 16.5c26.667 0 49.834 -4.66699 69.501 -14s40.167 -24.666 61.5 -45.999v49h97zM257 344.996c-16.667 0 -32.168 -3.33301 -46.501 -10s-26.666 -16 -36.999 -28s-18.5 -26.333 -24.5 -43s-9 -34.667 -9 -54c0 -40 11 -72.667 33 -98
s50 -38 84 -38c36 0 65 12.5 87 37.5s33 57.833 33 98.5c0 40 -11 72.5 -33 97.5s-51 37.5 -87 37.5zM255.999 485.996l-53 32l119 158l91 -48z" />
    <glyph glyph-name="acircumflex" unicode="&#xe2;" horiz-adv-x="530" 
d="M468 421v-421.004h-97v44c-22.667 -21.333 -43.5 -36.166 -62.5 -44.499s-41.167 -12.5 -66.5 -12.5c-29.333 0 -56.333 5.66699 -81 17s-45.834 27 -63.501 47s-31.5 43.833 -41.5 71.5s-15 57.834 -15 90.501c0 31.333 5 60.333 15 87s24 49.834 42 69.501
s39.167 35 63.5 46s50.5 16.5 78.5 16.5c26.667 0 49.834 -4.66699 69.501 -14s40.167 -24.666 61.5 -45.999v49h97zM257 344.996c-16.667 0 -32.168 -3.33301 -46.501 -10s-26.666 -16 -36.999 -28s-18.5 -26.333 -24.5 -43s-9 -34.667 -9 -54c0 -40 11 -72.667 33 -98
s50 -38 84 -38c36 0 65 12.5 87 37.5s33 57.833 33 98.5c0 40 -11 72.5 -33 97.5s-51 37.5 -87 37.5zM270.999 675.996l153 -139l-66 -51l-87 81l-86 -81l-66 51z" />
    <glyph glyph-name="atilde" unicode="&#xe3;" horiz-adv-x="530" 
d="M468 421v-421.004h-97v44c-22.667 -21.333 -43.5 -36.166 -62.5 -44.499s-41.167 -12.5 -66.5 -12.5c-29.333 0 -56.333 5.66699 -81 17s-45.834 27 -63.501 47s-31.5 43.833 -41.5 71.5s-15 57.834 -15 90.501c0 31.333 5 60.333 15 87s24 49.834 42 69.501
s39.167 35 63.5 46s50.5 16.5 78.5 16.5c26.667 0 49.834 -4.66699 69.501 -14s40.167 -24.666 61.5 -45.999v49h97zM257 344.996c-16.667 0 -32.168 -3.33301 -46.501 -10s-26.666 -16 -36.999 -28s-18.5 -26.333 -24.5 -43s-9 -34.667 -9 -54c0 -40 11 -72.667 33 -98
s50 -38 84 -38c36 0 65 12.5 87 37.5s33 57.833 33 98.5c0 40 -11 72.5 -33 97.5s-51 37.5 -87 37.5zM93.999 539.996l14.499 21.002c3.66699 5.33301 6.83398 9.66602 9.50098 12.999s4.83398 6.16602 6.50098 8.49902s3.83398 4.83301 6.50098 7.5
c9.33301 9.33301 20.5 16.833 33.5 22.5s25.5 8.5 37.5 8.5c23.333 0 50 -7.66699 80 -23l25.5 -12.5l15 -7c3.66699 -1.66699 6.66699 -2.66699 9 -3s5.16602 -0.5 8.49902 -0.5c9.33301 0 17.833 3.33301 25.5 10s17.167 19 28.5 37l55 -46
c-28 -55.333 -65.667 -83 -113 -83c-11.333 0 -22 1.5 -32 4.5s-25.667 9.83301 -47 20.5c-28.667 13.333 -48.334 20 -59.001 20c-8.66699 0 -16.667 -3.5 -24 -10.5s-15.333 -18.833 -24 -35.5z" />
    <glyph glyph-name="adieresis" unicode="&#xe4;" horiz-adv-x="530" 
d="M468 421v-421.004h-97v44c-22.667 -21.333 -43.5 -36.166 -62.5 -44.499s-41.167 -12.5 -66.5 -12.5c-29.333 0 -56.333 5.66699 -81 17s-45.834 27 -63.501 47s-31.5 43.833 -41.5 71.5s-15 57.834 -15 90.501c0 31.333 5 60.333 15 87s24 49.834 42 69.501
s39.167 35 63.5 46s50.5 16.5 78.5 16.5c26.667 0 49.834 -4.66699 69.501 -14s40.167 -24.666 61.5 -45.999v49h97zM257 344.996c-16.667 0 -32.168 -3.33301 -46.501 -10s-26.666 -16 -36.999 -28s-18.5 -26.333 -24.5 -43s-9 -34.667 -9 -54c0 -40 11 -72.667 33 -98
s50 -38 84 -38c36 0 65 12.5 87 37.5s33 57.833 33 98.5c0 40 -11 72.5 -33 97.5s-51 37.5 -87 37.5zM177.999 614.996c17.333 0 31.833 -5.83301 43.5 -17.5s17.5 -26.167 17.5 -43.5s-6 -32 -18 -44s-26.333 -18 -43 -18c-17.333 0 -32 6 -44 18s-18 26.667 -18 44
c0 16.667 6 31 18 43s26.667 18 44 18zM358.999 614.996c17.333 0 31.833 -5.83301 43.5 -17.5s17.5 -26.167 17.5 -43.5s-6 -32 -18 -44s-26.333 -18 -43 -18c-17.333 0 -32 6 -44 18s-18 26.667 -18 44c0 16.667 6 31 18 43s26.667 18 44 18z" />
    <glyph glyph-name="aring" unicode="&#xe5;" horiz-adv-x="530" 
d="M468 421v-421.004h-97v44c-22.667 -21.333 -43.5 -36.166 -62.5 -44.499s-41.167 -12.5 -66.5 -12.5c-29.333 0 -56.333 5.66699 -81 17s-45.834 27 -63.501 47s-31.5 43.833 -41.5 71.5s-15 57.834 -15 90.501c0 31.333 5 60.333 15 87s24 49.834 42 69.501
s39.167 35 63.5 46s50.5 16.5 78.5 16.5c26.667 0 49.834 -4.66699 69.501 -14s40.167 -24.666 61.5 -45.999v49h97zM257 344.996c-16.667 0 -32.168 -3.33301 -46.501 -10s-26.666 -16 -36.999 -28s-18.5 -26.333 -24.5 -43s-9 -34.667 -9 -54c0 -40 11 -72.667 33 -98
s50 -38 84 -38c36 0 65 12.5 87 37.5s33 57.833 33 98.5c0 40 -11 72.5 -33 97.5s-51 37.5 -87 37.5zM267.999 673.996c26 0 48.167 -9.16699 66.5 -27.5s27.5 -40.5 27.5 -66.5s-9.16699 -48.167 -27.5 -66.5s-40.5 -27.5 -66.5 -27.5s-48.167 9.16699 -66.5 27.5
s-27.5 40.5 -27.5 66.5s9.16699 48.167 27.5 66.5s40.5 27.5 66.5 27.5zM267.999 622.996c-12 0 -22.167 -4.16699 -30.5 -12.5s-12.5 -18.5 -12.5 -30.5s4.16699 -22.167 12.5 -30.5s18.5 -12.5 30.5 -12.5s22.167 4.16699 30.5 12.5s12.5 18.5 12.5 30.5
s-4.16699 22.167 -12.5 30.5s-18.5 12.5 -30.5 12.5z" />
    <glyph glyph-name="ae" unicode="&#xe6;" horiz-adv-x="761" 
d="M415 189c3.33301 -34.667 15.1641 -62.334 35.4971 -83.001s45.833 -31 76.5 -31c23.333 0 43.5 6.5 60.5 19.5s33.167 34.5 48.5 64.5l84 -46c-22 -41.333 -49.833 -72.666 -83.5 -93.999s-72.167 -32 -115.5 -32c-56 0 -106.667 22.667 -152 68
c-17.333 -22 -39.166 -38.833 -65.499 -50.5s-56.166 -17.5 -89.499 -17.5c-25.333 0 -48.666 3.33301 -69.999 10s-39.666 16.167 -54.999 28.5s-27.166 27.166 -35.499 44.499s-12.5 36.333 -12.5 57c0 44 15.167 79.167 45.5 105.5s71.166 39.5 122.499 39.5
c19.333 0 37 -2 53 -6s34.333 -11.667 55 -23c-0.666992 20 -2.83398 36.5 -6.50098 49.5s-9.5 23.333 -17.5 31s-18.5 13.167 -31.5 16.5s-29.5 5 -49.5 5c-18.667 0 -36.167 -1.16699 -52.5 -3.5s-36.166 -6.16602 -59.499 -11.499v90c16 2.66699 29.5 4.66699 40.5 6
s21.167 2.5 30.5 3.5s18.166 1.66699 26.499 2s17.833 0.5 28.5 0.5c65.333 0 113 -19.667 143 -59c38.667 39.333 89 59 151 59c29.333 0 56.333 -5.16699 81 -15.5s45.667 -24.833 63 -43.5s30.833 -41 40.5 -67s14.5 -55 14.5 -87v-12.5c0 -5 -0.333008 -10.833 -1 -17.5
h-303zM615.998 268c-12 51.333 -43.999 77 -95.999 77c-26.667 0 -47.834 -6 -63.501 -18s-27.5 -31.667 -35.5 -59h195zM219.999 187c-24 0 -44.166 -5.49902 -60.499 -16.499s-24.5 -24.833 -24.5 -41.5s8.16699 -30.334 24.5 -41.001s37.166 -16 62.499 -16
c24.667 0 45.667 5.66699 63 17s26 25.333 26 42c0 16 -8.83301 29.333 -26.5 40s-39.167 16 -64.5 16z" />
    <glyph glyph-name="ccedilla" unicode="&#xe7;" horiz-adv-x="421" 
d="M389 274c-22 26.667 -41.6641 45.167 -58.9971 55.5s-37.666 15.5 -60.999 15.5c-18.667 0 -35.834 -3.33301 -51.501 -10s-29.334 -16 -41.001 -28s-20.667 -26.333 -27 -43s-9.5 -34.667 -9.5 -54c0 -20 3.16699 -38.333 9.5 -55s15 -31 26 -43s24.333 -21.333 40 -28
s32.5 -10 50.5 -10c24 0 44.667 5.16699 62 15.5s37.666 29.5 60.999 57.5v-129c-22.667 -11.333 -42.667 -19.333 -60 -24s-37.666 -7 -60.999 -7c-32 0 -61.833 5.66699 -89.5 17s-51.667 27 -72 47s-36.333 43.5 -48 70.5s-17.5 55.833 -17.5 86.5c0 32 6 61.667 18 89
s28.333 51 49 71s45.167 35.667 73.5 47s58.833 17 91.5 17c21.333 0 41.166 -2.33301 59.499 -7s37.166 -12 56.499 -22v-129zM204.003 -218l-63 32l86 133l81 -33z" />
    <glyph glyph-name="egrave" unicode="&#xe8;" horiz-adv-x="489" 
d="M143 187c2.66699 -34.667 13.668 -62.1699 33.001 -82.5029s44.666 -30.5 75.999 -30.5c24.667 0 45 5.83301 61 17.5s33.667 33.167 53 64.5l82 -46c-25.333 -43.333 -53.833 -74.666 -85.5 -93.999s-69.834 -29 -114.501 -29c-30.667 0 -58.667 5.33301 -84 16
s-47.166 25.667 -65.499 45s-32.5 42.5 -42.5 69.5s-15 56.833 -15 89.5c0 34.667 4.83301 65.834 14.5 93.501s23.334 51.334 41.001 71.001s39.167 34.667 64.5 45s53.666 15.5 84.999 15.5c30 0 57.333 -5.16699 82 -15.5s45.5 -25 62.5 -44s30.167 -42 39.5 -69
s14 -57.167 14 -90.5v-26h-301zM344.001 265.997c-6.66699 25.333 -18.333 44.667 -35 58s-37.667 20 -63 20c-23.333 0 -43.833 -7 -61.5 -21s-29.5 -33 -35.5 -57h195zM197.002 675.998l119 -158l-53 -32l-157 142z" />
    <glyph glyph-name="eacute" unicode="&#xe9;" horiz-adv-x="489" 
d="M143 187c2.66699 -34.667 13.668 -62.1699 33.001 -82.5029s44.666 -30.5 75.999 -30.5c24.667 0 45 5.83301 61 17.5s33.667 33.167 53 64.5l82 -46c-25.333 -43.333 -53.833 -74.666 -85.5 -93.999s-69.834 -29 -114.501 -29c-30.667 0 -58.667 5.33301 -84 16
s-47.166 25.667 -65.499 45s-32.5 42.5 -42.5 69.5s-15 56.833 -15 89.5c0 34.667 4.83301 65.834 14.5 93.501s23.334 51.334 41.001 71.001s39.167 34.667 64.5 45s53.666 15.5 84.999 15.5c30 0 57.333 -5.16699 82 -15.5s45.5 -25 62.5 -44s30.167 -42 39.5 -69
s14 -57.167 14 -90.5v-26h-301zM344.001 265.997c-6.66699 25.333 -18.333 44.667 -35 58s-37.667 20 -63 20c-23.333 0 -43.833 -7 -61.5 -21s-29.5 -33 -35.5 -57h195zM232.002 485.998l-53 32l119 158l91 -48z" />
    <glyph glyph-name="ecircumflex" unicode="&#xea;" horiz-adv-x="489" 
d="M143 187c2.66699 -34.667 13.668 -62.1699 33.001 -82.5029s44.666 -30.5 75.999 -30.5c24.667 0 45 5.83301 61 17.5s33.667 33.167 53 64.5l82 -46c-25.333 -43.333 -53.833 -74.666 -85.5 -93.999s-69.834 -29 -114.501 -29c-30.667 0 -58.667 5.33301 -84 16
s-47.166 25.667 -65.499 45s-32.5 42.5 -42.5 69.5s-15 56.833 -15 89.5c0 34.667 4.83301 65.834 14.5 93.501s23.334 51.334 41.001 71.001s39.167 34.667 64.5 45s53.666 15.5 84.999 15.5c30 0 57.333 -5.16699 82 -15.5s45.5 -25 62.5 -44s30.167 -42 39.5 -69
s14 -57.167 14 -90.5v-26h-301zM344.001 265.997c-6.66699 25.333 -18.333 44.667 -35 58s-37.667 20 -63 20c-23.333 0 -43.833 -7 -61.5 -21s-29.5 -33 -35.5 -57h195zM247.002 675.998l153 -139l-66 -51l-87 81l-86 -81l-66 51z" />
    <glyph glyph-name="edieresis" unicode="&#xeb;" horiz-adv-x="489" 
d="M143 187c2.66699 -34.667 13.668 -62.1699 33.001 -82.5029s44.666 -30.5 75.999 -30.5c24.667 0 45 5.83301 61 17.5s33.667 33.167 53 64.5l82 -46c-25.333 -43.333 -53.833 -74.666 -85.5 -93.999s-69.834 -29 -114.501 -29c-30.667 0 -58.667 5.33301 -84 16
s-47.166 25.667 -65.499 45s-32.5 42.5 -42.5 69.5s-15 56.833 -15 89.5c0 34.667 4.83301 65.834 14.5 93.501s23.334 51.334 41.001 71.001s39.167 34.667 64.5 45s53.666 15.5 84.999 15.5c30 0 57.333 -5.16699 82 -15.5s45.5 -25 62.5 -44s30.167 -42 39.5 -69
s14 -57.167 14 -90.5v-26h-301zM344.001 265.997c-6.66699 25.333 -18.333 44.667 -35 58s-37.667 20 -63 20c-23.333 0 -43.833 -7 -61.5 -21s-29.5 -33 -35.5 -57h195zM158.002 614.998c17.333 0 31.833 -5.83301 43.5 -17.5s17.5 -26.167 17.5 -43.5s-6 -32 -18 -44
s-26.333 -18 -43 -18c-17.333 0 -32 6 -44 18s-18 26.667 -18 44c0 16.667 6 31 18 43s26.667 18 44 18zM339.002 614.998c17.333 0 31.833 -5.83301 43.5 -17.5s17.5 -26.167 17.5 -43.5s-6 -32 -18 -44s-26.333 -18 -43 -18c-17.333 0 -32 6 -44 18s-18 26.667 -18 44
c0 16.667 6 31 18 43s26.667 18 44 18z" />
    <glyph glyph-name="igrave" unicode="&#xec;" horiz-adv-x="220" 
d="M158 0h-97v421h97v-421zM46 676l109 -158l-54 -32l-143 142z" />
    <glyph glyph-name="iacute" unicode="&#xed;" horiz-adv-x="220" 
d="M158 0h-97v421h97v-421zM118 486l-53 32l109 158l87 -48z" />
    <glyph glyph-name="icircumflex" unicode="&#xee;" horiz-adv-x="220" 
d="M158 0h-97v421h97v-421zM109 676l147 -139l-67 -51l-80 81l-79 -81l-66 51z" />
    <glyph glyph-name="idieresis" unicode="&#xef;" horiz-adv-x="220" 
d="M158 0h-97v421h97v-421zM32 615c17.333 0 31.833 -5.83301 43.5 -17.5s17.5 -26.167 17.5 -43.5s-6 -32 -18 -44s-26.333 -18 -43 -18c-17.333 0 -32 6 -44 18s-18 26.667 -18 44c0 16.667 6 31 18 43s26.667 18 44 18zM189 615c17.333 0 31.833 -5.83301 43.5 -17.5
s17.5 -26.167 17.5 -43.5s-6 -32 -18 -44s-26.333 -18 -43 -18c-17.333 0 -32 6 -44 18s-18 26.667 -18 44c0 16.667 6 31 18 43s26.667 18 44 18z" />
    <glyph glyph-name="eth" unicode="&#xf0;" horiz-adv-x="531" 
d="M94 737l33.5049 -11.998c9 -3.33301 17.667 -7 26 -11s17.166 -8.66699 26.499 -14s21.333 -12.666 36 -21.999c2.66699 -1.33301 5.5 -3 8.5 -5s6.83301 -4.33301 11.5 -7l102 54l34 -57l-81 -43c62.667 -58.667 111.5 -123.167 146.5 -193.5s52.5 -139.833 52.5 -208.5
c0 -34 -5.5 -65 -16.5 -93s-26.5 -52.333 -46.5 -73s-43.667 -36.667 -71 -48s-57.333 -17 -90 -17c-32 0 -61.667 5.66699 -89 17s-51 27 -71 47s-35.833 43.667 -47.5 71s-17.5 56.666 -17.5 87.999s5.83301 60.5 17.5 87.5s27.667 50.5 48 70.5s44.166 35.667 71.499 47
s56.666 17 87.999 17c12 0 22.833 -0.666992 32.5 -2s21.5 -4 35.5 -8c-19.333 34.667 -38.166 64 -56.499 88s-39.833 47.333 -64.5 70l-104 -55l-32 56l82 43c-6.66699 4 -10.834 6.66699 -12.501 8s-5.83398 3.66602 -12.501 6.99902s-11.334 5.5 -14.001 6.5s-5 2 -7 3
s-4.5 2.33301 -7.5 4s-8.5 4.5 -16.5 8.5c-7.33301 4 -12.5 6.66699 -15.5 8s-9.5 3.66602 -19.5 6.99902zM265.005 345.002c-38 0 -68.333 -12.333 -91 -37s-34 -57.667 -34 -99c0 -40.667 11.333 -73.334 34 -98.001s53 -37 91 -37s68.5 12.333 91.5 37
s34.5 57.334 34.5 98.001c0 41.333 -11.5 74.333 -34.5 99s-53.5 37 -91.5 37z" />
    <glyph glyph-name="ntilde" unicode="&#xf1;" horiz-adv-x="485" 
d="M158 421l0.00195312 -39.001c19.333 18.667 37.166 31.667 53.499 39s36.166 11 59.499 11c52 0 90.333 -14.167 115 -42.5s37 -72.166 37 -131.499v-258h-97v235c0 42 -5.66699 70.833 -17 86.5s-32 23.5 -62 23.5c-32.667 0 -55.667 -10.667 -69 -32s-20 -58 -20 -110
v-203h-97v421h97zM58.002 539.999l14.499 21.002c3.66699 5.33301 6.83398 9.66602 9.50098 12.999s4.83398 6.16602 6.50098 8.49902s3.83398 4.83301 6.50098 7.5c9.33301 9.33301 20.5 16.833 33.5 22.5s25.5 8.5 37.5 8.5c23.333 0 50 -7.66699 80 -23l25.5 -12.5l15 -7
c3.66699 -1.66699 6.66699 -2.66699 9 -3s5.16602 -0.5 8.49902 -0.5c9.33301 0 17.833 3.33301 25.5 10s17.167 19 28.5 37l55 -46c-28 -55.333 -65.667 -83 -113 -83c-11.333 0 -22 1.5 -32 4.5s-25.667 9.83301 -47 20.5c-28.667 13.333 -48.334 20 -59.001 20
c-8.66699 0 -16.667 -3.5 -24 -10.5s-15.333 -18.833 -24 -35.5z" />
    <glyph glyph-name="ograve" unicode="&#xf2;" horiz-adv-x="531" 
d="M266 432c31.333 0 60.6641 -5.66699 87.9971 -17s51 -27 71 -47s35.833 -43.667 47.5 -71s17.5 -56.666 17.5 -87.999c0 -30.667 -5.83301 -59.5 -17.5 -86.5s-27.5 -50.5 -47.5 -70.5s-43.667 -35.833 -71 -47.5s-56.666 -17.5 -87.999 -17.5
s-60.666 5.83301 -87.999 17.5s-51.166 27.5 -71.499 47.5s-36.333 43.5 -48 70.5s-17.5 55.833 -17.5 86.5c0 31.333 5.83301 60.666 17.5 87.999s27.5 51 47.5 71s43.667 35.667 71 47s57 17 89 17zM264.998 345c-38 0 -68.333 -12.333 -91 -37s-34 -57.667 -34 -99
c0 -40.667 11.333 -73.334 34 -98.001s53 -37 91 -37s68.5 12.333 91.5 37s34.5 57.334 34.5 98.001c0 41.333 -11.5 74.333 -34.5 99s-53.5 37 -91.5 37zM217.998 676l119 -158l-53 -32l-157 142z" />
    <glyph glyph-name="oacute" unicode="&#xf3;" horiz-adv-x="531" 
d="M266 432c31.333 0 60.6641 -5.66699 87.9971 -17s51 -27 71 -47s35.833 -43.667 47.5 -71s17.5 -56.666 17.5 -87.999c0 -30.667 -5.83301 -59.5 -17.5 -86.5s-27.5 -50.5 -47.5 -70.5s-43.667 -35.833 -71 -47.5s-56.666 -17.5 -87.999 -17.5
s-60.666 5.83301 -87.999 17.5s-51.166 27.5 -71.499 47.5s-36.333 43.5 -48 70.5s-17.5 55.833 -17.5 86.5c0 31.333 5.83301 60.666 17.5 87.999s27.5 51 47.5 71s43.667 35.667 71 47s57 17 89 17zM264.998 345c-38 0 -68.333 -12.333 -91 -37s-34 -57.667 -34 -99
c0 -40.667 11.333 -73.334 34 -98.001s53 -37 91 -37s68.5 12.333 91.5 37s34.5 57.334 34.5 98.001c0 41.333 -11.5 74.333 -34.5 99s-53.5 37 -91.5 37zM252.998 486l-53 32l119 158l91 -48z" />
    <glyph glyph-name="ocircumflex" unicode="&#xf4;" horiz-adv-x="531" 
d="M266 432c31.333 0 60.6641 -5.66699 87.9971 -17s51 -27 71 -47s35.833 -43.667 47.5 -71s17.5 -56.666 17.5 -87.999c0 -30.667 -5.83301 -59.5 -17.5 -86.5s-27.5 -50.5 -47.5 -70.5s-43.667 -35.833 -71 -47.5s-56.666 -17.5 -87.999 -17.5
s-60.666 5.83301 -87.999 17.5s-51.166 27.5 -71.499 47.5s-36.333 43.5 -48 70.5s-17.5 55.833 -17.5 86.5c0 31.333 5.83301 60.666 17.5 87.999s27.5 51 47.5 71s43.667 35.667 71 47s57 17 89 17zM264.998 345c-38 0 -68.333 -12.333 -91 -37s-34 -57.667 -34 -99
c0 -40.667 11.333 -73.334 34 -98.001s53 -37 91 -37s68.5 12.333 91.5 37s34.5 57.334 34.5 98.001c0 41.333 -11.5 74.333 -34.5 99s-53.5 37 -91.5 37zM264.998 676l153 -139l-66 -51l-87 81l-86 -81l-66 51z" />
    <glyph glyph-name="otilde" unicode="&#xf5;" horiz-adv-x="531" 
d="M266 432c31.333 0 60.6641 -5.66699 87.9971 -17s51 -27 71 -47s35.833 -43.667 47.5 -71s17.5 -56.666 17.5 -87.999c0 -30.667 -5.83301 -59.5 -17.5 -86.5s-27.5 -50.5 -47.5 -70.5s-43.667 -35.833 -71 -47.5s-56.666 -17.5 -87.999 -17.5
s-60.666 5.83301 -87.999 17.5s-51.166 27.5 -71.499 47.5s-36.333 43.5 -48 70.5s-17.5 55.833 -17.5 86.5c0 31.333 5.83301 60.666 17.5 87.999s27.5 51 47.5 71s43.667 35.667 71 47s57 17 89 17zM264.998 345c-38 0 -68.333 -12.333 -91 -37s-34 -57.667 -34 -99
c0 -40.667 11.333 -73.334 34 -98.001s53 -37 91 -37s68.5 12.333 91.5 37s34.5 57.334 34.5 98.001c0 41.333 -11.5 74.333 -34.5 99s-53.5 37 -91.5 37zM97.998 540l14.499 21.002c3.66699 5.33301 6.83398 9.66602 9.50098 12.999s4.83398 6.16602 6.50098 8.49902
s3.83398 4.83301 6.50098 7.5c9.33301 9.33301 20.5 16.833 33.5 22.5s25.5 8.5 37.5 8.5c23.333 0 50 -7.66699 80 -23l25.5 -12.5l15 -7c3.66699 -1.66699 6.66699 -2.66699 9 -3s5.16602 -0.5 8.49902 -0.5c9.33301 0 17.833 3.33301 25.5 10s17.167 19 28.5 37l55 -46
c-28 -55.333 -65.667 -83 -113 -83c-11.333 0 -22 1.5 -32 4.5s-25.667 9.83301 -47 20.5c-28.667 13.333 -48.334 20 -59.001 20c-8.66699 0 -16.667 -3.5 -24 -10.5s-15.333 -18.833 -24 -35.5z" />
    <glyph glyph-name="odieresis" unicode="&#xf6;" horiz-adv-x="531" 
d="M266 432c31.333 0 60.6641 -5.66699 87.9971 -17s51 -27 71 -47s35.833 -43.667 47.5 -71s17.5 -56.666 17.5 -87.999c0 -30.667 -5.83301 -59.5 -17.5 -86.5s-27.5 -50.5 -47.5 -70.5s-43.667 -35.833 -71 -47.5s-56.666 -17.5 -87.999 -17.5
s-60.666 5.83301 -87.999 17.5s-51.166 27.5 -71.499 47.5s-36.333 43.5 -48 70.5s-17.5 55.833 -17.5 86.5c0 31.333 5.83301 60.666 17.5 87.999s27.5 51 47.5 71s43.667 35.667 71 47s57 17 89 17zM264.998 345c-38 0 -68.333 -12.333 -91 -37s-34 -57.667 -34 -99
c0 -40.667 11.333 -73.334 34 -98.001s53 -37 91 -37s68.5 12.333 91.5 37s34.5 57.334 34.5 98.001c0 41.333 -11.5 74.333 -34.5 99s-53.5 37 -91.5 37zM174.998 615c17.333 0 31.833 -5.83301 43.5 -17.5s17.5 -26.167 17.5 -43.5s-6 -32 -18 -44s-26.333 -18 -43 -18
c-17.333 0 -32 6 -44 18s-18 26.667 -18 44c0 16.667 6 31 18 43s26.667 18 44 18zM355.998 615c17.333 0 31.833 -5.83301 43.5 -17.5s17.5 -26.167 17.5 -43.5s-6 -32 -18 -44s-26.333 -18 -43 -18c-17.333 0 -32 6 -44 18s-18 26.667 -18 44c0 16.667 6 31 18 43
s26.667 18 44 18z" />
    <glyph glyph-name="divide" unicode="&#xf7;" horiz-adv-x="549" 
d="M273 120c17.333 0 32 -6 44 -18s18 -26.667 18 -44s-6 -32 -18 -44s-26.667 -18 -44 -18s-32 6 -44 18s-18 26.667 -18 44s6 32 18 44s26.667 18 44 18zM273 519c17.333 0 32 -6 44 -18s18 -26.667 18 -44s-6 -32 -18 -44s-26.667 -18 -44 -18s-32 6 -44 18
s-18 26.667 -18 44s6 32 18 44s26.667 18 44 18zM536 288v-55h-526v55h526z" />
    <glyph glyph-name="oslash" unicode="&#xf8;" horiz-adv-x="531" 
d="M464 457l44 -45.999l-64 -64c30.667 -42.667 46 -88.334 46 -137.001c0 -31.333 -5.83301 -60.5 -17.5 -87.5s-27.5 -50.5 -47.5 -70.5s-43.667 -35.833 -71 -47.5s-56.666 -17.5 -87.999 -17.5c-50.667 0 -96.667 15 -138 45l-64 -62l-44 45l64 63
c-28 41.333 -42 85.333 -42 132c0 31.333 5.83301 60.5 17.5 87.5s27.5 50.5 47.5 70.5s43.667 35.667 71 47s56.666 17 87.999 17c25.333 0 48.333 -3.16699 69 -9.5s41.667 -16.833 63 -31.5zM328 325.001c-10.667 4.66699 -20.667 8 -30 10s-20 3 -32 3
c-38 0 -68.333 -11.667 -91 -35s-34 -54.666 -34 -93.999c0 -12 0.833008 -22.333 2.5 -31s5.16699 -19.334 10.5 -32.001zM198 98.001c11.333 -6.66699 22.168 -11.332 32.501 -13.999s22.166 -4 35.499 -4c38 0 68.333 11.667 91 35s34 54.666 34 93.999
c0 14 -1.33301 26.5 -4 37.5s-7 22.5 -13 34.5z" />
    <glyph glyph-name="ugrave" unicode="&#xf9;" horiz-adv-x="482" 
d="M158 179c0 -36 6.66699 -62.5 20 -79.5s34 -25.5 62 -25.5c28.667 0 49.667 8.5 63 25.5s20 43.5 20 79.5v242h97v-244c0 -33.333 -3.33301 -60.166 -10 -80.499s-18 -39.166 -34 -56.499c-34 -35.333 -79.333 -53 -136 -53c-56 0 -101 17.667 -135 53
c-16 17.333 -27.333 36.166 -34 56.499s-10 47.166 -10 80.499v244h97v-242zM187 676l119 -158l-53 -32l-157 142z" />
    <glyph glyph-name="uacute" unicode="&#xfa;" horiz-adv-x="482" 
d="M158 179c0 -36 6.66699 -62.5 20 -79.5s34 -25.5 62 -25.5c28.667 0 49.667 8.5 63 25.5s20 43.5 20 79.5v242h97v-244c0 -33.333 -3.33301 -60.166 -10 -80.499s-18 -39.166 -34 -56.499c-34 -35.333 -79.333 -53 -136 -53c-56 0 -101 17.667 -135 53
c-16 17.333 -27.333 36.166 -34 56.499s-10 47.166 -10 80.499v244h97v-242zM235 486l-53 32l119 158l91 -48z" />
    <glyph glyph-name="ucircumflex" unicode="&#xfb;" horiz-adv-x="482" 
d="M158 179c0 -36 6.66699 -62.5 20 -79.5s34 -25.5 62 -25.5c28.667 0 49.667 8.5 63 25.5s20 43.5 20 79.5v242h97v-244c0 -33.333 -3.33301 -60.166 -10 -80.499s-18 -39.166 -34 -56.499c-34 -35.333 -79.333 -53 -136 -53c-56 0 -101 17.667 -135 53
c-16 17.333 -27.333 36.166 -34 56.499s-10 47.166 -10 80.499v244h97v-242zM240 676l153 -139l-66 -51l-87 81l-86 -81l-66 51z" />
    <glyph glyph-name="udieresis" unicode="&#xfc;" horiz-adv-x="482" 
d="M158 179c0 -36 6.66699 -62.5 20 -79.5s34 -25.5 62 -25.5c28.667 0 49.667 8.5 63 25.5s20 43.5 20 79.5v242h97v-244c0 -33.333 -3.33301 -60.166 -10 -80.499s-18 -39.166 -34 -56.499c-34 -35.333 -79.333 -53 -136 -53c-56 0 -101 17.667 -135 53
c-16 17.333 -27.333 36.166 -34 56.499s-10 47.166 -10 80.499v244h97v-242zM151 615c17.333 0 31.833 -5.83301 43.5 -17.5s17.5 -26.167 17.5 -43.5s-6 -32 -18 -44s-26.333 -18 -43 -18c-17.333 0 -32 6 -44 18s-18 26.667 -18 44c0 16.667 6 31 18 43s26.667 18 44 18z
M332 615c17.333 0 31.833 -5.83301 43.5 -17.5s17.5 -26.167 17.5 -43.5s-6 -32 -18 -44s-26.333 -18 -43 -18c-17.333 0 -32 6 -44 18s-18 26.667 -18 44c0 16.667 6 31 18 43s26.667 18 44 18z" />
    <glyph glyph-name="yacute" unicode="&#xfd;" horiz-adv-x="480" 
d="M5 421h113l128 -242l120 242h110l-335 -650h-111l164 308zM249 486l-53 32l118 158l92 -48z" />
    <glyph glyph-name="thorn" unicode="&#xfe;" horiz-adv-x="530" 
d="M61 -229l0.00195312 958.002h97v-354c20.667 20.667 41.167 35.334 61.5 44.001s43.166 13 68.499 13c29.333 0 56.166 -5.66699 80.499 -17s45.333 -27 63 -47s31.5 -43.833 41.5 -71.5s15 -57.834 15 -90.501c0 -31.333 -5 -60.333 -15 -87s-24 -49.834 -42 -69.501
s-39.167 -35 -63.5 -46s-50.5 -16.5 -78.5 -16.5c-26 0 -49.167 4.66699 -69.5 14s-40.833 24.666 -61.5 45.999v-276h-97zM272.002 345.002c-36 0 -64.999 -12.499 -86.999 -37.499s-33 -57.5 -33 -97.5c0 -40.667 11 -73.5 33 -98.5s51 -37.5 87 -37.5
c16.667 0 32.167 3.33301 46.5 10s26.666 16 36.999 28s18.5 26.333 24.5 43s9 35 9 55c0 39.333 -11 71.666 -33 96.999s-50 38 -84 38z" />
    <glyph glyph-name="ydieresis" unicode="&#xff;" horiz-adv-x="480" 
d="M5 421h113l128 -242l120 242h110l-335 -650h-111l164 308zM151 615c17.333 0 31.833 -5.83301 43.5 -17.5s17.5 -26.167 17.5 -43.5s-6 -32 -18 -44s-26.333 -18 -43 -18c-17.333 0 -32 6 -44 18s-18 26.667 -18 44c0 16.667 6 31 18 43s26.667 18 44 18zM332 615
c17.333 0 31.833 -5.83301 43.5 -17.5s17.5 -26.167 17.5 -43.5s-6 -32 -18 -44s-26.333 -18 -43 -18c-17.333 0 -32 6 -44 18s-18 26.667 -18 44c0 16.667 6 31 18 43s26.667 18 44 18z" />
    <glyph glyph-name="dotlessi" unicode="&#x131;" horiz-adv-x="220" 
d="M158 0h-97v421h97v-421z" />
    <glyph glyph-name="Lslash" unicode="&#x141;" horiz-adv-x="392" 
d="M310 498v-99l-129 -86v-218h196v-95h-297v259l-63 -42v100l63 42v308h101v-254z" />
    <glyph glyph-name="lslash" unicode="&#x142;" horiz-adv-x="264" 
d="M244 370l-64 -44v-326h-97v277l-63 -44v97l63 44v355h97v-307l64 44v-96z" />
    <glyph glyph-name="OE" unicode="&#x152;" horiz-adv-x="1047" 
d="M737 572l0.00390625 -160.999h251v-95h-251v-221h258v-95h-359v92c-20 -18.667 -39.167 -34.667 -57.5 -48s-37 -24.333 -56 -33s-38.5 -14.834 -58.5 -18.501s-41.667 -5.5 -65 -5.5c-48.667 0 -94.334 9 -137.001 27s-80 42.5 -112 73.5s-57.167 67.333 -75.5 109
s-27.5 86.167 -27.5 133.5c0 48.667 9 94.334 27 137.001s42.667 79.667 74 111s68.166 56.166 110.499 74.499s87.5 27.5 135.5 27.5c47.333 0 89.666 -8.33301 126.999 -25s75.666 -44.667 114.999 -84v96h359v-95h-258zM392.004 584.001
c-33.333 0 -64.835 -6.49805 -94.502 -19.498s-55.5 -30.833 -77.5 -53.5s-39.5 -49.167 -52.5 -79.5s-19.5 -62.5 -19.5 -96.5c0 -34.667 6.33301 -67.334 19 -98.001s29.834 -57.5 51.501 -80.5s47.167 -41 76.5 -54s61 -19.5 95 -19.5s65.833 6.5 95.5 19.5
s55.834 30.667 78.501 53s40.5 48.333 53.5 78s19.5 61.167 19.5 94.5c0 35.333 -6.5 68.666 -19.5 99.999s-30.5 58.5 -52.5 81.5s-47.833 41.167 -77.5 54.5s-61.5 20 -95.5 20z" />
    <glyph glyph-name="oe" unicode="&#x153;" horiz-adv-x="843" 
d="M493 187c2 -32 13.501 -58.8311 34.501 -80.498s46.5 -32.5 76.5 -32.5c25.333 0 47 6.5 65 19.5s34.333 34.167 49 63.5l83 -48c-49.333 -81.333 -116.333 -122 -201 -122c-32.667 0 -63.834 7.16699 -93.501 21.5s-53.167 34.166 -70.5 59.499
c-44.667 -54 -102.334 -81 -173.001 -81c-30.667 0 -59.5 5.83301 -86.5 17.5s-50.5 27.5 -70.5 47.5s-35.833 43.333 -47.5 70s-17.5 55.334 -17.5 86.001c0 32 5.83301 61.667 17.5 89s27.667 51 48 71s44.5 35.667 72.5 47s58 17 90 17c70 0 125.667 -27.333 167 -82
c38.667 54.667 92 82 160 82c31.333 0 59.5 -5.16699 84.5 -15.5s46.333 -24.833 64 -43.5s31.334 -41.334 41.001 -68.001s14.5 -56.334 14.5 -89.001v-29h-307zM698.001 266.002c-11.333 52 -43.667 77.999 -97 77.999c-27.333 0 -49 -6.16699 -65 -18.5
s-27.667 -32.166 -35 -59.499h197zM263 344.001c-38 0 -67.833 -12.167 -89.5 -36.5s-32.5 -57.5 -32.5 -99.5s11 -74.833 33 -98.5s52.333 -35.5 91 -35.5c38 0 67.833 12 89.5 36s32.5 57 32.5 99s-10.833 75 -32.5 99s-52.167 36 -91.5 36z" />
    <glyph glyph-name="Scaron" unicode="&#x160;" horiz-adv-x="515" 
d="M376 519c-15.333 25.333 -30.001 42.6699 -44.001 52.0029s-32.667 14 -56 14c-28 0 -51.167 -8 -69.5 -24s-27.5 -35.667 -27.5 -59c0 -22.667 10.667 -41.334 32 -56.001c5.33301 -4 9.5 -7 12.5 -9s7.5 -4.33301 13.5 -7l27 -11.5l54 -21.5
c54 -22.667 93.5 -49.5 118.5 -80.5s37.5 -68.833 37.5 -113.5c0 -30.667 -5.33301 -59.334 -16 -86.001s-25.334 -49.5 -44.001 -68.5s-41 -34 -67 -45s-54 -16.5 -84 -16.5c-60 0 -108.667 17.167 -146 51.5s-60.666 82.833 -69.999 145.5l102 23
c2.66699 -20 5.16699 -35 7.5 -45s6.16602 -19.333 11.499 -28c8.66699 -16 21.667 -28.667 39 -38s36.333 -14 57 -14c32 0 58.167 10.5 78.5 31.5s30.5 47.5 30.5 79.5c0 37.333 -15.333 66.666 -46 87.999c-15.333 10 -31.666 18.667 -48.999 26l-22 9l-21 9l-21 9
c-91.333 38.667 -137 94.667 -137 168c0 25.333 5 48.833 15 70.5s24 40.5 42 56.5s39.167 28.5 63.5 37.5s50.833 13.5 79.5 13.5c40 0 74.333 -8.83301 103 -26.5s54.334 -46.167 77.001 -85.5zM272.999 727.004l-154 138l67 51l86 -81l86 82l66 -52z" />
    <glyph glyph-name="scaron" unicode="&#x161;" horiz-adv-x="359" 
d="M226 306c-13.333 26 -29.333 39.002 -48 39.002c-8.66699 0 -16.167 -2.83301 -22.5 -8.5s-9.5 -12.834 -9.5 -21.501c0 -9.33301 3.5 -17 10.5 -23s22.167 -14.333 45.5 -25c26 -12 47.5 -23 64.5 -33s30.333 -20.167 40 -30.5s16.5 -21.5 20.5 -33.5s6 -25.667 6 -41
c0 -20 -3.83301 -38.5 -11.5 -55.5s-18.334 -32 -32.001 -45s-29.5 -23.167 -47.5 -30.5s-37.333 -11 -58 -11c-70.667 0 -121 34.667 -151 104l83 38c11.333 -21.333 21.833 -35.833 31.5 -43.5s21.834 -11.5 36.501 -11.5c15.333 0 27.5 4.16699 36.5 12.5
s13.5 19.166 13.5 32.499c0 7.33301 -0.833008 13.333 -2.5 18s-5.66699 9.5 -12 14.5s-16 10.833 -29 17.5l-53.5 27c-31.333 15.333 -52.833 30.833 -64.5 46.5s-17.5 36.5 -17.5 62.5c0 38 12.333 68.667 37 92s57 35 97 35c51.333 0 90.333 -27.667 117 -83z
M181 486.002l-154 138l67 51l86 -81l86 82l66 -52z" />
    <glyph glyph-name="Ydieresis" unicode="&#x178;" horiz-adv-x="531" 
d="M-3 667h116l152 -267l154 267h115l-218 -379v-288h-101v288zM169 857c17.333 0 32 -6 44 -18s18 -26.667 18 -44s-6 -32 -18 -44s-26.667 -18 -44 -18s-32 6 -44 18s-18 26.667 -18 44s6 32 18 44s26.667 18 44 18zM363 857c17.333 0 32 -6 44 -18s18 -26.667 18 -44
s-6 -32 -18 -44s-26.667 -18 -44 -18s-32 6 -44 18s-18 26.667 -18 44s6 32 18 44s26.667 18 44 18z" />
    <glyph glyph-name="Zcaron" unicode="&#x17d;" horiz-adv-x="553" 
d="M515 95v-95h-485l327 572h-274v95h439l-327 -572h320zM298 727l-154 138l67 51l86 -81l86 82l66 -52z" />
    <glyph glyph-name="zcaron" unicode="&#x17e;" horiz-adv-x="480" 
d="M451 91v-91h-443l273 330h-215v91h407l-272 -330h250zM262 486l-154 138l67 51l86 -81l86 82l66 -52z" />
    <glyph glyph-name="florin" unicode="&#x192;" horiz-adv-x="567" 
d="M452 421l-11.001 -79h-113l-46 -261c-5.33301 -28.667 -10.333 -53 -15 -73s-9.83398 -37.167 -15.501 -51.5s-11.834 -26.5 -18.501 -36.5s-14.667 -19.333 -24 -28c-17.333 -16.667 -39.5 -29.667 -66.5 -39s-55.167 -14 -84.5 -14
c-3.33301 0 -7.66602 0.166992 -12.999 0.5s-11.666 0.833008 -18.999 1.5l16 91c15.333 0.666992 28 1.5 38 2.5s18.333 2.5 25 4.5s12.5 4.83301 17.5 8.5s9.83301 8.16699 14.5 13.5c7.33301 7.33301 13 15.166 17 23.499s8.33301 20.833 13 37.5
c2.66699 8.66699 5.33398 18.834 8.00098 30.501l6 26.5l46 263h-81l10 79h85l19 108c10.667 60 30.334 104.167 59.001 132.5s68.334 42.5 119.001 42.5c10.667 0 20.167 -0.666992 28.5 -2s19.5 -3.66602 33.5 -6.99902l-17 -92
c-10.667 3.33301 -18.834 5.66602 -24.501 6.99902s-12.834 2 -21.501 2c-21.333 0 -37.5 -7 -48.5 -21s-20.167 -39 -27.5 -75l-19 -95h110z" />
    <glyph glyph-name="circumflex" unicode="&#x2c6;" 
d="M250 676l153 -139l-66 -51l-87 81l-86 -81l-66 51z" />
    <glyph glyph-name="caron" unicode="&#x2c7;" 
d="M252 486l-154 138l67 51l86 -81l86 82l66 -52z" />
    <glyph glyph-name="breve" unicode="&#x2d8;" 
d="M175 631c6.66699 -45.333 31.667 -68 75 -68s68.333 22.667 75 68h80c-4.66699 -46 -20.5 -81.667 -47.5 -107s-62.833 -38 -107.5 -38c-46 0 -82.5 12.667 -109.5 38s-42.167 61 -45.5 107h80z" />
    <glyph glyph-name="dotaccent" unicode="&#x2d9;" 
d="M250 622c18 0 33.333 -6.33301 46 -19s19 -28 19 -46s-6.33301 -33.333 -19 -46s-28 -19 -46 -19s-33.333 6.33301 -46 19s-19 28 -19 46s6.33301 33.333 19 46s28 19 46 19z" />
    <glyph glyph-name="ring" unicode="&#x2da;" 
d="M263 674c26 0 48.167 -9.16699 66.5 -27.5s27.5 -40.5 27.5 -66.5s-9.16699 -48.167 -27.5 -66.5s-40.5 -27.5 -66.5 -27.5s-48.167 9.16699 -66.5 27.5s-27.5 40.5 -27.5 66.5s9.16699 48.167 27.5 66.5s40.5 27.5 66.5 27.5zM263 623
c-12 0 -22.167 -4.16699 -30.5 -12.5s-12.5 -18.5 -12.5 -30.5s4.16699 -22.167 12.5 -30.5s18.5 -12.5 30.5 -12.5s22.167 4.16699 30.5 12.5s12.5 18.5 12.5 30.5s-4.16699 22.167 -12.5 30.5s-18.5 12.5 -30.5 12.5z" />
    <glyph glyph-name="ogonek" unicode="&#x2db;" 
d="M322 0c-26 -17.333 -44.667 -32.666 -56 -45.999s-17 -26.333 -17 -39c0 -20.667 12.667 -31 38 -31c9.33301 0 17.833 0.5 25.5 1.5s17.167 3.16699 28.5 6.5l-8 -62c-11.333 -7.33301 -22 -12.333 -32 -15s-21.667 -4 -35 -4c-26.667 0 -49 7.66699 -67 23
s-27 34.666 -27 57.999c0 20.667 5.66699 39.167 17 55.5s31 33.833 59 52.5h74z" />
    <glyph glyph-name="tilde" unicode="&#x2dc;" 
d="M73 540l14.499 21.002c3.66699 5.33301 6.83398 9.66602 9.50098 12.999s4.83398 6.16602 6.50098 8.49902s3.83398 4.83301 6.50098 7.5c9.33301 9.33301 20.5 16.833 33.5 22.5s25.5 8.5 37.5 8.5c23.333 0 50 -7.66699 80 -23l25.5 -12.5l15 -7
c3.66699 -1.66699 6.66699 -2.66699 9 -3s5.16602 -0.5 8.49902 -0.5c9.33301 0 17.833 3.33301 25.5 10s17.167 19 28.5 37l55 -46c-28 -55.333 -65.667 -83 -113 -83c-11.333 0 -22 1.5 -32 4.5s-25.667 9.83301 -47 20.5c-28.667 13.333 -48.334 20 -59.001 20
c-8.66699 0 -16.667 -3.5 -24 -10.5s-15.333 -18.833 -24 -35.5z" />
    <glyph glyph-name="hungarumlaut" unicode="&#x2dd;" 
d="M169 486l-43 32l105 158l82 -48zM349 486l-43 32l105 158l82 -48z" />
    <glyph glyph-name="pi" unicode="&#x3c0;" horiz-adv-x="549" 
d="M10 348c8.66699 30 17.5 53.5039 26.5 70.5039s20.5 32.5 34.5 46.5c7.33301 7.33301 14.166 13.166 20.499 17.499s13.333 7.83301 21 10.5s16.334 4.5 26.001 5.5s21.167 1.5 34.5 1.5h350v-89h-126c-2 -13.333 -3.66699 -29 -5 -47s-2.5 -36.667 -3.5 -56
s-1.83301 -39.166 -2.5 -59.499s-1 -39.833 -1 -58.5c0 -34 5.33301 -60 16 -78s26.667 -27 48 -27c32.667 0 51.667 24.333 57 73h24c-1.33301 -25.333 -3.5 -44.833 -6.5 -58.5s-8.5 -27.834 -16.5 -42.501c-12 -22.667 -26.167 -40 -42.5 -52s-34.166 -18 -53.499 -18
c-32 0 -56.5 16 -73.5 48s-25.5 77.333 -25.5 136c0 14 0.5 30.667 1.5 50s2.5 39.666 4.5 60.999s4.33301 43.166 7 65.499s5.33398 43.5 8.00098 63.5h-109l-12 -129l-1.5 -20c-0.333008 -4.66699 -0.833008 -9.16699 -1.5 -13.5s-1.33398 -9.66602 -2.00098 -15.999
s-2 -16.166 -4 -29.499c-4.66699 -42.667 -8.33398 -73.334 -11.001 -92.001s-5 -32.334 -7 -41.001c-13.333 -55.333 -38 -83 -74 -83c-15.333 0 -28.166 5.33301 -38.499 16s-15.5 24 -15.5 40c0 10.667 2.83301 20.667 8.5 30s16.167 21 31.5 35
c17.333 16 29.833 30 37.5 42s12.167 25 13.5 39l26 222h-46c-12 0 -22.333 -0.833008 -31 -2.5s-16.5 -4.83398 -23.5 -9.50098s-13.833 -11 -20.5 -19s-14.334 -18.667 -23.001 -32h-20z" />
    <glyph glyph-name="endash" unicode="&#x2013;" horiz-adv-x="567" 
d="M464 256v-85h-362v85h362z" />
    <glyph glyph-name="emdash" unicode="&#x2014;" horiz-adv-x="577" 
d="M577 256v-85h-577v85h577z" />
    <glyph glyph-name="quoteleft" unicode="&#x2018;" horiz-adv-x="289" 
d="M50 449l123 247l66 -27l-102 -254z" />
    <glyph glyph-name="quoteright" unicode="&#x2019;" horiz-adv-x="289" 
d="M239 662l-123 -247l-66 27l102 254z" />
    <glyph glyph-name="quotesinglbase" unicode="&#x201a;" horiz-adv-x="289" 
d="M239 91l-123 -247l-66 27l102 254z" />
    <glyph glyph-name="quotedblleft" unicode="&#x201c;" horiz-adv-x="461" 
d="M223 449l123 247l65 -27l-102 -254zM50 449l123 247l66 -27l-102 -254z" />
    <glyph glyph-name="quotedblright" unicode="&#x201d;" horiz-adv-x="461" 
d="M239 662l-123 -247l-66 27l102 254zM411 662l-123 -247l-65 27l102 254z" />
    <glyph glyph-name="quotedblbase" unicode="&#x201e;" horiz-adv-x="461" 
d="M239 91l-123 -247l-66 27l102 254zM411 91l-123 -247l-65 27l102 254z" />
    <glyph glyph-name="dagger" unicode="&#x2020;" horiz-adv-x="567" 
d="M331 729v-154h138v-94h-138v-658h-97v658h-137v94h137v154h97z" />
    <glyph glyph-name="daggerdbl" unicode="&#x2021;" horiz-adv-x="567" 
d="M331 729v-154h138v-94h-138v-262h138v-94h-138v-302h-97v302h-137v94h137v262h-137v94h137v154h97z" />
    <glyph glyph-name="bullet" unicode="&#x2022;" horiz-adv-x="667" 
d="M336 477c18.667 0 36.334 -3.66699 53.001 -11s31.167 -17.166 43.5 -29.499s22.166 -26.833 29.499 -43.5s11 -34.667 11 -54s-3.66699 -37.5 -11 -54.5s-17.166 -31.667 -29.499 -44s-26.833 -22.166 -43.5 -29.499s-34.334 -11 -53.001 -11
c-19.333 0 -37.5 3.66699 -54.5 11s-31.833 17.166 -44.5 29.499s-22.667 27 -30 44s-11 35.167 -11 54.5s3.66699 37.333 11 54s17.333 31.167 30 43.5s27.5 22.166 44.5 29.499s35.167 11 54.5 11z" />
    <glyph glyph-name="ellipsis" unicode="&#x2026;" horiz-adv-x="835" 
d="M139 107c16.667 0 30.834 -5.83301 42.501 -17.5s17.5 -25.834 17.5 -42.501s-5.83301 -30.834 -17.5 -42.501s-25.834 -17.5 -42.501 -17.5s-30.834 5.83301 -42.501 17.5s-17.5 25.834 -17.5 42.501s5.83301 30.834 17.5 42.501s25.834 17.5 42.501 17.5zM418 108
c16.667 0 30.834 -5.83301 42.501 -17.5s17.5 -25.834 17.5 -42.501c0 -17.333 -5.83301 -31.833 -17.5 -43.5s-25.834 -17.5 -42.501 -17.5c-17.333 0 -31.833 5.83301 -43.5 17.5s-17.5 26.167 -17.5 43.5c0 16.667 5.83301 30.834 17.5 42.501s26.167 17.5 43.5 17.5z
M696 107c16.667 0 30.834 -5.83301 42.501 -17.5s17.5 -25.834 17.5 -42.501s-5.83301 -30.834 -17.5 -42.501s-25.834 -17.5 -42.501 -17.5s-30.834 5.83301 -42.501 17.5s-17.5 25.834 -17.5 42.501s5.83301 30.834 17.5 42.501s25.834 17.5 42.501 17.5z" />
    <glyph glyph-name="perthousand" unicode="&#x2030;" horiz-adv-x="1202" 
d="M194 674c22 0 42.667 -4.16699 62 -12.5s36.166 -19.666 50.499 -33.999s25.833 -31 34.5 -50s13 -39.167 13 -60.5s-4.33301 -41.5 -13 -60.5s-20.167 -35.667 -34.5 -50s-31.166 -25.666 -50.499 -33.999s-40 -12.5 -62 -12.5s-42.833 4.16699 -62.5 12.5
s-36.667 19.666 -51 33.999s-25.833 31 -34.5 50s-13 39.167 -13 60.5s4.33301 41.5 13 60.5s20.167 35.667 34.5 50s31.333 25.666 51 33.999s40.5 12.5 62.5 12.5zM194 602c-24 0 -44.333 -8.33301 -61 -25s-25 -36.667 -25 -60s8.5 -43.5 25.5 -60.5
s37.167 -25.5 60.5 -25.5s43.333 8.33301 60 25s25 37 25 61c0 23.333 -8.33301 43.333 -25 60s-36.667 25 -60 25zM619 652l-382 -663l-47 29l382 660zM616 308c22 0 42.667 -4.16504 62 -12.498s36.166 -19.666 50.499 -33.999s25.833 -31 34.5 -50s13 -39.5 13 -61.5
c0 -21.333 -4.33301 -41.5 -13 -60.5s-20.167 -35.667 -34.5 -50s-31.166 -25.666 -50.499 -33.999s-40 -12.5 -62 -12.5s-42.833 4.16699 -62.5 12.5s-36.667 19.666 -51 33.999s-25.833 31 -34.5 50s-13 39.167 -13 60.5s4.33301 41.666 13 60.999
s20.167 36.166 34.5 50.499s31.333 25.666 51 33.999s40.5 12.5 62.5 12.5zM616 236.002c-24 0 -44.333 -8.33301 -61 -25s-25 -36.667 -25 -60s8.5 -43.5 25.5 -60.5s37.167 -25.5 60.5 -25.5s43.333 8.33301 60 25s25 37 25 61c0 23.333 -8.33301 43.333 -25 60
s-36.667 25 -60 25zM1008 308.002c22 0 42.667 -4.16504 62 -12.498s36.166 -19.666 50.499 -33.999s25.833 -31 34.5 -50s13 -39.5 13 -61.5c0 -21.333 -4.33301 -41.5 -13 -60.5s-20.167 -35.667 -34.5 -50s-31.166 -25.666 -50.499 -33.999s-40 -12.5 -62 -12.5
s-42.833 4.16699 -62.5 12.5s-36.667 19.666 -51 33.999s-25.833 31 -34.5 50s-13 39.167 -13 60.5s4.33301 41.666 13 60.999s20.167 36.166 34.5 50.499s31.333 25.666 51 33.999s40.5 12.5 62.5 12.5zM1008 236.004c-24 0 -44.333 -8.33301 -61 -25s-25 -36.667 -25 -60
s8.5 -43.5 25.5 -60.5s37.167 -25.5 60.5 -25.5s43.333 8.33301 60 25s25 37 25 61c0 23.333 -8.33301 43.333 -25 60s-36.667 25 -60 25z" />
    <glyph glyph-name="guilsinglleft" unicode="&#x2039;" horiz-adv-x="324" 
d="M271 48l-65 -47l-166 213l166 220l65 -48l-130 -172z" />
    <glyph glyph-name="guilsinglright" unicode="&#x203a;" horiz-adv-x="324" 
d="M53 386l65 48l166 -220l-166 -213l-65 47l129 166z" />
    <glyph glyph-name="fraction" unicode="&#x2044;" horiz-adv-x="162" 
d="M296 652l-382 -663l-47 29l382 660z" />
    <glyph glyph-name="trademark" unicode="&#x2122;" horiz-adv-x="702" 
d="M152 287h-69v315h-84v65h237v-65h-84v-315zM341 702l126 -281l127 281l81 -415h-70l-36 207l-102 -214l-102 214l-35 -207h-71z" />
    <glyph glyph-name="Omega" unicode="&#x2126;" horiz-adv-x="768" 
d="M34 0l0.000976562 153h24c3.33301 -22 10.666 -38 21.999 -48s27 -15 47 -15h146l-3 38c-64.667 23.333 -114.5 56.833 -149.5 100.5s-52.5 94.834 -52.5 153.501c0 41.333 8.5 80.333 25.5 117s39.833 68.834 68.5 96.501s62.334 49.667 101.001 66
s79.334 24.5 122.001 24.5c43.333 0 84.166 -8.16699 122.499 -24.5s71.833 -38.333 100.5 -66s51.5 -59.834 68.5 -96.501s25.5 -75.667 25.5 -117c0 -58.667 -17.5 -109.834 -52.5 -153.501s-84.833 -77.167 -149.5 -100.5l-3 -38h146c20 0 35.667 5 47 15
s18.666 26 21.999 48h24v-153h-292l18 155c39.333 22 70.5 53.5 93.5 94.5s34.5 85.167 34.5 132.5c0 36.667 -5.33301 70.834 -16 102.501s-25.167 59.167 -43.5 82.5s-40 41.666 -65 54.999s-51.833 20 -80.5 20s-55.5 -6.66699 -80.5 -20s-46.667 -31.666 -65 -54.999
s-32.833 -50.833 -43.5 -82.5s-16 -65.834 -16 -102.501c0 -47.333 11.5 -91.5 34.5 -132.5s54.167 -72.5 93.5 -94.5l18 -155h-292z" />
    <glyph glyph-name="partialdiff" unicode="&#x2202;" horiz-adv-x="494" 
d="M66 725c28 10.667 51.6709 18.0029 71.0039 22.0029s38.666 6 57.999 6c38 0 73.333 -8.83301 106 -26.5s61 -42.167 85 -73.5s42.667 -68.5 56 -111.5s20 -89.5 20 -139.5c0 -30.667 -2.16699 -61.667 -6.5 -93s-10.166 -61.5 -17.499 -90.5s-16.333 -55.667 -27 -80
s-22 -44.833 -34 -61.5c-20.667 -28.667 -44.834 -50.334 -72.501 -65.001s-57.834 -22 -90.501 -22c-26.667 0 -51.5 5 -74.5 15s-42.833 23.833 -59.5 41.5s-29.834 38.667 -39.501 63s-14.5 50.5 -14.5 78.5c0 29.333 5.33301 57.5 16 84.5s24.834 50.833 42.501 71.5
s38.167 37.167 61.5 49.5s47.666 18.5 72.999 18.5c13.333 0 25.666 -1 36.999 -3s23 -5.5 35 -10.5s24.5 -11.833 37.5 -20.5s27.5 -19.334 43.5 -32.001c3.33301 25.333 5.33301 45 6 59s1 29.333 1 46c0 81.333 -14 144.166 -42 188.499s-68 66.5 -120 66.5
c-31.333 0 -68 -10.667 -110 -32zM366.004 312.003c-21.333 21.333 -39.334 35.834 -54.001 43.501s-31.667 11.5 -51 11.5c-20 0 -39 -5.5 -57 -16.5s-33.833 -26 -47.5 -45s-24.334 -41 -32.001 -66s-11.5 -51.833 -11.5 -80.5c0 -44 7.83301 -78 23.5 -102
s37.834 -36 66.501 -36c20.667 0 41 7.83301 61 23.5s36.667 36.5 50 62.5c16.667 34 28.334 69 35.001 105c6 29.333 10.5 53.166 13.5 71.499s4.16699 27.833 3.5 28.5z" />
    <glyph glyph-name="Delta" unicode="&#x2206;" horiz-adv-x="612" 
d="M327 688l281 -688h-602zM479 51l-189 458l-213 -458h402z" />
    <glyph glyph-name="product" unicode="&#x220f;" horiz-adv-x="823" 
d="M25 -98l2.99414 -0.000976562c16.667 0 31.334 2.83301 44.001 8.5s22.667 13.167 30 22.5c5.33301 8.66699 9 18.5 11 29.5s3 29.5 3 55.5v591c0 26 -1 44.5 -3 55.5s-5.66699 20.833 -11 29.5c-7.33301 9.33301 -17.333 16.833 -30 22.5s-27.334 8.5 -44.001 8.5h-3v26
h778v-26h-3c-16.667 0 -31.334 -2.83301 -44.001 -8.5s-22.667 -13.167 -30 -22.5c-5.33301 -8.66699 -9 -18.5 -11 -29.5s-3 -29.5 -3 -55.5v-591c0 -26 1 -44.5 3 -55.5s5.66699 -20.833 11 -29.5c7.33301 -9.33301 17.333 -16.833 30 -22.5s27.334 -8.5 44.001 -8.5h3
v-26h-290v26h3c16.667 0 31.334 2.83301 44.001 8.5s22.667 13.167 30 22.5c5.33301 8.66699 9 18.5 11 29.5s3 29.5 3 55.5v576c0 31.333 -1.16699 53.5 -3.5 66.5s-7.16602 22.833 -14.499 29.5c-5.33301 5.33301 -12.666 9.16602 -21.999 11.499
s-21.666 4.16602 -36.999 5.49902c-4.66699 0.666992 -10.167 1 -16.5 1h-31.5h-67h-63.5c-15.667 0 -28.167 -0.166992 -37.5 -0.5s-16.5 -0.666016 -21.5 -0.999023s-10.5 -1.16602 -16.5 -2.49902c-10 -2 -18.333 -4.83301 -25 -8.5s-11.667 -9.5 -15 -17.5
s-5.66602 -18.667 -6.99902 -32s-2 -30.666 -2 -51.999v-576c0 -26 1 -44.5 3 -55.5s5.66699 -20.833 11 -29.5c7.33301 -9.33301 17.333 -16.833 30 -22.5s27.334 -8.5 44.001 -8.5h3v-26h-290v26z" />
    <glyph glyph-name="summation" unicode="&#x2211;" horiz-adv-x="713" 
d="M364 341l-201 -351.999h328c29.333 0 53.5 1.33301 72.5 4s35 7.5 48 14.5s23.833 17 32.5 30s17 29.5 25 49.5h26l-54 -210h-627l242 408l-233 467h599l10 -165h-26c-4 25.333 -9.33301 46 -16 62s-16 28.667 -28 38s-27.5 15.666 -46.5 18.999s-42.833 5 -71.5 5h-268z
" />
    <glyph glyph-name="minus" unicode="&#x2212;" horiz-adv-x="567" 
d="M53 387h460v-80h-460v80z" />
    <glyph glyph-name="radical" unicode="&#x221a;" horiz-adv-x="549" 
d="M121 461l-95 -47l-16 35l146 71l195 -394l127 787l37 -5l-152 -943z" />
    <glyph glyph-name="infinity" unicode="&#x221e;" horiz-adv-x="713" 
d="M357 303c56 74 118.998 111.002 188.998 111.002c20.667 0 39.834 -3.66699 57.501 -11s32.834 -17.5 45.501 -30.5s22.5 -28.333 29.5 -46s10.5 -37.167 10.5 -58.5c0 -46 -12.833 -83 -38.5 -111s-59.834 -42 -102.501 -42c-32 0 -64.5 9.83301 -97.5 29.5
s-64.167 47.5 -93.5 83.5l-19.5 -22.5c-3.66699 -4.33301 -7.16699 -8.83301 -10.5 -13.5c-22 -24 -46.833 -42.833 -74.5 -56.5s-55.5 -20.5 -83.5 -20.5c-43.333 0 -78.166 13.667 -104.499 41s-39.5 63.333 -39.5 108c0 21.333 3.66699 41.166 11 59.499
s17.333 34.166 30 47.499s28 23.833 46 31.5s37.333 11.5 58 11.5c32 0 64 -9.5 96 -28.5s62.333 -46.5 91 -82.5zM390.998 265.002c18 -19.333 33.832 -35.333 47.499 -48s26.5 -22.667 38.5 -30s23.667 -12.5 35 -15.5s24 -4.5 38 -4.5c27.333 0 49 9 65 27s24 42 24 72
c0 28 -8.83301 51 -26.5 69s-40.5 27 -68.5 27c-15.333 0 -32.166 -3.83301 -50.499 -11.5s-35.833 -18.5 -52.5 -32.5c-16.667 -12.667 -31.334 -28 -44.001 -46c-1.33301 -1.33301 -2.66602 -3 -3.99902 -5zM323.997 266.002c-32.667 35.333 -60.498 60.167 -83.498 74.5
s-47.167 21.5 -72.5 21.5c-28.667 0 -51.334 -8.83301 -68.001 -26.5s-25 -41.5 -25 -71.5c0 -28.667 8.16699 -52 24.5 -70s37.5 -27 63.5 -27c44 0 88.667 22.667 134 68c8.66699 8.66699 16 17 22 25c1.33301 2 2.66602 3.66699 3.99902 5z" />
    <glyph glyph-name="integral" unicode="&#x222b;" horiz-adv-x="274" 
d="M180 232c0 -54 -2.33105 -104.166 -6.99805 -150.499s-10.667 -83.166 -18 -110.499c-7.33301 -24.667 -19 -43.834 -35 -57.501s-35 -20.5 -57 -20.5c-18.667 0 -33.5 4 -44.5 12s-16.5 18.667 -16.5 32c0 9.33301 3.33301 17.166 10 23.499s15.334 9.5 26.001 9.5
c12 0 22 -7.33301 30 -22c5.33301 -12 12.333 -18 21 -18c9.33301 0 16.833 5.33301 22.5 16s8.5 25.334 8.5 44.001c0 7.33301 -0.166992 17.833 -0.5 31.5s-1.16602 27.5 -2.49902 41.5c-0.666992 15.333 -1.33398 29.5 -2.00098 42.5s-1.16699 26 -1.5 39
s-0.5 26.5 -0.5 40.5v47v345c0 52.667 2.33301 102.5 7 149.5s10.667 84.167 18 111.5c7.33301 24.667 19.166 43.834 35.499 57.501s35.166 20.5 56.499 20.5c19.333 0 34.333 -4 45 -12s16 -19.333 16 -34c0 -9.33301 -3.5 -16.833 -10.5 -22.5s-15.5 -8.5 -25.5 -8.5
c-8 0 -14.5 2.16699 -19.5 6.5s-11.833 13.166 -20.5 26.499c-2 4 -6.33301 6 -13 6c-19.333 0 -29 -21.667 -29 -65c0 -6.66699 0.166992 -16 0.5 -28s1.16602 -25 2.49902 -39c1.33301 -25.333 2.33301 -51.333 3 -78s1 -57.334 1 -92.001v-344z" />
    <glyph glyph-name="approxequal" unicode="&#x2248;" horiz-adv-x="549" 
d="M527 217c-30.667 -56.667 -77.667 -85.001 -141 -85.001c-22 0 -44 3.33301 -66 10l-16 5l-22 7c-4 1.33301 -7.66699 2.5 -11 3.5l-14.5 4.5c-6.33301 2 -17.5 5.33301 -33.5 10c-17.333 5.33301 -30 8.66602 -38 9.99902s-16.333 2 -25 2
c-10 0 -18.833 -0.833008 -26.5 -2.5s-15.167 -4.66699 -22.5 -9s-15.166 -10.666 -23.499 -18.999s-18.5 -19.166 -30.5 -32.499l-43 34c39.333 56 88 84 146 84c7.33301 0 14.5 -0.333008 21.5 -1s15.167 -2 24.5 -4s20.333 -4.83301 33 -8.5s28 -8.5 46 -14.5l43 -13
c10.667 -3.33301 19.5 -5.83301 26.5 -7.5s12.667 -2.66699 17 -3s9.16602 -0.5 14.499 -0.5c18.667 0 35 4.33301 49 13s32 25.667 54 51zM527 374.999c-30 -57.333 -77 -86.002 -141 -86.002c-22 0 -44 3.33301 -66 10l-16 5l-22 7c-4 1.33301 -7.66699 2.5 -11 3.5
l-14.5 4.5c-6.33301 2 -17.5 5.33301 -33.5 10c-17.333 5.33301 -30 8.83301 -38 10.5s-16.333 2.5 -25 2.5c-10 0 -18.833 -0.833008 -26.5 -2.5s-15.167 -4.66699 -22.5 -9s-15.166 -10.666 -23.499 -18.999s-18.5 -19.166 -30.5 -32.499l-43 33
c40 56.667 88.667 85 146 85c7.33301 0 14.5 -0.333008 21.5 -1s15.167 -2 24.5 -4s20.333 -4.83301 33 -8.5s28 -8.5 46 -14.5l43 -14c10.667 -3.33301 19.5 -5.83301 26.5 -7.5s12.667 -2.66699 17 -3s9.16602 -0.5 14.499 -0.5c18.667 0 35 4.33301 49 13
s32 25.667 54 51z" />
    <glyph glyph-name="notequal" unicode="&#x2260;" horiz-adv-x="549" 
d="M15 141v55h199l70 139h-269v55h297l80 159l47 -24l-68 -135h169v-55h-197l-70 -139h267v-55h-295l-84 -166l-46 24l72 142h-172z" />
    <glyph glyph-name="lessequal" unicode="&#x2264;" horiz-adv-x="549" 
d="M526 0h-497v55h497v-55zM526 577l-418 -199l418 -199v-62l-497 233v55l497 234v-62z" />
    <glyph glyph-name="greaterequal" unicode="&#x2265;" horiz-adv-x="549" 
d="M526 0h-497v55h497v-55zM526 405v-55l-497 -233v62l418 199l-418 199v62z" />
    <glyph glyph-name="lozenge" unicode="&#x25ca;" horiz-adv-x="494" 
d="M18 377l196 363h63l189 -366l-197 -374h-60zM402 374l-157 309l-164 -306l159 -319z" />
    <glyph glyph-name="fi" unicode="&#xfb01;" horiz-adv-x="469" 
d="M162 0h-97.0039v330h-35v91h35v162c0 28.667 2.33301 52.167 7 70.5s12.334 33.166 23.001 44.499c11.333 12.667 26.833 23 46.5 31s39.167 12 58.5 12c13.333 0 24.333 -1 33 -3s20.334 -6 35.001 -12v-99c-17.333 8.66699 -29.666 14.334 -36.999 17.001
s-15.666 4 -24.999 4c-17.333 0 -29 -6 -35 -18s-9 -35.667 -9 -71v-138h106v-91h-106v-330zM407.996 0h-97v421h97v-421zM359.996 659c17.333 0 32.166 -6.16699 44.499 -18.5s18.5 -27.166 18.5 -44.499s-6.16699 -32.333 -18.5 -45s-27.166 -19 -44.499 -19
s-32.333 6.33301 -45 19s-19 27.667 -19 45s6.16699 32.166 18.5 44.499s27.5 18.5 45.5 18.5z" />
    <glyph glyph-name="fl" unicode="&#xfb02;" horiz-adv-x="469" 
d="M162 0l-97.001 -0.000976562v330h-35v91h35v162c0 28.667 2.33301 52.167 7 70.5s12.334 33.5 23.001 45.5c11.333 12.667 26.666 23 45.999 31s39 12 59 12c13.333 0 24.333 -1 33 -3s20.334 -6.33301 35.001 -13v-99c-16.667 8.66699 -29 14.334 -37 17.001
s-16.333 4 -25 4c-17.333 0 -29 -6 -35 -18s-9 -35.667 -9 -71v-138h106v-91h-106v-330zM407.999 -0.000976562h-97v729h97v-729z" />
    <glyph glyph-name="apple" horiz-adv-x="790" 
d="M570 687c0 -22 -4.99902 -42.833 -14.999 -62.5s-23.333 -37.167 -40 -52.5s-35.834 -27.333 -57.501 -36s-44.5 -13 -68.5 -13c1.33301 48.667 17.833 88.5 49.5 119.5s75.5 49.5 131.5 55.5v-11zM714.001 461c-30 -22.667 -50.999 -44.6748 -62.999 -66.0078
s-18 -46.333 -18 -75c0 -34 8.66699 -64.167 26 -90.5s42 -46.166 74 -59.499c-30 -61.333 -62.5 -109.5 -97.5 -144.5s-68.5 -52.5 -100.5 -52.5c-18.667 0 -40.334 5.66699 -65.001 17c-6 2.66699 -11.167 4.83398 -15.5 6.50098s-8.83301 2.83398 -13.5 3.50098
s-9.66699 1.16699 -15 1.5s-12.666 0.5 -21.999 0.5c-12.667 0 -22.5 -0.666992 -29.5 -2s-15.833 -4.66602 -26.5 -9.99902c-15.333 -6.66699 -27.833 -11.167 -37.5 -13.5s-19.5 -3.5 -29.5 -3.5c-25.333 0 -51.333 10.5 -78 31.5s-50.834 47.833 -72.501 80.5
s-39.5 69 -53.5 109s-21 79.333 -21 118c0 30.667 5.5 59.334 16.5 86.001s25.833 50 44.5 70s40.5 35.833 65.5 47.5s51.833 17.5 80.5 17.5c12.667 0 26 -1.5 40 -4.5s30.667 -8.16699 50 -15.5c23.333 -8 40.333 -12 51 -12c10 0 23.667 3.33301 41 10
c12 4.66699 22.167 8.33398 30.5 11.001s15.833 4.83398 22.5 6.50098s13 2.83398 19 3.50098s12.667 1 20 1c74.667 0 133.667 -24 177 -72z" />
  </font>
</defs>
</svg>
