<?xml version="1.0" standalone="no"?>
<!DOCTYPE svg PUBLIC "-//W3C//DTD SVG 1.1//EN" "http://www.w3.org/Graphics/SVG/1.1/DTD/svg11.dtd" >
<svg>
<metadata>
Created by FontForge 20090914 at Mon Apr 17 21:37:46 2017
 By www-data
Copyright URW Software, Copyright 1992 by URW
</metadata>
<defs>
<font id="FuturaT-BookOblique" horiz-adv-x="567" >
  <font-face 
    font-family="FuturTBooObl"
    font-weight="400"
    font-style="oblique"
    font-stretch="normal"
    units-per-em="1000"
    panose-1="0 0 0 0 0 0 0 0 0 0"
    ascent="750"
    descent="-250"
    x-height="404"
    cap-height="667"
    bbox="-179 -235.999 1051 916.002"
    underline-thickness="69"
    underline-position="-29"
    slope="-7"
    unicode-range="U+000D-U+FB02"
  />
<missing-glyph horiz-adv-x="250" 
 />
    <glyph glyph-name=".notdef" horiz-adv-x="250" 
 />
    <glyph glyph-name=".null" horiz-adv-x="0" 
 />
    <glyph glyph-name=".null" horiz-adv-x="0" 
 />
    <glyph glyph-name="nonmarkingreturn" unicode="&#xd;" horiz-adv-x="250" 
 />
    <glyph glyph-name="space" unicode=" " horiz-adv-x="250" 
 />
    <glyph glyph-name="exclam" unicode="!" horiz-adv-x="267" 
d="M111 87c14 0 25.5 -4.5 34.5 -13.5s13.5 -20.167 13.5 -33.5c0 -14 -4.5 -25.5 -13.5 -34.5s-20.833 -13.5 -35.5 -13.5c-13.333 0 -24.333 4.66699 -33 14s-13 21 -13 35c0 12.667 4.66699 23.5 14 32.5s20.333 13.5 33 13.5zM160 152h-73l64 520h73z" />
    <glyph glyph-name="quotedbl" unicode="&#x22;" horiz-adv-x="327" 
d="M87 399l20 268h78l-46 -268h-52zM230 399l20 268h78l-46 -268h-52z" />
    <glyph glyph-name="numbersign" unicode="#" horiz-adv-x="547" 
d="M536 411h-106l-26 -139h103l-8 -60h-106l-40 -215l-62 9l38 206h-128l-40 -215l-62 9l39 206h-107l7 60h111l26 139h-107l8 60h110l37 201l62 -8l-36 -193h127l38 201l62 -8l-36 -193h103zM238 411l-26 -139h128l25 139h-127z" />
    <glyph glyph-name="dollar" unicode="$" 
d="M228 -9c-40.667 7.33301 -73.835 21.6631 -99.502 42.9961s-48.167 53.333 -67.5 96l58 34c14 -34.667 30.333 -60.667 49 -78s41.334 -27.666 68.001 -30.999l33 269c-24.667 14.667 -45.334 28.667 -62.001 42s-30.167 27 -40.5 41s-17.833 28.833 -22.5 44.5
s-7 33.167 -7 52.5c0 49.333 15.667 89.333 47 120s74 48.667 128 54l10 83h52l-11 -86c30 -6 55 -16.667 75 -32s38.667 -38.666 56 -69.999l-50 -42c-15.333 25.333 -29.166 43.5 -41.499 54.5s-28.166 19.167 -47.499 24.5l-29 -240c26.667 -16 48.834 -31 66.501 -45
s31.667 -28.167 42 -42.5s17.666 -29.666 21.999 -45.999s6.5 -35.166 6.5 -56.499c0 -54 -16 -97.5 -48 -130.5s-77.333 -53.167 -136 -60.5l-12 -96h-51zM303.999 611.997c-63.333 -15.333 -95 -50.001 -95 -104.001c0 -21.333 5.5 -40.666 16.5 -57.999
s28.5 -34 52.5 -50zM286.999 55.9961c34 6.66699 59.833 20.833 77.5 42.5s26.5 50.167 26.5 85.5c0 22 -5.33301 41.167 -16 57.5s-30 33.833 -58 52.5z" />
    <glyph glyph-name="percent" unicode="%" horiz-adv-x="733" 
d="M202 676c34.667 0 62.667 -13.666 84 -40.999s32 -63.333 32 -108c0 -28 -3.5 -53.833 -10.5 -77.5s-16.667 -44.167 -29 -61.5s-26.833 -31 -43.5 -41s-35 -15 -55 -15c-34.667 0 -62.667 13.667 -84 41s-32 63.666 -32 108.999c0 27.333 3.5 52.833 10.5 76.5
s16.667 44.167 29 61.5s27 31 44 41s35.167 15 54.5 15zM201 628.001c-12 0 -23.167 -4.00098 -33.5 -12.001s-19.5 -18.667 -27.5 -32s-14.333 -28.833 -19 -46.5s-7 -36.5 -7 -56.5c0 -30.667 6 -55.167 18 -73.5s28 -27.5 48 -27.5c12 0 23.333 3.83301 34 11.5
s20 18.334 28 32.001s14.333 29.5 19 47.5s7 37 7 57c0 30.667 -6 55 -18 73s-28.333 27 -49 27zM606 677l35 -27l-490 -660l-34 26zM577 335c35.333 0 63.666 -13.6641 84.999 -40.9971s32 -63.333 32 -108c0 -28 -3.5 -53.833 -10.5 -77.5s-16.667 -44.334 -29 -62.001
s-26.833 -31.334 -43.5 -41.001s-35 -14.5 -55 -14.5c-35.333 0 -63.666 13.667 -84.999 41s-32 63.666 -32 108.999c0 27.333 3.5 52.833 10.5 76.5s16.667 44.167 29 61.5s27 31 44 41s35.167 15 54.5 15zM576 287.003c-12 0 -23.167 -4.00098 -33.5 -12.001
s-19.5 -18.667 -27.5 -32s-14.333 -28.833 -19 -46.5s-7 -36.5 -7 -56.5c0 -30.667 6 -55.167 18 -73.5s28.333 -27.5 49 -27.5c12 0 23.333 3.83301 34 11.5s20 18.334 28 32.001s14.333 29.5 19 47.5s7 37 7 57c0 30.667 -6 55 -18 73s-28.667 27 -50 27z" />
    <glyph glyph-name="ampersand" unicode="&#x26;" horiz-adv-x="600" 
d="M564 0l-88.998 -0.000976562l-49 80l-24.5 -18l-16.5 -12l-12.5 -9l-11.5 -8c-20 -14 -40.833 -24.667 -62.5 -32s-42.834 -11 -63.501 -11c-24.667 0 -48 4.83301 -70 14.5s-41.333 22.834 -58 39.501s-29.834 36.167 -39.501 58.5s-14.5 45.833 -14.5 70.5
c0 19.333 3 37.666 9 54.999s15.833 34.833 29.5 52.5s31.667 35.834 54 54.501s49.833 39.334 82.5 62.001c-18 32 -30.5 57.833 -37.5 77.5s-10.5 39.5 -10.5 59.5c0 42 13.333 76.167 40 102.5s61 39.5 103 39.5c20 0 38.5 -3.33301 55.5 -10s31.667 -15.834 44 -27.501
s22 -25.667 29 -42s10.5 -34.166 10.5 -53.499c0 -30 -10.333 -57.833 -31 -83.5s-54.667 -52.834 -102 -81.501l115 -189l93 79l48 -57l-101 -83zM291.002 436.999c36.667 22.667 62.501 42.333 77.501 59s22.5 33.667 22.5 51c0 19.333 -6 35 -18 47s-27.667 18 -47 18
c-20.667 0 -37.834 -7.5 -51.501 -22.5s-20.5 -33.833 -20.5 -56.5c0 -12 2.5 -24.5 7.5 -37.5s14.833 -32.5 29.5 -58.5zM265.003 338.998c-27.333 -20 -49.8301 -37.502 -67.4971 -52.502s-31.834 -28.667 -42.501 -41s-18 -24.166 -22 -35.499s-6 -23.666 -6 -36.999
c0 -15.333 2.83301 -29.833 8.5 -43.5s13.5 -25.667 23.5 -36s21.667 -18.5 35 -24.5s27.666 -9 42.999 -9c10 0 20 1.16699 30 3.5s20.667 6.5 32 12.5s24.166 14.167 38.499 24.5s30.833 23.5 49.5 39.5z" />
    <glyph glyph-name="quotesingle" unicode="'" horiz-adv-x="185" 
d="M87 399l20 268h78l-46 -268h-52z" />
    <glyph glyph-name="parenleft" unicode="(" horiz-adv-x="298" 
d="M128 -187c-32 102.667 -48 217 -48 343c0 101.333 12.5 198.833 37.5 292.5s64.167 188.5 117.5 284.5l58 -32c-24.667 -48 -46 -94.667 -64 -140s-32.667 -90.5 -44 -135.5s-19.833 -90 -25.5 -135s-8.5 -91.5 -8.5 -139.5c0 -52 3.33301 -104.167 10 -156.5
s16.667 -104.5 30 -156.5z" />
    <glyph glyph-name="parenright" unicode=")" horiz-adv-x="298" 
d="M181 733c32 -102.667 48 -216.666 48 -341.999c0 -101.333 -12.5 -199 -37.5 -293s-64.167 -189 -117.5 -285l-58 33c49.333 94.667 85.333 186.167 108 274.5s34 180.166 34 275.499c0 102.667 -13 207 -39 313z" />
    <glyph glyph-name="asterisk" unicode="*" 
d="M310 734l69 -9l-20 -122l120 29l13 -68l-122 -19l64 -105l-60 -34l-56 111l-80 -94l-51 47l88 87l-114 48l29 62l110 -57z" />
    <glyph glyph-name="plus" unicode="+" 
d="M61 370h205v198h61v-198h205v-60h-205v-200h-61v200h-205v60z" />
    <glyph glyph-name="comma" unicode="," horiz-adv-x="240" 
d="M8 -135l-46 25l124 234l60 -33z" />
    <glyph glyph-name="hyphen" unicode="-" horiz-adv-x="181" 
d="M175 179h-181l8 62h180z" />
    <glyph glyph-name="period" unicode="." horiz-adv-x="240" 
d="M97 87c13.333 0 24.666 -4.50098 33.999 -13.501s14 -20.167 14 -33.5s-4.83301 -24.666 -14.5 -33.999s-21.167 -14 -34.5 -14s-24.5 4.83301 -33.5 14.5s-13.167 21.167 -12.5 34.5s5.33398 24.333 14.001 33s19.667 13 33 13z" />
    <glyph glyph-name="slash" unicode="/" horiz-adv-x="389" 
d="M367 733l58 -22l-390 -891l-57 26z" />
    <glyph glyph-name="zero" unicode="0" 
d="M320 678c31.333 0 60.001 -7.16406 86.001 -21.4971s48.5 -34.5 67.5 -60.5s33.667 -57 44 -93s15.5 -75.667 15.5 -119c0 -54.667 -6.83301 -106 -20.5 -154s-32.334 -89.833 -56.001 -125.5s-51.5 -63.834 -83.5 -84.501s-66.333 -31 -103 -31
c-31.333 0 -60 7.33301 -86 22s-48.5 35.167 -67.5 61.5s-33.667 57.833 -44 94.5s-15.5 77 -15.5 121c0 54 6.83301 104.667 20.5 152s32.5 88.666 56.5 123.999s52 63.166 84 83.499s66 30.5 102 30.5zM322.001 610.003c-25.333 0 -49.498 -8.83398 -72.498 -26.501
s-43.333 -41.5 -61 -71.5s-31.834 -64.667 -42.501 -104s-16 -80.333 -16 -123c0 -32.667 3.5 -63 10.5 -91s16.667 -52.167 29 -72.5s27 -36.166 44 -47.499s35.5 -17 55.5 -17c26 0 50.5 8.83301 73.5 26.5s43.167 41.5 60.5 71.5s31.166 64.833 41.499 104.5
s15.5 81.5 15.5 125.5c0 32.667 -3.5 62.667 -10.5 90s-16.667 51 -29 71s-26.833 35.667 -43.5 47s-35 17 -55 17z" />
    <glyph glyph-name="one" unicode="1" 
d="M300 0h-74l74 599h-116l39 68h158z" />
    <glyph glyph-name="two" unicode="2" 
d="M454 0l-423.002 0.00292969l270 286c26 27.333 46.833 50.166 62.5 68.499s27.834 34.666 36.501 48.999s14.5 27.666 17.5 39.999s4.5 25.833 4.5 40.5c0 38 -11.167 68.5 -33.5 91.5s-52.166 34.5 -89.499 34.5c-41.333 0 -73.666 -13 -96.999 -39
s-37 -64.667 -41 -116h-70c2.66699 34.667 7 62.5 13 83.5s15.667 40.5 29 58.5c19.333 26 43.5 46 72.5 60s60.833 21 95.5 21c28.667 0 55 -4.66699 79 -14s44.5 -22.5 61.5 -39.5s30.167 -37.167 39.5 -60.5s14 -49.333 14 -78c0 -18.667 -1.83301 -36.167 -5.5 -52.5
s-10.334 -33 -20.001 -50s-22.5 -35.333 -38.5 -55s-36 -42.167 -60 -67.5l-185 -193h276z" />
    <glyph glyph-name="three" unicode="3" 
d="M126 168c2.66699 -36 14.1641 -63.5 34.4971 -82.5s49.5 -28.5 87.5 -28.5c20 0 38.333 3.5 55 10.5s31.167 16.667 43.5 29s21.833 27 28.5 44s10 35.5 10 55.5c0 38.667 -10.667 67.667 -32 87s-54.666 30.666 -99.999 33.999l8 64c4.66699 -0.666992 9 -1 13 -1h11
c35.333 0 63.333 11.167 84 33.5s31 52.5 31 90.5c0 32.667 -9.66699 58.5 -29 77.5s-45.666 28.5 -78.999 28.5c-62.667 0 -98 -35.667 -106 -107h-67c3.33301 28 7.83301 50 13.5 66s13.834 30.667 24.501 44c16.667 20.667 37.167 36.667 61.5 48s51.166 17 80.499 17
c52.667 0 94.834 -15.833 126.501 -47.5s47.5 -73.5 47.5 -125.5c0 -38 -10 -70.667 -30 -98s-49 -47.666 -87 -60.999c68 -28.667 102 -79.667 102 -153c0 -30 -5.16699 -57.5 -15.5 -82.5s-25 -46.5 -44 -64.5s-41.5 -32 -67.5 -42s-54.667 -15 -86 -15
c-56.667 0 -101.5 15.833 -134.5 47.5s-50.5 75.5 -52.5 131.5h68z" />
    <glyph glyph-name="four" unicode="4" 
d="M392 0h-73l15 123h-318l464 591l-65 -526h75l-8 -65h-75zM380 496l-237 -308h199z" />
    <glyph glyph-name="five" unicode="5" 
d="M493 599l-209.996 0.000976562l-57 -158c13.333 2.66699 23.833 4.5 31.5 5.5s16.5 1.5 26.5 1.5c30 0 57.333 -5.16699 82 -15.5s45.667 -24.833 63 -43.5s30.833 -41.334 40.5 -68.001s14.5 -56 14.5 -88c0 -35.333 -6 -67.833 -18 -97.5
s-28.833 -55.334 -50.5 -77.001s-47.167 -38.667 -76.5 -51s-61.666 -18.5 -96.999 -18.5c-51.333 0 -93.333 11.333 -126 34s-60.334 59.667 -83.001 111l60 29c17.333 -37.333 37.333 -64.333 60 -81s51 -25 85 -25c25.333 0 48.666 4.33301 69.999 13
s39.666 20.834 54.999 36.501s27.166 34.334 35.499 56.001s12.5 45.5 12.5 71.5c0 46 -13.667 82.833 -41 110.5s-64.333 41.5 -111 41.5c-10 0 -19.333 -0.5 -28 -1.5s-17.834 -2.83301 -27.501 -5.5s-20.667 -6.33398 -33 -11.001l-45.5 -18l110 317h267z" />
    <glyph glyph-name="six" unicode="6" 
d="M233 428c16 6 30.667 10.332 44 12.999s28 4 44 4c27.333 0 52.666 -5.16699 75.999 -15.5s43.5 -24.666 60.5 -42.999s30.333 -40 40 -65s14.5 -52.167 14.5 -81.5c0 -35.333 -6.16699 -68.333 -18.5 -99s-29.333 -57.167 -51 -79.5s-47.167 -40 -76.5 -53
s-61 -19.5 -95 -19.5c-30.667 0 -59.167 5.5 -85.5 16.5s-49.166 26.333 -68.499 46s-34.5 43 -45.5 70s-16.5 56.167 -16.5 87.5c0 34.667 7.5 69.5 22.5 104.5s40.5 75.5 76.5 121.5l199 258l54 -44zM296 382.999c-23.333 0 -45.334 -4.5 -66.001 -13.5
s-38.5 -21.333 -53.5 -37s-26.833 -34.167 -35.5 -55.5s-13 -44.333 -13 -69c0 -22 3.66699 -42.167 11 -60.5s17.5 -34.333 30.5 -48s28.333 -24.167 46 -31.5s37.167 -11 58.5 -11c22.667 0 44 4.5 64 13.5s37.5 21.5 52.5 37.5s26.833 34.667 35.5 56s13 44 13 68
c0 22 -3.5 42.167 -10.5 60.5s-16.833 34.333 -29.5 48s-27.667 24.167 -45 31.5s-36.666 11 -57.999 11z" />
    <glyph glyph-name="seven" unicode="7" 
d="M126 -15l-60 38l380 576h-343l9 68h463z" />
    <glyph glyph-name="eight" unicode="8" 
d="M385 349c34.667 -18.667 59.6689 -40.6689 75.002 -66.002s23 -57 23 -95c0 -28.667 -5.16699 -55.167 -15.5 -79.5s-24.833 -45.333 -43.5 -63s-40.667 -31.5 -66 -41.5s-53 -15 -83 -15c-29.333 0 -56.333 4.66699 -81 14s-45.834 22.166 -63.501 38.499
s-31.5 36 -41.5 59s-15 47.833 -15 74.5c0 86.667 46 147.667 138 183c-30 19.333 -51.667 40.333 -65 63s-20 49.334 -20 80.001c0 25.333 4.83301 48.833 14.5 70.5s23.167 40.334 40.5 56.001s37.666 28 60.999 37s49 13.5 77 13.5c26.667 0 51 -4.16699 73 -12.5
s41 -20 57 -35s28.333 -32.833 37 -53.5s13 -43.667 13 -69c0 -38 -9.16699 -69.667 -27.5 -95s-47.5 -46.666 -87.5 -63.999zM316.002 609.998c-16 0 -31.002 -3 -45.002 -9s-26.333 -14.333 -37 -25s-19 -23 -25 -37s-9 -29 -9 -45c0 -14.667 2.83301 -28.5 8.5 -41.5
s13.334 -24.333 23.001 -34s21.167 -17.334 34.5 -23.001s27.333 -8.5 42 -8.5c16.667 0 32.334 3 47.001 9s27.334 14.333 38.001 25s19 23.167 25 37.5s9 29.833 9 46.5c0 30.667 -10.333 55.834 -31 75.501s-47.334 29.5 -80.001 29.5zM286 315.998
c-20 0 -38.333 -3.5 -55 -10.5s-31.334 -16.5 -44.001 -28.5s-22.5 -26.333 -29.5 -43s-10.5 -34.667 -10.5 -54c0 -36 11.833 -65.5 35.5 -88.5s53.834 -34.5 90.501 -34.5c20 0 38.333 3.5 55 10.5s31 16.5 43 28.5s21.5 26.333 28.5 43s10.5 34.667 10.5 54
c0 36 -11.667 65.5 -35 88.5s-53 34.5 -89 34.5z" />
    <glyph glyph-name="nine" unicode="9" 
d="M350 238c-17.333 -7.33301 -31.335 -12.167 -42.002 -14.5s-23.667 -3.5 -39 -3.5c-28.667 0 -55.167 5 -79.5 15s-45.166 23.833 -62.499 41.5s-31 38.834 -41 63.501s-15 51.667 -15 81c0 36 6.33301 69.5 19 100.5s29.834 58.167 51.501 81.5
s47.167 41.666 76.5 54.999s61 20 95 20c30.667 0 59.167 -5.5 85.5 -16.5s49 -26.333 68 -46s34 -43 45 -70s16.5 -56.167 16.5 -87.5c0 -18 -1.66699 -35.333 -5 -52s-9 -34 -17 -52s-18.333 -36.833 -31 -56.5s-28 -41.5 -46 -65.5l-198 -256l-54 43zM310.998 609.999
c-22.667 0 -44.167 -4.83105 -64.5 -14.498s-38 -22.834 -53 -39.501s-27 -36 -36 -58s-13.5 -45.333 -13.5 -70c0 -21.333 3.5 -40.833 10.5 -58.5s16.833 -33 29.5 -46s27.834 -23.167 45.501 -30.5s36.834 -11 57.501 -11c23.333 0 45.333 4.5 66 13.5
s38.5 21.167 53.5 36.5s26.833 33.666 35.5 54.999s13 44 13 68c0 22 -3.66699 42.5 -11 61.5s-17.333 35.5 -30 49.5s-27.834 24.833 -45.501 32.5s-36.834 11.5 -57.501 11.5z" />
    <glyph glyph-name="colon" unicode=":" horiz-adv-x="240" 
d="M97 87c13.333 0 24.666 -4.50098 33.999 -13.501s14 -20.167 14 -33.5s-4.83301 -24.666 -14.5 -33.999s-21.167 -14 -34.5 -14s-24.5 4.83301 -33.5 14.5s-13.167 21.167 -12.5 34.5s5.33398 24.333 14.001 33s19.667 13 33 13zM138 421.999
c13.333 0 24.666 -4.50098 33.999 -13.501s14 -20.167 14 -33.5s-4.83301 -24.666 -14.5 -33.999s-21.167 -14 -34.5 -14s-24.5 4.83301 -33.5 14.5s-13.167 21.167 -12.5 34.5s5.33398 24.333 14.001 33s19.667 13 33 13z" />
    <glyph glyph-name="semicolon" unicode=";" horiz-adv-x="240" 
d="M131 423c13.333 0 24.666 -4.50098 33.999 -13.501s14 -20.167 14 -33.5s-4.83301 -24.666 -14.5 -33.999s-21.167 -14 -34.5 -14s-24.5 4.83301 -33.5 14.5s-13.167 21.167 -12.5 34.5s5.33398 24.333 14.001 33s19.667 13 33 13zM8 -135.001l-46 25l124 234l60 -33z
" />
    <glyph glyph-name="less" unicode="&#x3c;" horiz-adv-x="500" 
d="M478 498l-353 -161l353 -162v-74l-433 203v65l433 204v-75z" />
    <glyph glyph-name="equal" unicode="=" 
d="M62 430h471v-60h-471v60zM62 310h471v-60h-471v60z" />
    <glyph glyph-name="greater" unicode="&#x3e;" horiz-adv-x="500" 
d="M46 175l353 162l-353 161v75l433 -204v-65l-433 -203v74z" />
    <glyph glyph-name="question" unicode="?" horiz-adv-x="452" 
d="M209 87c13.333 0 24.501 -4.5 33.501 -13.5s13.5 -20.167 13.5 -33.5s-4.5 -24.666 -13.5 -33.999s-19.833 -14 -32.5 -14c-14 0 -25.667 4.66699 -35 14s-14 20.666 -14 33.999s4.66699 24.5 14 33.5s20.666 13.5 33.999 13.5zM387.001 283
c-4 -46 -18.5 -81.4971 -43.5 -106.497s-58.833 -37.5 -101.5 -37.5c-20.667 0 -40 3.5 -58 10.5s-33.333 16.833 -46 29.5s-22.667 27.5 -30 44.5s-11 35.833 -11 56.5c0 36 12 66.333 36 91s62.667 46.667 116 66c39.333 14 66.333 28.167 81 42.5s22 32.833 22 55.5
c0 25.333 -8.33301 45.833 -25 61.5s-38.334 23.5 -65.001 23.5c-31.333 0 -54.166 -9.5 -68.499 -28.5s-21.833 -49.5 -22.5 -91.5h-69c0.666992 33.333 3.5 59.333 8.5 78s13.833 35.667 26.5 51c30 35.333 72 53 126 53c24 0 45.833 -3.5 65.5 -10.5s36.5 -17 50.5 -30
s25 -28.667 33 -47s12 -38.5 12 -60.5c0 -37.333 -10.333 -67.833 -31 -91.5s-54.667 -43.834 -102 -60.501c-24 -8.66699 -43.833 -16.834 -59.5 -24.501s-28.167 -15.5 -37.5 -23.5s-15.833 -16.833 -19.5 -26.5s-5.5 -20.834 -5.5 -33.501
c0 -21.333 6.83301 -38.5 20.5 -51.5s31.5 -19.5 53.5 -19.5c44.667 0 69 26.667 73 80h71z" />
    <glyph glyph-name="at" unicode="@" horiz-adv-x="720" 
d="M531 281c-1.33301 -9.33301 -2.16797 -16.832 -2.50098 -22.499s-0.5 -14.167 -0.5 -25.5c0 -20.667 9.33301 -31 28 -31c12 0 23.667 4.83301 35 14.5s21.333 22.5 30 38.5s15.667 34.333 21 55s8 42.334 8 65.001c0 36 -6.5 69.167 -19.5 99.5s-31 56.333 -54 78
s-50.5 38.5 -82.5 50.5s-67.333 18 -106 18c-39.333 0 -76.166 -7.5 -110.499 -22.5s-64.166 -35.5 -89.499 -61.5s-45.333 -56.5 -60 -91.5s-22 -72.833 -22 -113.5c0 -42 7.16699 -80.5 21.5 -115.5s34.666 -65 60.999 -90s57.833 -44.5 94.5 -58.5s77 -21 121 -21
c20.667 0 39.334 0.833008 56.001 2.5s33.334 4.5 50.001 8.5s34 9.66699 52 17s38.333 16.333 61 27l21 -56c-21.333 -10.667 -41.666 -19.667 -60.999 -27s-38.5 -13.333 -57.5 -18s-38.5 -8 -58.5 -10s-41 -3 -63 -3c-52.667 0 -101.167 8.5 -145.5 25.5
s-82.5 40.833 -114.5 71.5s-56.833 67 -74.5 109s-26.5 88.333 -26.5 139c0 48.667 8.83301 94.167 26.5 136.5s42.167 79 73.5 110s68.166 55.333 110.499 73s87.833 26.5 136.5 26.5c45.333 0 87.5 -7.5 126.5 -22.5s72.667 -35.833 101 -62.5s50.5 -58.334 66.5 -95.001
s24 -76.334 24 -119.001c0 -32 -4.33301 -62.5 -13 -91.5s-20.334 -54.5 -35.001 -76.5s-31.834 -39.333 -51.501 -52s-40.5 -19 -62.5 -19c-35.333 0 -59 19.667 -71 59c-20 -22.667 -39.167 -38.5 -57.5 -47.5s-40.166 -13.5 -65.499 -13.5c-24 0 -46.333 4.5 -67 13.5
s-38.5 21.667 -53.5 38s-26.667 35.5 -35 57.5s-12.5 46 -12.5 72c0 28.667 4.66699 55 14 79s22.5 44.667 39.5 62s37.167 30.833 60.5 40.5s48.666 14.5 75.999 14.5c46 0 84.333 -18.667 115 -56l5 48h64zM375.998 453.001c-16.667 0 -32.167 -3.50195 -46.5 -10.502
s-26.833 -16.5 -37.5 -28.5s-19 -26.167 -25 -42.5s-9 -34.166 -9 -53.499c0 -34 9.16699 -61.833 27.5 -83.5s41.833 -32.5 70.5 -32.5c16 0 31.333 3.83301 46 11.5s27.5 18.167 38.5 31.5s19.833 28.833 26.5 46.5s10 36.5 10 56.5c0 30.667 -9.33301 55.834 -28 75.501
s-43 29.5 -73 29.5z" />
    <glyph glyph-name="A" unicode="A" horiz-adv-x="617" 
d="M83 0h-81l371 707l206 -707h-76l-52 186h-271zM430 254l-75 273l-140 -273h215z" />
    <glyph glyph-name="B" unicode="B" horiz-adv-x="526" 
d="M263 667c30.667 0 55.499 -2 74.499 -6s35.5 -10.667 49.5 -20c20.667 -12.667 37.167 -31.5 49.5 -56.5s18.5 -51.5 18.5 -79.5c0 -73.333 -32.333 -126.333 -97 -159c42 -11.333 72.667 -29.666 92 -54.999s29 -59 29 -101c0 -34 -7.66699 -65.333 -23 -94
s-36.666 -51.334 -63.999 -68.001c-17.333 -10 -37 -17.167 -59 -21.5s-51.333 -6.5 -88 -6.5h-183l82 667h119zM180.999 371l51.998 0.000976562c16.667 0 30.834 0.5 42.501 1.5s21.834 2.83301 30.501 5.5s16.167 6.16699 22.5 10.5s12.5 9.83301 18.5 16.5
c24 25.333 36 58 36 98c0 33.333 -9.83301 57.666 -29.5 72.999s-50.5 23 -92.5 23h-52zM143.997 68.001l106.001 -0.000976562c32 0 56.5 2.33301 73.5 7s31.5 12.667 43.5 24c11.333 11.333 20.333 25.333 27 42s10 34.334 10 53.001c0 19.333 -3.83301 36.833 -11.5 52.5
s-18.167 28.167 -31.5 37.5c-12.667 8.66699 -26.834 14.5 -42.501 17.5s-39.5 4.5 -71.5 4.5h-74z" />
    <glyph glyph-name="C" unicode="C" horiz-adv-x="643" 
d="M623 511c-26 32 -58 56.501 -96 73.501s-79.667 25.5 -125 25.5c-37.333 0 -72 -7.33301 -104 -22s-59.833 -35 -83.5 -61s-42.167 -56.833 -55.5 -92.5s-20 -74.167 -20 -115.5c0 -40.667 5.83301 -77.167 17.5 -109.5s28.5 -59.833 50.5 -82.5s48.833 -40 80.5 -52
s67.167 -18 106.5 -18c36.667 0 69.834 5.33301 99.501 16s58.5 27.667 86.5 51l-11 -89c-34 -17.333 -65.333 -29.666 -94 -36.999s-60 -11 -94 -11c-46.667 0 -89.5 8 -128.5 24s-72.5 38.667 -100.5 68s-49.667 64.333 -65 105s-23 85.334 -23 134.001
c0 51.333 8.5 99.166 25.5 143.499s40.5 82.666 70.5 114.999s65.333 57.666 106 75.999s84.667 27.5 132 27.5s89.166 -6.5 125.499 -19.5s72.833 -34.833 109.5 -65.5z" />
    <glyph glyph-name="D" unicode="D" horiz-adv-x="635" 
d="M278 667c47.333 0 85.166 -2.83203 113.499 -8.49902s53.833 -15.5 76.5 -29.5c40.667 -25.333 72.667 -62 96 -110s35 -101.667 35 -161c0 -38 -4.66699 -74.333 -14 -109s-22.666 -66.5 -39.999 -95.5s-38 -54.333 -62 -76s-51 -38.834 -81 -51.501
c-12 -4.66699 -24 -8.66699 -36 -12s-25 -6 -39 -8s-29.833 -3.5 -47.5 -4.5s-38.5 -1.5 -62.5 -1.5h-155l82 667h134zM144 68.001h83.001c46 0 82.5 3.16699 109.5 9.5s51.833 17.166 74.5 32.499c16.667 12 32 27 46 45s26 38 36 60s17.667 45.333 23 70s8 49.667 8 75
c0 54 -11 100.833 -33 140.5s-52 66.834 -90 81.501c-14.667 6 -31.334 10.333 -50.001 13s-41.667 4 -69 4h-73z" />
    <glyph glyph-name="E" unicode="E" horiz-adv-x="467" 
d="M462 599h-253l-25 -204h253l-8 -68h-253l-32 -259h253l-8 -68h-327l82 667h327z" />
    <glyph glyph-name="F" unicode="F" horiz-adv-x="431" 
d="M440 599h-231l-25 -203h231l-8 -68h-231l-41 -328h-73l82 667h304z" />
    <glyph glyph-name="G" unicode="G" horiz-adv-x="745" 
d="M706 319c-5.33301 -52 -16.8301 -98.665 -34.4971 -139.998s-40.5 -76.166 -68.5 -104.499s-60.667 -50 -98 -65s-79 -22.5 -125 -22.5c-44.667 0 -86.334 8.16699 -125.001 24.5s-72.334 39 -101.001 68s-51 63 -67 102s-24 81.5 -24 127.5
c0 53.333 8.66699 102.666 26 147.999s41.166 84.5 71.499 117.5s66.5 58.833 108.5 77.5s87.667 28 137 28c62.667 0 117 -12.667 163 -38s86.333 -64.333 121 -117l-51 -45c-52.667 86.667 -131 130 -235 130c-38.667 0 -74.334 -7.33301 -107.001 -22
s-60.667 -35.334 -84 -62.001s-41.666 -58.167 -54.999 -94.5s-20 -76.5 -20 -120.5c0 -36.667 6.16699 -70.5 18.5 -101.5s29.333 -57.833 51 -80.5s47.5 -40.334 77.5 -53.001s62.667 -19 98 -19c62.667 0 114.667 16.667 156 50s69.333 81.333 84 144h-198l8 68h273z" />
    <glyph glyph-name="H" unicode="H" horiz-adv-x="650" 
d="M531 0h-73l41 332h-323l-41 -332h-73l82 667h73l-32 -267h322l33 267h74z" />
    <glyph glyph-name="I" unicode="I" horiz-adv-x="254" 
d="M135 0h-73l82 667h74z" />
    <glyph glyph-name="J" unicode="J" horiz-adv-x="359" 
d="M266 203c-2.66699 -22.667 -5.33105 -42.168 -7.99805 -58.501s-5.5 -30.5 -8.5 -42.5s-6.33301 -22.333 -10 -31s-7.83398 -16.667 -12.501 -24c-26.667 -40 -64.667 -60 -114 -60c-51.333 0 -93.666 23.333 -126.999 70l45 52c14 -19.333 26.667 -32.833 38 -40.5
s24.666 -11.5 39.999 -11.5c12.667 0 23.5 2.33301 32.5 7s16.833 12.667 23.5 24s12.167 26.333 16.5 45s8.16602 42.334 11.499 71.001l57 463h73z" />
    <glyph glyph-name="K" unicode="K" horiz-adv-x="569" 
d="M182 377l298 290h96l-329 -314l284 -353h-94l-261 329l-41 -329h-73l82 667h73z" />
    <glyph glyph-name="L" unicode="L" horiz-adv-x="384" 
d="M144 68h203l-8 -68h-277l82 667h73z" />
    <glyph glyph-name="M" unicode="M" horiz-adv-x="888" 
d="M296 708l147 -562l288 567l96 -713h-73l-65 490l-268 -520l-134 518l-191 -488h-77z" />
    <glyph glyph-name="N" unicode="N" horiz-adv-x="742" 
d="M620 -33l-421 550l-64 -517h-73l86 696l420 -549l64 520h74z" />
    <glyph glyph-name="O" unicode="O" horiz-adv-x="785" 
d="M412 680c50 0 95.6689 -7.83398 137.002 -23.501s76.833 -37.834 106.5 -66.501s52.5 -63 68.5 -103s24 -84.333 24 -133c0 -52.667 -8.83301 -101.5 -26.5 -146.5s-42.167 -83.833 -73.5 -116.5s-68.333 -58.167 -111 -76.5s-89.334 -27.5 -140.001 -27.5
c-48.667 0 -93.334 8.16699 -134.001 24.5s-75.667 39 -105 68s-52.333 63.5 -69 103.5s-25 83.667 -25 131c0 52.667 8.83301 101.334 26.5 146.001s42 83.334 73 116.001s67.667 58.167 110 76.5s88.5 27.5 138.5 27.5zM417.002 609.999
c-40 0 -76.833 -7.33301 -110.5 -22s-63 -34.834 -88 -60.501s-44.5 -56.167 -58.5 -91.5s-21 -73.666 -21 -114.999c0 -38 6.5 -73.167 19.5 -105.5s31 -60.333 54 -84s50.333 -42 82 -55s66.167 -19.5 103.5 -19.5c40 0 76.667 7.5 110 22.5s62.333 35.667 87 62
s43.834 57.666 57.501 93.999s20.5 75.833 20.5 118.5c0 38.667 -6 73.834 -18 105.501s-29.167 58.667 -51.5 81s-49.333 39.5 -81 51.5s-66.834 18 -105.501 18z" />
    <glyph glyph-name="P" unicode="P" horiz-adv-x="480" 
d="M271 667c64.667 0 113.999 -14.998 147.999 -44.998s51 -73.667 51 -131c0 -38.667 -8.66699 -73.334 -26 -104.001s-41.666 -54.667 -72.999 -72c-16.667 -8.66699 -35 -14.834 -55 -18.501s-45.667 -5.5 -77 -5.5h-68l-36 -291h-73l82 667h127zM179.999 359.002h63.999
c48.667 0 86 11.333 112 34s39 55 39 97c0 36 -10.667 63.167 -32 81.5s-52.666 27.5 -93.999 27.5h-60z" />
    <glyph glyph-name="Q" unicode="Q" horiz-adv-x="783" 
d="M630 -27l-56.9971 62c-30.667 -17.333 -59.5 -29.666 -86.5 -36.999s-56.833 -11 -89.5 -11c-48 0 -92.5 8.16699 -133.5 24.5s-76.167 39.166 -105.5 68.499s-52.333 64 -69 104s-25 83.667 -25 131c0 53.333 8.66699 102.333 26 147s41.666 83.167 72.999 115.5
s68.666 57.5 111.999 75.5s90.666 27 141.999 27c48.667 0 93.167 -8.16699 133.5 -24.5s75 -39 104 -68s51.667 -63.667 68 -104s24.5 -84.5 24.5 -132.5c0 -110.667 -40.667 -204 -122 -280l91 -98h-86zM497.003 208l83 -87.999c30 28 52.833 61.333 68.5 100
s23.5 81 23.5 127c0 39.333 -6.16699 75.166 -18.5 107.499s-29.5 60 -51.5 83s-48.667 40.833 -80 53.5s-66 19 -104 19c-40.667 0 -78 -7.16699 -112 -21.5s-63.333 -34.5 -88 -60.5s-44 -56.667 -58 -92s-21 -74 -21 -116c0 -38.667 6.33301 -74 19 -106
s30.5 -59.667 53.5 -83s50.333 -41.5 82 -54.5s66.167 -19.5 103.5 -19.5c24 0 45.5 2.16699 64.5 6.5s40.167 11.833 63.5 22.5l-113 122h85z" />
    <glyph glyph-name="R" unicode="R" horiz-adv-x="513" 
d="M455 0l-82 0.000976562l-175 295h-26l-37 -295h-73l82 667h109c34 0 62 -2.83301 84 -8.5s41.333 -14.834 58 -27.501c19.333 -15.333 34.5 -35.333 45.5 -60s16.5 -51 16.5 -79c0 -54 -16.333 -98.167 -49 -132.5s-78 -54.5 -136 -60.5zM179 355.001l42.001 0.000976562
c30 0 54.167 2.66699 72.5 8s34.166 14 47.499 26c12.667 12 22.667 27.167 30 45.5s11 37.166 11 56.499c0 72 -43.333 108 -130 108h-43z" />
    <glyph glyph-name="S" unicode="S" horiz-adv-x="482" 
d="M413 528c-15.333 28.667 -32.3359 49.666 -51.0029 62.999s-41.334 20 -68.001 20c-16 0 -30.833 -2.83301 -44.5 -8.5s-25.5 -13.334 -35.5 -23.001s-18 -21.167 -24 -34.5s-9 -27.666 -9 -42.999c0 -12 1.5 -23 4.5 -33s8.5 -19.667 16.5 -29s18.833 -19 32.5 -29
s30.834 -21.333 51.501 -34c28.667 -16.667 52.334 -32.5 71.001 -47.5s33.667 -30.167 45 -45.5s19.333 -31.333 24 -48s7 -35.667 7 -57c0 -28 -5 -53.667 -15 -77s-23.833 -43.5 -41.5 -60.5s-38.667 -30.333 -63 -40s-51.166 -14.5 -80.499 -14.5
c-92 0 -159.333 47.333 -202 142l58 35c15.333 -38 34.333 -65.333 57 -82s51.334 -25 86.001 -25c38 0 68.5 11.833 91.5 35.5s34.5 55.167 34.5 94.5c0 13.333 -1.83301 25.333 -5.5 36s-9.83398 21.167 -18.501 31.5s-20.334 21 -35.001 32s-33 23.167 -55 36.5
c-26.667 16 -48.667 30.833 -66 44.5s-31.166 27.5 -41.499 41.5s-17.666 28.667 -21.999 44s-6.5 32.666 -6.5 51.999c0 25.333 4.66699 48.833 14 70.5s22.333 40.334 39 56.001s36.5 27.834 59.5 36.501s47.833 13 74.5 13c38 0 70.333 -8.5 97 -25.5
s50.667 -44.5 72 -82.5z" />
    <glyph glyph-name="T" unicode="T" horiz-adv-x="419" 
d="M221 0h-73l74 599h-166l8 68h400l-9 -68h-160z" />
    <glyph glyph-name="U" unicode="U" horiz-adv-x="659" 
d="M573 258c-5.33301 -41.333 -11.9951 -75.168 -19.9951 -101.501s-18.667 -49.5 -32 -69.5c-22.667 -32.667 -50.667 -57.5 -84 -74.5s-71.333 -25.5 -114 -25.5c-34 0 -65.333 5 -94 15s-53.334 24.167 -74.001 42.5s-36.667 40.166 -48 65.499s-17 53 -17 83
c0 12.667 0.333008 24.167 1 34.5s1.66699 21.833 3 34.5l50 405h73l-50 -413c-1.33301 -9.33301 -2.33301 -18.666 -3 -27.999s-1 -17 -1 -23c0 -45.333 14.167 -81 42.5 -107s66.5 -39 114.5 -39c25.333 0 48.666 4.5 69.999 13.5s39.666 21.833 54.999 38.5
s27.166 36.834 35.499 60.501s15.166 55.5 20.499 95.5l49 402h73z" />
    <glyph glyph-name="V" unicode="V" horiz-adv-x="558" 
d="M241 -22l-177 689h75l125 -506l257 506h81z" />
    <glyph glyph-name="W" unicode="W" horiz-adv-x="914" 
d="M140 667l124 -501l249 520l128 -518l237 499h80l-339 -697l-127 519l-253 -519l-175 697h76z" />
    <glyph glyph-name="X" unicode="X" horiz-adv-x="504" 
d="M463 0h-80l-121 277l-190 -277h-87l244 351l-140 316h79l108 -248l168 248h88l-223 -321z" />
    <glyph glyph-name="Y" unicode="Y" horiz-adv-x="520" 
d="M266 0h-74l38 304l-173 363h80l138 -293l202 293h86l-261 -371z" />
    <glyph glyph-name="Z" unicode="Z" horiz-adv-x="547" 
d="M476 0h-474l442 599h-321l9 68h446l-442 -599h349z" />
    <glyph glyph-name="bracketleft" unicode="[" horiz-adv-x="318" 
d="M148 729h198l-7 -60h-126l-97 -785h126l-7 -60h-198z" />
    <glyph glyph-name="backslash" unicode="\" horiz-adv-x="389" 
d="M248 -180l-175 900l67 13l175 -897z" />
    <glyph glyph-name="bracketright" unicode="]" horiz-adv-x="318" 
d="M182 -176h-198l7 60h126l97 785h-126l7 60h198z" />
    <glyph glyph-name="asciicircum" unicode="^" horiz-adv-x="500" 
d="M36 364l176 305h99l176 -305h-81l-145 245l-144 -245h-81z" />
    <glyph glyph-name="underscore" unicode="_" horiz-adv-x="500" 
d="M512 -64v-69h-500v69h500z" />
    <glyph glyph-name="grave" unicode="`" horiz-adv-x="500" 
d="M237 624l75 -133l-43 -24l-97 119z" />
    <glyph glyph-name="a" unicode="a" horiz-adv-x="523" 
d="M427 0l-70.0039 0.000976562l7 57c-25.333 -25.333 -48 -42.833 -68 -52.5s-44 -14.5 -72 -14.5s-53.5 4.83301 -76.5 14.5s-42.667 23.167 -59 40.5s-29.166 38.166 -38.499 62.499s-14 50.833 -14 79.5c0 32.667 5.33301 62.834 16 90.501s25.334 51.667 44.001 72
s40.834 36.166 66.501 47.499s53.5 17 83.5 17c34 0 62.333 -5.5 85 -16.5s45.334 -30.833 68.001 -59.5l8 66h70zM253.996 350.001c-20.667 0 -40 -4.16797 -58 -12.501s-33.5 -19.666 -46.5 -33.999s-23.167 -31.5 -30.5 -51.5s-11 -41.667 -11 -65
c0 -18.667 3.33301 -36.167 10 -52.5s15.667 -30.5 27 -42.5s25 -21.333 41 -28s33 -10 51 -10c20.667 0 40 4.33301 58 13s33.833 20.5 47.5 35.5s24.5 32.5 32.5 52.5s12 41.333 12 64c0 38.667 -12.333 70.167 -37 94.5s-56.667 36.5 -96 36.5z" />
    <glyph glyph-name="b" unicode="b" horiz-adv-x="529" 
d="M153 352c25.333 23.333 48.333 39.499 69 48.499s45 13.5 73 13.5s53.667 -5 77 -15s43.5 -23.667 60.5 -41s30.333 -38.166 40 -62.499s14.5 -50.833 14.5 -79.5c0 -31.333 -5.5 -60.833 -16.5 -88.5s-26.167 -51.667 -45.5 -72s-41.833 -36.333 -67.5 -48
s-53.5 -17.5 -83.5 -17.5c-33.333 0 -61.833 6 -85.5 18s-47.167 32 -70.5 60l-8 -68h-70l90 729h70zM281 349.999c-21.333 0 -41.168 -4 -59.501 -12s-34.166 -19.333 -47.499 -34s-23.833 -32 -31.5 -52s-11.5 -41.667 -11.5 -65c0 -18.667 3.5 -36.167 10.5 -52.5
s16.5 -30.5 28.5 -42.5s26.167 -21.333 42.5 -28s33.833 -10 52.5 -10c20.667 0 40 4.16699 58 12.5s33.833 19.833 47.5 34.5s24.5 31.5 32.5 50.5s12 39.5 12 61.5c0 40 -12.5 72.833 -37.5 98.5s-57.167 38.5 -96.5 38.5z" />
    <glyph glyph-name="c" unicode="c" horiz-adv-x="411" 
d="M384 287c-21.333 24 -41.668 41.001 -61.001 51.001s-42.666 15 -69.999 15c-20.667 0 -40 -4 -58 -12s-33.333 -19.167 -46 -33.5s-22.667 -31.333 -30 -51s-11 -41.167 -11 -64.5c0 -42 13 -76 39 -102s60 -39 102 -39c20.667 0 39.334 3.33301 56.001 10
s35.334 18.667 56.001 36l-10 -79c-20 -11.333 -38.5 -19.333 -55.5 -24s-36.833 -7 -59.5 -7c-28.667 0 -55.334 5 -80.001 15s-45.834 24 -63.501 42s-31.5 39.5 -41.5 64.5s-15 52.167 -15 81.5c0 32 5.5 61.833 16.5 89.5s26 51.667 45 72s41.333 36.333 67 48
s53.5 17.5 83.5 17.5s55.5 -3.83301 76.5 -11.5s43.833 -21.834 68.5 -42.501z" />
    <glyph glyph-name="d" unicode="d" horiz-adv-x="531" 
d="M435 0l-69.998 0.00195312l7 54c-12.667 -12 -24.5 -22.167 -35.5 -30.5s-21.833 -15 -32.5 -20s-21.834 -8.5 -33.501 -10.5s-24.834 -3 -39.501 -3c-28 0 -53.833 5 -77.5 15s-44.167 23.833 -61.5 41.5s-30.833 38.667 -40.5 63s-14.5 50.833 -14.5 79.5
c0 32 5.5 61.667 16.5 89s26 51.166 45 71.499s41.667 36.166 68 47.499s54.833 17 85.5 17c32 0 59.5 -6.33301 82.5 -19s46.833 -34 71.5 -64l49 398h70zM254.002 350.002c-20 0 -38.834 -4.16797 -56.501 -12.501s-33 -19.666 -46 -33.999s-23.333 -31 -31 -50
s-11.5 -39.5 -11.5 -61.5c0 -41.333 12.167 -74.666 36.5 -99.999s56.5 -38 96.5 -38c20.667 0 40 4.33301 58 13s33.833 20.667 47.5 36s24.334 33.166 32.001 53.499s11.5 41.833 11.5 64.5c0 38 -12.667 69 -38 93s-58.333 36 -99 36z" />
    <glyph glyph-name="e" unicode="e" horiz-adv-x="469" 
d="M108 185c1.33301 -42.667 13.334 -75.6709 36.001 -99.0039s54.334 -35 95.001 -35c46.667 0 84 18 112 54l54 -32c-21.333 -30 -45.333 -51.833 -72 -65.5s-58.334 -20.5 -95.001 -20.5c-30.667 0 -58.334 4.66699 -83.001 14s-45.834 22.833 -63.501 40.5
s-31.334 38.834 -41.001 63.501s-14.5 52 -14.5 82c0 32.667 5.33301 63 16 91s25.334 52.333 44.001 73s40.667 36.834 66 48.501s53 17.5 83 17.5c40.667 0 76.334 -10.667 107.001 -32s52.667 -50.666 66 -87.999c5.33301 -15.333 9 -31.166 11 -47.499
s3 -37.833 3 -64.5h-324zM360.001 242.996c-2.66699 34.667 -14.5 61.667 -35.5 81s-48.5 29 -82.5 29c-67.333 0 -110 -36.667 -128 -110h246z" />
    <glyph glyph-name="f" unicode="f" horiz-adv-x="228" 
d="M110 0h-70.001l43 345h-55l8 63h54l24 196c6 46.667 18.333 80.667 37 102s46 32 82 32c10.667 0 20.167 -1 28.5 -3s19.5 -6.33301 33.5 -13l-8 -64c-9.33301 6 -17.166 10.167 -23.499 12.5s-13.833 3.5 -22.5 3.5c-18 0 -31.333 -6.5 -40 -19.5s-15 -36.5 -19 -70.5
l-22 -176h81l-8 -63h-80z" />
    <glyph glyph-name="g" unicode="g" horiz-adv-x="528" 
d="M431 -6c-2.66699 -22.667 -5.50195 -42.167 -8.50195 -58.5s-6.66699 -30.833 -11 -43.5s-9.16602 -24 -14.499 -34s-12 -19.333 -20 -28c-18 -21.333 -40.667 -37.666 -68 -48.999s-58 -17 -92 -17c-32 0 -61.5 5.16699 -88.5 15.5s-49.167 25.166 -66.5 44.499
c-14 15.333 -23.667 31.666 -29 48.999s-8.33301 41 -9 71h66c2.66699 -40 13.834 -69.333 33.501 -88s49.834 -28 90.501 -28c45.333 0 79.166 11.667 101.499 35s37.166 62 44.499 116l8 70c-25.333 -22 -48.166 -37.333 -68.499 -46s-43.5 -13 -69.5 -13
c-28 0 -53.833 5 -77.5 15s-44 24 -61 42s-30.333 39.333 -40 64s-14.5 51.334 -14.5 80.001c0 31.333 5.5 60.5 16.5 87.5s26.333 50.5 46 70.5s42.667 35.833 69 47.5s54.5 17.5 84.5 17.5c32 0 59 -5.66699 81 -17s45.333 -31.333 70 -60l8 67h70zM258.998 350
c-21.333 0 -41.166 -4 -59.499 -12s-34.166 -19.167 -47.499 -33.5s-23.833 -31.166 -31.5 -50.499s-11.5 -40.333 -11.5 -63c0 -20 3.33301 -38.333 10 -55s16 -31 28 -43s26.333 -21.5 43 -28.5s34.667 -10.5 54 -10.5c21.333 0 41.166 4.16699 59.499 12.5
s34.166 19.666 47.499 33.999s24 31.333 32 51s12 40.5 12 62.5c0 40.667 -12.5 73.5 -37.5 98.5s-57.833 37.5 -98.5 37.5z" />
    <glyph glyph-name="h" unicode="h" horiz-adv-x="462" 
d="M154 359c22.667 21.333 42.501 35.8301 59.501 43.4971s37.5 11.5 61.5 11.5c38 0 68.5 -10.167 91.5 -30.5s34.5 -47.166 34.5 -80.499c0 -6.66699 -0.5 -15.167 -1.5 -25.5s-2.16699 -21.5 -3.5 -33.5l-30 -244h-70l30 245c1.33301 7.33301 2.33301 14.333 3 21
s1 12.667 1 18c1.33301 20.667 -4.66699 36.834 -18 48.501s-32 17.5 -56 17.5c-15.333 0 -30.333 -3 -45 -9s-27.334 -14.333 -38.001 -25c-10.667 -11.333 -18.5 -23.666 -23.5 -36.999s-9.16699 -33 -12.5 -59l-27 -220h-70l90 729h70z" />
    <glyph glyph-name="i" unicode="i" horiz-adv-x="206" 
d="M149 623c11.333 0 21.333 -4 30 -12s13 -17.333 13 -28c0 -13.333 -4.33301 -24.5 -13 -33.5s-19.667 -13.5 -33 -13.5c-11.333 0 -21 4.16699 -29 12.5s-12 18.833 -12 31.5c0 11.333 4.5 21.333 13.5 30s19.167 13 30.5 13zM110 0h-70l50 404h70z" />
    <glyph glyph-name="j" unicode="j" horiz-adv-x="206" 
d="M148 623c11.333 0 21.166 -3.99902 29.499 -11.999s12.5 -17.667 12.5 -29c0 -12 -4.33301 -22.5 -13 -31.5s-19 -13.5 -31 -13.5c-11.333 0 -21.166 4.16699 -29.499 12.5s-12.5 18.166 -12.5 29.499c0 12 4.33301 22.333 13 31s19 13 31 13zM81 -232.999h-70l78 637h70
z" />
    <glyph glyph-name="k" unicode="k" horiz-adv-x="431" 
d="M140 240l187 164h97l-221 -186l199 -218h-92l-176 198l-24 -198h-70l90 729h70z" />
    <glyph glyph-name="l" unicode="l" horiz-adv-x="206" 
d="M110 0h-70l90 729h70z" />
    <glyph glyph-name="m" unicode="m" horiz-adv-x="678" 
d="M155 355c22 22.667 41.499 38.1689 58.499 46.502s37.167 12.5 60.5 12.5c26 0 46.5 -5.33301 61.5 -16s27.5 -29 37.5 -55c23.333 27.333 44 46 62 56s39.667 15 65 15c36 0 64.333 -9.66699 85 -29s31 -45.333 31 -78c0 -8.66699 -0.5 -18.5 -1.5 -29.5
s-2.16699 -22.833 -3.5 -35.5l-30 -242h-70l31 247c2 16 3 30.333 3 43c0 19.333 -5.5 34.166 -16.5 44.499s-26.5 15.5 -46.5 15.5c-61.333 0 -97 -39 -107 -117l-28 -233h-70l29 241c1.33301 11.333 2.5 21.833 3.5 31.5s1.5 16.5 1.5 20.5
c0 17.333 -5.66699 31.166 -17 41.499s-26.666 15.5 -45.999 15.5c-63.333 0 -100 -40.333 -110 -121l-28 -229h-70l50 404h71z" />
    <glyph glyph-name="n" unicode="n" horiz-adv-x="464" 
d="M153 354c12.667 11.333 24.002 20.832 34.002 28.499s19.833 13.834 29.5 18.501s19.5 8 29.5 10s21 3 33 3c36.667 0 66.167 -10.667 88.5 -32s33.5 -50 33.5 -86c0 -17.333 -2 -41 -6 -71l-27 -225h-70l29 236c1.33301 9.33301 2.33301 18.666 3 27.999s1 16.333 1 21
c0 43.333 -24.333 65 -73 65c-14 0 -28.333 -3 -43 -9s-27.334 -14 -38.001 -24c-12.667 -12 -21.834 -25.167 -27.501 -39.5s-10.167 -36.166 -13.5 -65.499l-26 -212h-70l50 404h70z" />
    <glyph glyph-name="o" unicode="o" horiz-adv-x="513" 
d="M262 417c30 0 57.833 -5.16309 83.5 -15.4961s47.667 -24.833 66 -43.5s32.666 -40.834 42.999 -66.501s15.5 -53.834 15.5 -84.501c0 -31.333 -5.5 -60.333 -16.5 -87s-26.333 -49.834 -46 -69.501s-42.667 -35.167 -69 -46.5s-55.166 -17 -86.499 -17
c-30.667 0 -59.167 5.33301 -85.5 16s-49 25.167 -68 43.5s-34 40.166 -45 65.499s-16.5 53 -16.5 83c0 31.333 5.83301 60.5 17.5 87.5s27.5 50.5 47.5 70.5s43.667 35.667 71 47s57 17 89 17zM259 353.004c-21.333 0 -41.168 -4 -59.501 -12s-34.166 -19 -47.499 -33
s-23.833 -30.5 -31.5 -49.5s-11.5 -39.5 -11.5 -61.5c0 -20.667 3.66699 -40 11 -58s17.333 -33.5 30 -46.5s27.667 -23.167 45 -30.5s36 -11 56 -11c21.333 0 41 3.83301 59 11.5s33.5 18.5 46.5 32.5s23.167 30.667 30.5 50s11 40.333 11 63
c0 42.667 -12.833 77.5 -38.5 104.5s-59.167 40.5 -100.5 40.5z" />
    <glyph glyph-name="p" unicode="p" horiz-adv-x="527" 
d="M153 349c13.333 12.667 25.5 23.168 36.5 31.501s22 15 33 20s22.333 8.5 34 10.5s24.5 3 38.5 3c27.333 0 52.5 -5 75.5 -15s43 -23.833 60 -41.5s30.333 -38.667 40 -63s14.5 -50.5 14.5 -78.5c0 -31.333 -5.5 -60.833 -16.5 -88.5s-26.167 -51.667 -45.5 -72
s-42 -36.333 -68 -48s-54 -17.5 -84 -17.5c-16.667 0 -31.667 1.33301 -45 4s-25.833 7 -37.5 13s-23.167 14.167 -34.5 24.5s-23.333 23.166 -36 38.499l-37 -303h-70l78 637h70zM283 350.001c-21.333 0 -41.166 -4.16895 -59.499 -12.502s-34.333 -19.666 -48 -33.999
s-24.5 -31.166 -32.5 -50.499s-12 -40 -12 -62c0 -40 12.333 -72.833 37 -98.5s56.334 -38.5 95.001 -38.5c22 0 42.167 3.83301 60.5 11.5s34.166 18.5 47.499 32.5s23.666 30.5 30.999 49.5s11 39.833 11 62.5c0 41.333 -12.167 75 -36.5 101s-55.5 39 -93.5 39z" />
    <glyph glyph-name="q" unicode="q" horiz-adv-x="530" 
d="M405 -233h-70.001l35 284c-24.667 -22.667 -47.667 -38.5 -69 -47.5s-46 -13.5 -74 -13.5c-26.667 0 -51.667 5 -75 15s-43.666 23.833 -60.999 41.5s-30.833 38.5 -40.5 62.5s-14.5 50 -14.5 78c0 32 5.5 61.833 16.5 89.5s26.167 51.667 45.5 72s42 36.333 68 48
s54.333 17.5 85 17.5c34 0 62.333 -5.83301 85 -17.5s45.667 -32.5 69 -62.5l9 70h70zM257.999 350c-21.333 0 -41.168 -4.16992 -59.501 -12.5029s-34.166 -19.666 -47.499 -33.999s-23.833 -31.333 -31.5 -51s-11.5 -41.167 -11.5 -64.5
c0 -19.333 3.33301 -37.166 10 -53.499s16 -30.5 28 -42.5s26.167 -21.333 42.5 -28s33.833 -10 52.5 -10c21.333 0 41.166 4.33301 59.499 13s34.333 20.334 48 35.001s24.5 32 32.5 52s12 41.333 12 64c0 18.667 -3.5 36 -10.5 52s-16.5 30 -28.5 42
s-26.167 21.333 -42.5 28s-34.166 10 -53.499 10z" />
    <glyph glyph-name="r" unicode="r" horiz-adv-x="315" 
d="M154 358c20.667 21.333 38.832 36 54.499 44s33.167 12 52.5 12c12.667 0 23.5 -1.5 32.5 -4.5s20.167 -9.16699 33.5 -18.5l-43 -58c-18 9.33301 -34 14 -48 14c-55.333 0 -88.666 -46.333 -99.999 -139l-26 -208h-70l50 404h70z" />
    <glyph glyph-name="s" unicode="s" horiz-adv-x="347" 
d="M273 323c-26.667 20.667 -52.333 30.999 -77 30.999c-19.333 0 -35.333 -5.16699 -48 -15.5s-19 -23.166 -19 -38.499c0 -13.333 4.66699 -24.666 14 -33.999s28.333 -20.666 57 -33.999c37.333 -18 63.166 -35.5 77.499 -52.5s21.5 -39.167 21.5 -66.5
c0 -37.333 -13.5 -67.666 -40.5 -90.999s-61.833 -35 -104.5 -35c-30.667 0 -57 6.83301 -79 20.5s-41.667 35.5 -59 65.5l53 33c12 -19.333 24.667 -33.333 38 -42s29.333 -13 48 -13c21.333 0 38.5 5.5 51.5 16.5s19.5 26.167 19.5 45.5c0 7.33301 -1 13.666 -3 18.999
s-5.66699 10.5 -11 15.5s-13.166 10.333 -23.499 16s-23.5 12.5 -39.5 20.5c-33.333 15.333 -57 31.666 -71 48.999s-21 38.666 -21 63.999c0 17.333 3.5 33.5 10.5 48.5s16.667 27.833 29 38.5s27 19 44 25s35.5 9 55.5 9c23.333 0 44.5 -4 63.5 -12
s38.167 -21.333 57.5 -40z" />
    <glyph glyph-name="t" unicode="t" horiz-adv-x="230" 
d="M115 0h-70l42 345h-50l8 63h50l20 167h70l-20 -167h80l-8 -63h-80z" />
    <glyph glyph-name="u" unicode="u" horiz-adv-x="464" 
d="M389 166c-4.66699 -34.667 -10.1709 -60.833 -16.5039 -78.5s-16.166 -33.5 -29.499 -47.5c-15.333 -16 -34.333 -28.333 -57 -37s-47.334 -13 -74.001 -13c-47.333 0 -84.666 12.333 -111.999 37s-41 58 -41 100c0 16 1 33.333 3 52l28 225h70l-28 -232
c-1.33301 -8 -2.16602 -15.167 -2.49902 -21.5s-0.5 -13.833 -0.5 -22.5c0 -22.667 7.83301 -40.667 23.5 -54s36.834 -20 63.501 -20c32 0 55.833 8.16699 71.5 24.5s25.834 43.833 30.501 82.5l30 243h70z" />
    <glyph glyph-name="v" unicode="v" horiz-adv-x="403" 
d="M158 -41l-136 445h73l82 -285l162 285h79z" />
    <glyph glyph-name="w" unicode="w" horiz-adv-x="643" 
d="M409 -34l-88 291l-163 -291l-136 438h74l83 -279l161 288l86 -288l153 279h80z" />
    <glyph glyph-name="x" unicode="x" horiz-adv-x="415" 
d="M386 0h-83l-101 163l-139 -163h-90l192 217l-120 187h81l86 -140l118 140h89l-169 -193z" />
    <glyph glyph-name="y" unicode="y" horiz-adv-x="423" 
d="M81 -229h-80l153 267l-132 366h75l99 -289l163 289h79z" />
    <glyph glyph-name="z" unicode="z" horiz-adv-x="440" 
d="M389 0h-394l303 341h-229l8 63h360l-304 -341h264z" />
    <glyph glyph-name="braceleft" unicode="{" horiz-adv-x="291" 
d="M202 393c-4 -32.667 -11.3271 -57.168 -21.9941 -73.501s-28.334 -30.833 -53.001 -43.5c17.333 -9.33301 29.5 -20.166 36.5 -32.499s10.5 -28.5 10.5 -48.5c0 -3.33301 -0.166992 -7.83301 -0.5 -13.5s-0.833008 -11.167 -1.5 -16.5l-23 -181
c-0.666992 -7.33301 -1.33398 -15.833 -2.00098 -25.5s-1 -17.167 -1 -22.5c0 -18 5.33301 -30.667 16 -38s29.667 -11 57 -11l-8 -62c-6 -0.666992 -11.333 -1 -16 -1h-12c-38 0 -65.5 8.66699 -82.5 26s-25.5 45 -25.5 83c0 7.33301 0.333008 15 1 23s1.66699 17.667 3 29
l19 158c1.33301 6.66699 2.16602 13.167 2.49902 19.5s0.5 11.166 0.5 14.499c0 20.667 -3.5 36.5 -10.5 47.5s-19.167 19.167 -36.5 24.5l7 59c21.333 5.33301 37.166 15 47.499 29s17.166 34 20.499 60l24 195c6 49.333 20.167 84.666 42.5 105.999s55.833 32 100.5 32h11
c4.66699 0 9.66699 -0.333008 15 -1l-7 -62h-8c-14.667 0 -26.834 -1.16699 -36.501 -3.5s-17.5 -6.66602 -23.5 -12.999s-10.667 -15.166 -14 -26.499s-6 -26 -8 -44z" />
    <glyph glyph-name="bar" unicode="|" horiz-adv-x="500" 
d="M300 667v-834h-75v834h75z" />
    <glyph glyph-name="braceright" unicode="}" horiz-adv-x="291" 
d="M102 161c4 32.667 11.3291 57.167 21.9961 73.5s28.334 30.5 53.001 42.5c-17.333 10 -29.5 21.167 -36.5 33.5s-10.5 28.5 -10.5 48.5c0 5.33301 0.166992 10.5 0.5 15.5s0.833008 9.83301 1.5 14.5l22 181c0.666992 5.33301 1.33398 13.333 2.00098 24s1 18.667 1 24
c0 18 -5.33301 30.5 -16 37.5s-29.667 10.5 -57 10.5l8 63h28c38 0 65.5 -8.5 82.5 -25.5s25.5 -44.5 25.5 -82.5c0 -7.33301 -0.333008 -15.666 -1 -24.999s-1.66699 -18.333 -3 -27l-19 -158c-0.666992 -5.33301 -1.16699 -10.833 -1.5 -16.5s-0.5 -11.5 -0.5 -17.5
c0 -20.667 3.5 -36.667 10.5 -48s18.833 -19.666 35.5 -24.999l-7 -59c-21.333 -5.33301 -37.166 -14.833 -47.499 -28.5s-17.166 -33.5 -20.499 -59.5l-24 -196c-6 -48.667 -20.167 -83.667 -42.5 -105s-55.833 -32 -100.5 -32h-26l8 63h7
c15.333 0 27.833 1.16699 37.5 3.5s17.5 6.66602 23.5 12.999s10.667 15.166 14 26.499s6 26 8 44z" />
    <glyph glyph-name="asciitilde" unicode="~" horiz-adv-x="667" 
d="M105 611c21.333 42.667 42.167 72.499 62.5 89.499s45.166 25.5 74.499 25.5c13.333 0 28.333 -2.5 45 -7.5s39 -13.833 67 -26.5l37.5 -16.5c9.66699 -4.33301 18 -7.66602 25 -9.99902s13.167 -3.83301 18.5 -4.5s11 -1 17 -1c18.667 0 34.334 5 47.001 15
s26.667 27.667 42 53l45 -26c-37.333 -75.333 -84.333 -113 -141 -113c-8 0 -18.833 1.5 -32.5 4.5s-27.5 7.16699 -41.5 12.5c-2 1.33301 -2.83301 1.83301 -2.5 1.5s-1 0.166992 -4 1.5l-18 8l-44.5 20c-26 12 -47.667 18 -65 18s-33 -5.66699 -47 -17s-28 -30 -42 -56z
" />
    <glyph glyph-name="exclamdown" unicode="&#xa1;" horiz-adv-x="267" 
d="M165 520c13.333 0 24.332 -4.66699 32.999 -14s13 -21 13 -35c0 -12.667 -4.66699 -23.5 -14 -32.5s-20.333 -13.5 -33 -13.5c-13.333 0 -24.666 4.5 -33.999 13.5s-14 20.167 -14 33.5c0 14 4.5 25.5 13.5 34.5s20.833 13.5 35.5 13.5zM114.999 364h73l-64 -520h-73z
" />
    <glyph glyph-name="cent" unicode="&#xa2;" 
d="M265 131c-48 13.333 -85 37.1689 -111 71.502s-39 76.5 -39 126.5c0 31.333 5.16699 60.333 15.5 87s24.5 50 42.5 70s39.333 36.167 64 48.5s51.334 19.166 80.001 20.499l11 94h52l-12 -98c19.333 -3.33301 36.5 -8.83301 51.5 -16.5s31.833 -19.167 50.5 -34.5l-8 -72
c-16.667 20.667 -32 35.667 -46 45s-32.333 16.666 -55 21.999l-39 -313c24 0.666992 44 4.66699 60 12s34.667 20.333 56 39l-10 -77c-19.333 -11.333 -36.833 -19 -52.5 -23s-35.834 -6.66699 -60.501 -8l-13 -107h-51zM310 496.003
c-83.333 -22 -125 -77.332 -125 -165.999c0 -36 6.5 -64.333 19.5 -85s35.5 -38.334 67.5 -53.001z" />
    <glyph glyph-name="sterling" unicode="&#xa3;" 
d="M528 57c-26.667 -25.333 -51.501 -43.1641 -74.501 -53.4971s-48.833 -15.5 -77.5 -15.5c-22 0 -49 5.33301 -81 16c-2 0.666992 -3.33301 1.16699 -4 1.5s-1.66699 0.666016 -3 0.999023s-3.83301 1.16602 -7.5 2.49902l-18.5 7l-19 7l-18 8
c-17.333 6 -33 10.667 -47 14s-26.333 5 -37 5c-19.333 0 -36.833 -4.66699 -52.5 -14s-33.167 -25.333 -52.5 -48l-43 48c19.333 22 37.833 38.833 55.5 50.5s38.167 20.167 61.5 25.5c12 20.667 20.667 39.5 26 56.5s8 34.833 8 53.5c0 5.33301 -0.166992 11.5 -0.5 18.5
s-0.833008 14.833 -1.5 23.5h-105l6 53h92c-3.33301 21.333 -5.66602 39.166 -6.99902 53.499s-2 29.166 -2 44.499c0 83.333 20 148.166 60 194.499s95.333 69.5 166 69.5c60.667 0 108.667 -18.333 144 -55s54.666 -89 57.999 -157l-69 -20c0 52 -12.5 93 -37.5 123
s-58.5 45 -100.5 45c-22.667 0 -43.167 -4.5 -61.5 -13.5s-34.166 -21.5 -47.499 -37.5s-23.666 -35.333 -30.999 -58s-11 -47.667 -11 -75c0 -13.333 0.666992 -27.666 2 -42.999s4.33301 -38.333 9 -69h173l-7 -53h-160v-25c0 -23.333 -2.33301 -44.333 -7 -63
s-13.334 -41 -26.001 -67c7.33301 -0.666992 14 -1.66699 20 -3s12.167 -3.16602 18.5 -5.49902l22.5 -8c8.66699 -3 19 -7.16699 31 -12.5c28.667 -12 50 -20 64 -24s27 -6 39 -6c22.667 0 42 4 58 12s35 23 57 45z" />
    <glyph glyph-name="currency" unicode="&#xa4;" horiz-adv-x="667" 
d="M167 216c-19.333 28 -32.832 52.502 -40.499 73.502s-11.5 44.167 -11.5 69.5c0 27.333 3.66699 51.333 11 72s20.333 44.667 39 72l-95 95l39 39l95 -95c15.333 10 29.166 18.333 41.499 25s24 12 35 16s22 6.83301 33 8.5s23.5 2.5 37.5 2.5
c13.333 0 25.5 -0.833008 36.5 -2.5s22 -4.5 33 -8.5s22.333 -9.33301 34 -16s24.834 -15 39.501 -25l95 94l38 -38l-94 -94c19.333 -28.667 32.666 -53.334 39.999 -74.001s11 -44 11 -70c0 -12.667 -0.833008 -24.667 -2.5 -36s-4.5 -22.5 -8.5 -33.5
s-9.16699 -22.333 -15.5 -34s-14.5 -24.834 -24.5 -39.501l96 -95l-38 -39l-96 96c-14 -10 -27 -18.333 -39 -25s-23.667 -12 -35 -16s-22.666 -6.83301 -33.999 -8.5s-24 -2.5 -38 -2.5c-24.667 0 -47.334 3.5 -68.001 10.5s-46 20.167 -76 39.5l-95 -94l-38 39z
M350.001 532.002c-23.333 0 -45.333 -4.5 -66 -13.5s-38.834 -21.333 -54.501 -37s-28 -33.834 -37 -54.501s-13.5 -43 -13.5 -67c0 -23.333 4.5 -45.333 13.5 -66s21.333 -38.834 37 -54.501s33.834 -28 54.501 -37s42.667 -13.5 66 -13.5s45.5 4.5 66.5 13.5
s39.167 21.333 54.5 37s27.5 33.834 36.5 54.501s13.5 42.667 13.5 66c0 24 -4.5 46.333 -13.5 67s-21.167 38.834 -36.5 54.501s-33.333 28 -54 37s-43 13.5 -67 13.5z" />
    <glyph glyph-name="yen" unicode="&#xa5;" 
d="M322 239l-29 -239h-74l30 239h-198l7 57h201l-40 87h-150l7 57h116l-108 227h80l138 -293l202 293h86l-160 -227h113l-7 -57h-145l-62 -87h196l-7 -57h-196z" />
    <glyph glyph-name="brokenbar" unicode="&#xa6;" horiz-adv-x="500" 
d="M300 667v-334h-75v334h75zM300 153v-320h-75v320h75z" />
    <glyph glyph-name="section" unicode="&#xa7;" 
d="M154 15c0 -45.333 7.8252 -78.3271 23.4922 -98.9941s40.834 -31 75.501 -31c30.667 0 55 9 73 27s27 42 27 72c0 20 -4.16699 36.667 -12.5 50s-22.166 25.666 -41.499 36.999c-2.66699 1.33301 -5.16699 2.66602 -7.5 3.99902s-6.16602 3.66602 -11.499 6.99902
c-4 2 -6.66699 3.5 -8 4.5s-3.66602 2.16699 -6.99902 3.5s-8.33301 3.66602 -15 6.99902l-33 16c-70 34 -105 85.333 -105 154c0 40 9.5 73.167 28.5 99.5s48.833 47.833 89.5 64.5c-28 21.333 -47.167 41.333 -57.5 60s-15.5 42 -15.5 70c0 25.333 4.33301 48.5 13 69.5
s20.834 39.167 36.501 54.5s34.334 27.333 56.001 36s45.5 13 71.5 13c36.667 0 68.5 -8.5 95.5 -25.5s46.833 -40.833 59.5 -71.5c5.33301 -12.667 9.16602 -26.667 11.499 -42s3.5 -35 3.5 -59h-72c-0.666992 45.333 -8.5 78.166 -23.5 98.499s-39.5 30.5 -73.5 30.5
c-31.333 0 -56.666 -9.5 -75.999 -28.5s-29 -43.5 -29 -73.5c0 -12.667 1.33301 -23.5 4 -32.5s7.83398 -17.5 15.501 -25.5s18 -15.833 31 -23.5s29.833 -16.5 50.5 -26.5c13.333 -6 24.5 -11.333 33.5 -16s16.667 -9 23 -13s12 -7.83301 17 -11.5
s10.167 -7.83398 15.5 -12.501c35.333 -31.333 53 -72.333 53 -123c0 -74.667 -39 -128.667 -117 -162c25.333 -18 43.833 -37.667 55.5 -59s17.5 -46 17.5 -74c0 -24 -4.16699 -46 -12.5 -66s-20.166 -37.333 -35.499 -52s-33.5 -26 -54.5 -34s-44.167 -12 -69.5 -12
c-116.667 0 -175 65 -175 195h72zM294.992 381.006c-30.667 0 -56.167 -10.3311 -76.5 -30.998s-30.5 -46.334 -30.5 -77.001c0 -14.667 2.66699 -28.334 8 -41.001s12.5 -23.667 21.5 -33s19.667 -16.833 32 -22.5s25.5 -8.5 39.5 -8.5c15.333 0 29.5 2.83301 42.5 8.5
s24.167 13.334 33.5 23.001s16.833 21.167 22.5 34.5s8.5 27.666 8.5 42.999c0 14.667 -2.66699 28.334 -8 41.001s-12.5 23.667 -21.5 33s-19.667 16.666 -32 21.999s-25.5 8 -39.5 8z" />
    <glyph glyph-name="dieresis" unicode="&#xa8;" horiz-adv-x="500" 
d="M366 562c12.667 0 23.499 -4.33398 32.499 -13.001s13.5 -18.667 13.5 -30c0 -14 -4.66699 -25.667 -14 -35s-20.666 -14 -33.999 -14c-12 0 -22.333 4.33301 -31 13s-13 19.334 -13 32.001s4.5 23.667 13.5 33s19.833 14 32.5 14zM208.999 562.999
c12 0 22.333 -4.33301 31 -13s13 -19 13 -31c0 -13.333 -4.5 -24.5 -13.5 -33.5s-20.5 -13.5 -34.5 -13.5c-11.333 0 -21.333 4.33301 -30 13s-13 19 -13 31c0 13.333 4.5 24.5 13.5 33.5s20.167 13.5 33.5 13.5z" />
    <glyph glyph-name="copyright" unicode="&#xa9;" horiz-adv-x="733" 
d="M527 420c-21.333 24.667 -42.667 42 -64 52s-47.666 15 -78.999 15c-22 0 -42.5 -4 -61.5 -12s-35.333 -19.167 -49 -33.5s-24.334 -31.333 -32.001 -51s-11.5 -41.167 -11.5 -64.5c0 -44.667 13.667 -80.167 41 -106.5s64 -39.5 110 -39.5
c13.333 0 25.166 0.666992 35.499 2s20.333 3.83301 30 7.5s19.167 8.5 28.5 14.5s20 13.667 32 23l-9 -71c-23.333 -11.333 -44.166 -19.166 -62.499 -23.499s-38.833 -6.5 -61.5 -6.5c-30 0 -57.5 4.83301 -82.5 14.5s-46.5 23.334 -64.5 41.001s-32 38.667 -42 63
s-15 50.833 -15 79.5c0 31.333 5.33301 60.166 16 86.499s25.5 49.166 44.5 68.499s41.5 34.5 67.5 45.5s54.333 16.5 85 16.5s57.667 -4 81 -12s47.333 -21.333 72 -40zM379.999 678c47.333 0 92 -9 134 -27s78.5 -42.5 109.5 -73.5s55.5 -67.5 73.5 -109.5
s27 -86.667 27 -134c0 -48 -9 -92.833 -27 -134.5s-42.5 -78.167 -73.5 -109.5s-67.5 -56 -109.5 -74s-86.667 -27 -134 -27c-48 0 -92.833 9 -134.5 27s-78.167 42.667 -109.5 74s-56 67.833 -74 109.5s-27 86.5 -27 134.5c0 47.333 9 91.833 27 133.5
s42.667 78.167 74 109.5s68 56 110 74s86.667 27 134 27zM379.999 622c-40 0 -77.5 -7.5 -112.5 -22.5s-65.667 -35.5 -92 -61.5s-47 -56.5 -62 -91.5s-22.5 -72.5 -22.5 -112.5s7.5 -77.5 22.5 -112.5s35.667 -65.667 62 -92s57 -47 92 -62s72.5 -22.5 112.5 -22.5
s77.5 7.5 112.5 22.5s65.5 35.667 91.5 62s46.5 57 61.5 92s22.5 72.5 22.5 112.5s-7.5 77.5 -22.5 112.5s-35.5 65.5 -61.5 91.5s-56.5 46.5 -91.5 61.5s-72.5 22.5 -112.5 22.5z" />
    <glyph glyph-name="ordfeminine" unicode="&#xaa;" horiz-adv-x="358" 
d="M42 347h286l-5 -47h-287zM329 420h-57l3 24c-14 -11.333 -26.667 -19.166 -38 -23.499s-25 -6.5 -41 -6.5c-36 0 -65.5 11.167 -88.5 33.5s-34.5 51.166 -34.5 86.499c0 20 3.5 38.5 10.5 55.5s16.5 31.667 28.5 44s26.333 22 43 29s35 10.5 55 10.5
c19.333 0 36 -2.83301 50 -8.5s27 -14.5 39 -26.5l4 29h56zM213 623c-23.333 0 -42.833 -8.16797 -58.5 -24.501s-23.5 -37.166 -23.5 -62.499c0 -20 7.16699 -37 21.5 -51s32.166 -21 53.499 -21c23.333 0 43.333 8.66699 60 26s25 38 25 62
c0 20.667 -7.16699 37.667 -21.5 51s-33.166 20 -56.499 20z" />
    <glyph glyph-name="guillemotleft" unicode="&#xab;" horiz-adv-x="361" 
d="M34 210l144 180l40 -33l-122 -151l87 -157l-44 -25zM152 205l149 185l38 -33l-126 -155l87 -151l-45 -27z" />
    <glyph glyph-name="logicalnot" unicode="&#xac;" horiz-adv-x="500" 
d="M403 197h-358v70h433v-267h-75v197z" />
    <glyph glyph-name="registered" unicode="&#xae;" horiz-adv-x="733" 
d="M504 133h-68l-110 172h-6l-21 -172h-59l49 400h74c43.333 0 76.333 -9.16699 99 -27.5s34 -45.166 34 -80.499c0 -30.667 -9.5 -56.334 -28.5 -77.001s-45.5 -33.667 -79.5 -39zM326 353h19c60.667 0 91 23.333 91 70c0 38 -25 57 -75 57h-20zM380 678
c47.333 0 92 -9 134 -27s78.5 -42.5 109.5 -73.5s55.5 -67.5 73.5 -109.5s27 -86.667 27 -134c0 -48 -9 -92.833 -27 -134.5s-42.5 -78.167 -73.5 -109.5s-67.5 -56 -109.5 -74s-86.667 -27 -134 -27c-48 0 -92.833 9 -134.5 27s-78.167 42.667 -109.5 74
s-56 67.833 -74 109.5s-27 86.5 -27 134.5c0 47.333 9 91.833 27 133.5s42.667 78.167 74 109.5s68 56 110 74s86.667 27 134 27zM380 622c-40 0 -77.5 -7.5 -112.5 -22.5s-65.667 -35.5 -92 -61.5s-47 -56.5 -62 -91.5s-22.5 -72.5 -22.5 -112.5s7.5 -77.5 22.5 -112.5
s35.667 -65.667 62 -92s57 -47 92 -62s72.5 -22.5 112.5 -22.5s77.5 7.5 112.5 22.5s65.5 35.667 91.5 62s46.5 57 61.5 92s22.5 72.5 22.5 112.5s-7.5 77.5 -22.5 112.5s-35.5 65.5 -61.5 91.5s-56.5 46.5 -91.5 61.5s-72.5 22.5 -112.5 22.5z" />
    <glyph glyph-name="macron" unicode="&#xaf;" horiz-adv-x="500" 
d="M440 545l-7 -59h-302l7 59h302z" />
    <glyph glyph-name="degree" unicode="&#xb0;" horiz-adv-x="400" 
d="M201 686c21.333 0 41.002 -3.83203 59.002 -11.499s33.667 -18.334 47 -32.001s23.833 -29.667 31.5 -48s11.5 -38.5 11.5 -60.5c0 -21.333 -3.83301 -41.333 -11.5 -60s-18.334 -34.834 -32.001 -48.501s-29.5 -24.5 -47.5 -32.5s-37.667 -12 -59 -12
c-20.667 0 -40.167 4 -58.5 12s-34.333 18.833 -48 32.5s-24.334 29.834 -32.001 48.501s-11.5 39 -11.5 61c0 20.667 4 40.167 12 58.5s18.833 34.333 32.5 48s29.667 24.5 48 32.5s37.833 12 58.5 12zM199.002 629.001c-26 0 -48 -9.33301 -66 -28s-27 -42 -27 -70
c0 -12 2.5 -23.667 7.5 -35s11.667 -21.333 20 -30s18 -15.5 29 -20.5s22.5 -7.5 34.5 -7.5c28 0 51 9 69 27s27 40.333 27 67c0 28 -8.83301 51.167 -26.5 69.5s-40.167 27.5 -67.5 27.5z" />
    <glyph glyph-name="plusminus" unicode="&#xb1;" horiz-adv-x="549" 
d="M302 417h237v-55h-237v-233h-55v233h-237v55h237v245h55v-245zM535 55v-55h-524v55h524z" />
    <glyph glyph-name="twosuperior" unicode="&#xb2;" horiz-adv-x="387" 
d="M326 266l-276.999 0.00195312l174 174l37.5 40c9.66699 10.667 17.167 20.167 22.5 28.5s9 16 11 23s3 14.833 3 23.5c0 21.333 -6.83301 38.666 -20.5 51.999s-31.834 20 -54.501 20c-50.667 0 -78 -30.667 -82 -92h-51c3.33301 46 16.333 80.667 39 104
s54.667 35 96 35c38 0 68.5 -10.833 91.5 -32.5s34.5 -49.834 34.5 -84.501c0 -11.333 -1.16699 -22 -3.5 -32s-6.5 -20.167 -12.5 -30.5s-14 -21.333 -24 -33s-22.667 -25.167 -38 -40.5l-110 -108h170z" />
    <glyph glyph-name="threesuperior" unicode="&#xb3;" horiz-adv-x="387" 
d="M120 372c2.66699 -43.333 27.3311 -65 73.998 -65c24 0 43.667 7.16699 59 21.5s23 32.833 23 55.5s-6.66699 39.5 -20 50.5s-34.666 17.167 -63.999 18.5l6 45c3.33301 -0.666992 6.66602 -1 9.99902 -1h8c21.333 0 38 6.33301 50 19s18 29.667 18 51
c0 18 -6 32.5 -18 43.5s-28 16.5 -48 16.5c-37.333 0 -58 -21.333 -62 -64h-50c10 74 49 111 117 111c34 0 61.5 -9.83301 82.5 -29.5s31.5 -45.5 31.5 -77.5c0 -21.333 -6 -40.333 -18 -57s-28.333 -28.667 -49 -36c39.333 -18.667 59 -49 59 -91
c0 -36 -12.833 -65.5 -38.5 -88.5s-58.5 -34.5 -98.5 -34.5c-37.333 0 -66.666 9.83301 -87.999 29.5s-32.666 47.167 -33.999 82.5h50z" />
    <glyph glyph-name="acute" unicode="&#xb4;" horiz-adv-x="500" 
d="M290 467l-37 25l107 132l56 -39z" />
    <glyph glyph-name="mu" unicode="&#xb5;" horiz-adv-x="576" 
d="M442 131c0 -27.333 4.49512 -49.166 13.4951 -65.499s20.833 -24.5 35.5 -24.5c12 0 22.833 6.5 32.5 19.5s15.167 29.167 16.5 48.5l27 -1c-7.33301 -39.333 -21.166 -69.333 -41.499 -90s-46.5 -31 -78.5 -31c-25.333 0 -45.166 7.16699 -59.499 21.5
s-25.5 38.166 -33.5 71.499c-52.667 -62 -104.334 -93 -155.001 -93c-17.333 0 -32.666 3.33301 -45.999 10s-30.666 18.667 -51.999 36c0 -9.33301 0.166992 -17.333 0.5 -24s0.833008 -13 1.5 -19s1.83398 -12.333 3.50098 -19s3.83398 -14.667 6.50098 -24
c4 -14.667 7.16699 -26.667 9.5 -36l6 -24c1.66699 -6.66699 2.66699 -12.334 3 -17.001s0.5 -9.66699 0.5 -15c0 -22.667 -4.5 -40.667 -13.5 -54s-21.167 -20 -36.5 -20c-14 0 -25.667 6.66699 -35 20s-14 29.666 -14 48.999c0 6.66699 0.166992 12.334 0.5 17.001
s1 10 2 16s2.66699 13.667 5 23l9.5 38c8 30 12 55.333 12 76v480h88v-331c0 -35.333 8 -62.666 24 -81.999s38.333 -29 67 -29c21.333 0 41 5.83301 59 17.5s35.667 30.167 53 55.5v369h89v-369z" />
    <glyph glyph-name="paragraph" unicode="&#xb6;" 
d="M233 328h-14c-41.333 0 -74.333 14.333 -99 43s-37 67 -37 115c0 58.667 18.333 103.5 55 134.5s89.667 46.5 159 46.5h273l-39 -68h-46l-86 -698h-61l85 698h-95l-86 -698h-61z" />
    <glyph glyph-name="periodcentered" unicode="&#xb7;" horiz-adv-x="240" 
d="M118 257c13.333 0 24.666 -4.50098 33.999 -13.501s14 -20.167 14 -33.5s-4.83301 -24.666 -14.5 -33.999s-21.167 -14 -34.5 -14s-24.5 4.83301 -33.5 14.5s-13.167 21.167 -12.5 34.5s5.33398 24.333 14.001 33s19.667 13 33 13z" />
    <glyph glyph-name="cedilla" unicode="&#xb8;" horiz-adv-x="500" 
d="M180 -205l-42 25l80 133l69 -37z" />
    <glyph glyph-name="onesuperior" unicode="&#xb9;" horiz-adv-x="387" 
d="M229 267h-52l43 353h-75l28 47h106z" />
    <glyph glyph-name="ordmasculine" unicode="&#xba;" horiz-adv-x="359" 
d="M50 347h287l-6 -47h-287zM223 675c20 0 38.332 -3.16504 54.999 -9.49805s31 -15.333 43 -27s21.333 -25.334 28 -41.001s10 -32.834 10 -51.501s-3.66699 -36.167 -11 -52.5s-17.333 -30.5 -30 -42.5s-27.667 -21.5 -45 -28.5s-36 -10.5 -56 -10.5
s-38.5 3.16699 -55.5 9.5s-31.667 15.333 -44 27s-22.166 25.167 -29.499 40.5s-11 32 -11 50c0 19.333 3.66699 37.333 11 54s17.5 31 30.5 43s28.5 21.5 46.5 28.5s37.333 10.5 58 10.5zM219.999 625.002c-24.667 0 -45 -7.83203 -61 -23.499s-24 -35.834 -24 -60.501
c0 -22 8 -40.667 24 -56s35.667 -23 59 -23c24.667 0 44.667 7.66699 60 23s23 35.333 23 60c0 23.333 -7.5 42.5 -22.5 57.5s-34.5 22.5 -58.5 22.5z" />
    <glyph glyph-name="guillemotright" unicode="&#xbb;" horiz-adv-x="361" 
d="M321 209l-143 -179l-40 32l122 151l-87 157l43 25zM203 215l-148 -185l-39 32l126 155l-86 152l44 26z" />
    <glyph glyph-name="onequarter" unicode="&#xbc;" horiz-adv-x="881" 
d="M219 267h-52l43 353h-75l28 47h106zM680 680l39 -29l-493 -664l-39 28zM759 0h-53l9 73h-204l301 362l-39 -317h47l-5 -45h-47zM741 286l-137 -168h116z" />
    <glyph glyph-name="onehalf" unicode="&#xbd;" horiz-adv-x="881" 
d="M219 267h-52l43 353h-75l28 47h106zM680 680l39 -29l-493 -664l-39 28zM797 0l-276.999 0.000976562l174 174c15.333 15.333 27.833 28.333 37.5 39s17.167 20.167 22.5 28.5s9 16 11 23s3 14.833 3 23.5c0 21.333 -6.83301 38.666 -20.5 51.999s-31.834 20 -54.501 20
c-50.667 0 -78 -30.667 -82 -92h-51c3.33301 46 16.333 80.667 39 104s54.667 35 96 35c38 0 68.5 -10.833 91.5 -32.5s34.5 -50.167 34.5 -85.5c0 -10.667 -1.16699 -21 -3.5 -31s-6.5 -20 -12.5 -30s-14 -20.833 -24 -32.5s-22.667 -25.167 -38 -40.5l-110 -108h170z" />
    <glyph glyph-name="threequarters" unicode="&#xbe;" horiz-adv-x="881" 
d="M110 372c2.66699 -43.333 27.3311 -65 73.998 -65c24 0 43.667 7.16699 59 21.5s23 32.833 23 55.5s-6.66699 39.5 -20 50.5s-34.666 17.167 -63.999 18.5l6 45c3.33301 -0.666992 6.66602 -1 9.99902 -1h8c21.333 0 38 6.33301 50 19s18 29.667 18 51
c0 18 -6 32.5 -18 43.5s-28 16.5 -48 16.5c-37.333 0 -58 -21.333 -62 -64h-50c10 74 49 111 117 111c34 0 61.5 -9.83301 82.5 -29.5s31.5 -45.5 31.5 -77.5c0 -21.333 -6 -40.333 -18 -57s-28.333 -28.667 -49 -36c39.333 -18.667 59 -49 59 -91
c0 -36 -12.833 -65.5 -38.5 -88.5s-58.5 -34.5 -98.5 -34.5c-37.333 0 -66.666 9.83301 -87.999 29.5s-32.666 47.167 -33.999 82.5h50zM679.997 680l39 -29l-493 -664l-38 28zM758.997 0h-53l9 73h-203l301 362l-39 -317h47l-6 -45h-47zM740.997 286l-136 -168h116z" />
    <glyph glyph-name="questiondown" unicode="&#xbf;" horiz-adv-x="452" 
d="M251 520c14 0 25.666 -4.49902 34.999 -13.499s14 -20.5 14 -34.5c0 -13.333 -4.66699 -24.5 -14 -33.5s-20.666 -13.5 -33.999 -13.5s-24.5 4.5 -33.5 13.5s-13.5 20.167 -13.5 33.5s4.33301 24.666 13 33.999s19.667 14 33 14zM72.999 235.001
c3.33301 46 17.666 81.4941 42.999 106.494s59.333 37.5 102 37.5c21.333 0 40.833 -3.5 58.5 -10.5s32.834 -16.667 45.501 -29s22.667 -27.166 30 -44.499s11 -36.333 11 -57c0 -36 -12 -66.333 -36 -91s-62.667 -46.667 -116 -66c-38.667 -14 -65.5 -28.167 -80.5 -42.5
s-22.5 -33.166 -22.5 -56.499c0 -24 8.5 -44 25.5 -60s38.5 -24 64.5 -24c31.333 0 54.333 9.5 69 28.5s22 49.5 22 91.5h69c-0.666992 -34 -3.5 -60 -8.5 -78s-13.833 -34.667 -26.5 -50c-14.667 -17.333 -32.834 -30.666 -54.501 -39.999s-45.5 -14 -71.5 -14
c-24 0 -45.833 3.5 -65.5 10.5s-36.5 17 -50.5 30s-25 28.5 -33 46.5s-12 38 -12 60c0 38 10.333 68.833 31 92.5s54.667 43.834 102 60.501c24 8.66699 43.833 16.834 59.5 24.501s28.167 15.5 37.5 23.5s15.833 16.833 19.5 26.5s5.5 20.834 5.5 33.501
c0 21.333 -6.83301 38.5 -20.5 51.5s-31.5 19.5 -53.5 19.5c-45.333 0 -69.666 -26.667 -72.999 -80h-71z" />
    <glyph glyph-name="Agrave" unicode="&#xc0;" horiz-adv-x="617" 
d="M83 0h-81l371 707l206 -707h-76l-52 186h-271zM430 254l-75 273l-140 -273h215zM326 881l75 -133l-43 -25l-97 120z" />
    <glyph glyph-name="Aacute" unicode="&#xc1;" horiz-adv-x="617" 
d="M83 0h-81l371 707l206 -707h-76l-52 186h-271zM430 254l-75 273l-140 -273h215zM390 723l-37 25l107 133l56 -39z" />
    <glyph glyph-name="Acircumflex" unicode="&#xc2;" horiz-adv-x="617" 
d="M83 0h-81l371 707l206 -707h-76l-52 186h-271zM430 254l-75 273l-140 -273h215zM285 723l-34 37l139 122l105 -122l-37 -36l-74 85z" />
    <glyph glyph-name="Atilde" unicode="&#xc3;" horiz-adv-x="617" 
d="M83 0h-81l371 707l206 -707h-76l-52 186h-271zM430 254l-75 273l-140 -273h215zM539 804c-15.333 -26 -30 -44.333 -44 -55s-30.667 -16 -50 -16c-5.33301 0 -10.333 0.333008 -15 1s-10 2 -16 4s-13 4.83301 -21 8.5s-18.667 8.83398 -32 15.501
c-9.33301 4.66699 -16.833 7.83398 -22.5 9.50098s-10.834 2.5 -15.501 2.5c-10 0 -18.667 -3 -26 -9s-14.666 -16.333 -21.999 -31l-45 28c17.333 27.333 32.833 46 46.5 56s30.167 15 49.5 15c5.33301 0 9.83301 -0.166992 13.5 -0.5s8.16699 -1.33301 13.5 -3
s12.166 -4.33398 20.499 -8.00098l33.5 -15.5c20.667 -9.33301 35.334 -14 44.001 -14c8 0 15 2.66699 21 8s13.667 15.666 23 30.999z" />
    <glyph glyph-name="Adieresis" unicode="&#xc4;" horiz-adv-x="617" 
d="M83 0h-81l371 707l206 -707h-76l-52 186h-271zM430 254l-75 273l-140 -273h215zM463 825c12.667 0 23.499 -4.33398 32.499 -13.001s13.5 -18.667 13.5 -30c0 -14 -4.66699 -25.667 -14 -35s-20.666 -14 -33.999 -14c-12 0 -22.333 4.33301 -31 13s-13 19.334 -13 32.001
s4.5 23.667 13.5 33s19.833 14 32.5 14zM305.999 823.999c12 0 22.333 -4.33301 31 -13s13 -19 13 -31c0 -13.333 -4.5 -24.5 -13.5 -33.5s-20.5 -13.5 -34.5 -13.5c-11.333 0 -21.333 4.33301 -30 13s-13 19 -13 31c0 13.333 4.5 24.5 13.5 33.5s20.167 13.5 33.5 13.5z
" />
    <glyph glyph-name="Aring" unicode="&#xc5;" horiz-adv-x="617" 
d="M83 0h-81l371 707l206 -707h-76l-52 186h-271zM430 254l-75 273l-140 -273h215zM381 894c21.333 0 39.998 -7.50195 55.998 -22.502s24 -33.167 24 -54.5c0 -23.333 -7.66699 -43.166 -23 -59.499s-34.666 -24.5 -57.999 -24.5c-22 0 -40.833 7.83301 -56.5 23.5
s-23.5 34.834 -23.5 57.501c0 22 7.83301 40.833 23.5 56.5s34.834 23.5 57.501 23.5zM380.998 847.998c-9.33301 0 -17.5 -3.16797 -24.5 -9.50098s-10.5 -14.166 -10.5 -23.499c0 -10 3.33301 -18.5 10 -25.5s14.667 -10.5 24 -10.5c10 0 18.333 3.5 25 10.5
s10 15.833 10 26.5c0 8.66699 -3.33301 16.167 -10 22.5s-14.667 9.5 -24 9.5z" />
    <glyph glyph-name="AE" unicode="&#xc6;" horiz-adv-x="904" 
d="M690 599h-272l60 -204h272l20 -68h-272l76 -259h273l19 -68h-350l-53 189h-281l-104 -189h-83l370 667h306zM442 257l-75 267l-146 -267h221z" />
    <glyph glyph-name="Ccedilla" unicode="&#xc7;" horiz-adv-x="643" 
d="M623 511c-26 32 -58 56.501 -96 73.501s-79.667 25.5 -125 25.5c-37.333 0 -72 -7.33301 -104 -22s-59.833 -35 -83.5 -61s-42.167 -56.833 -55.5 -92.5s-20 -74.167 -20 -115.5c0 -40.667 5.83301 -77.167 17.5 -109.5s28.5 -59.833 50.5 -82.5s48.833 -40 80.5 -52
s67.167 -18 106.5 -18c36.667 0 69.834 5.33301 99.501 16s58.5 27.667 86.5 51l-11 -89c-34 -17.333 -65.333 -29.666 -94 -36.999s-60 -11 -94 -11c-46.667 0 -89.5 8 -128.5 24s-72.5 38.667 -100.5 68s-49.667 64.333 -65 105s-23 85.334 -23 134.001
c0 51.333 8.5 99.166 25.5 143.499s40.5 82.666 70.5 114.999s65.333 57.666 106 75.999s84.667 27.5 132 27.5s89.166 -6.5 125.499 -19.5s72.833 -34.833 109.5 -65.5zM256 -204.999l-42 25l81 133l68 -37z" />
    <glyph glyph-name="Egrave" unicode="&#xc8;" horiz-adv-x="467" 
d="M462 599h-253l-25 -204h253l-8 -68h-253l-32 -259h253l-8 -68h-327l82 667h327zM252 881l75 -133l-43 -25l-97 120z" />
    <glyph glyph-name="Eacute" unicode="&#xc9;" horiz-adv-x="467" 
d="M462 599h-253l-25 -204h253l-8 -68h-253l-32 -259h253l-8 -68h-327l82 667h327zM279 723l-37 25l107 133l56 -39z" />
    <glyph glyph-name="Ecircumflex" unicode="&#xca;" horiz-adv-x="467" 
d="M462 599h-253l-25 -204h253l-8 -68h-253l-32 -259h253l-8 -68h-327l82 667h327zM231 723l-34 37l139 122l105 -122l-37 -36l-74 85z" />
    <glyph glyph-name="Edieresis" unicode="&#xcb;" horiz-adv-x="467" 
d="M462 599h-253l-25 -204h253l-8 -68h-253l-32 -259h253l-8 -68h-327l82 667h327zM401 825c12.667 0 23.499 -4.33398 32.499 -13.001s13.5 -18.667 13.5 -30c0 -14 -4.66699 -25.667 -14 -35s-20.666 -14 -33.999 -14c-12 0 -22.333 4.33301 -31 13s-13 19.334 -13 32.001
s4.5 23.667 13.5 33s19.833 14 32.5 14zM243.999 823.999c12 0 22.333 -4.33301 31 -13s13 -19 13 -31c0 -13.333 -4.5 -24.5 -13.5 -33.5s-20.5 -13.5 -34.5 -13.5c-11.333 0 -21.333 4.33301 -30 13s-13 19 -13 31c0 13.333 4.5 24.5 13.5 33.5s20.167 13.5 33.5 13.5z
" />
    <glyph glyph-name="Igrave" unicode="&#xcc;" horiz-adv-x="254" 
d="M135 0h-73l82 667h74zM145 881l75 -133l-43 -25l-97 120z" />
    <glyph glyph-name="Iacute" unicode="&#xcd;" horiz-adv-x="254" 
d="M135 0h-73l82 667h74zM199 723l-37 25l107 133l56 -39z" />
    <glyph glyph-name="Icircumflex" unicode="&#xce;" horiz-adv-x="254" 
d="M135 0h-73l82 667h74zM104 723l-34 37l139 122l105 -122l-37 -36l-74 85z" />
    <glyph glyph-name="Idieresis" unicode="&#xcf;" horiz-adv-x="254" 
d="M135 0h-73l82 667h74zM265 825c12.667 0 23.499 -4.33398 32.499 -13.001s13.5 -18.667 13.5 -30c0 -14 -4.66699 -25.667 -14 -35s-20.666 -14 -33.999 -14c-12 0 -22.333 4.33301 -31 13s-13 19.334 -13 32.001s4.5 23.667 13.5 33s19.833 14 32.5 14zM127.999 823.999
c12 0 22.333 -4.33301 31 -13s13 -19 13 -31c0 -13.333 -4.5 -24.5 -13.5 -33.5s-20.5 -13.5 -34.5 -13.5c-11.333 0 -21.333 4.33301 -30 13s-13 19 -13 31c0 13.333 4.5 24.5 13.5 33.5s20.167 13.5 33.5 13.5z" />
    <glyph glyph-name="Eth" unicode="&#xd0;" horiz-adv-x="635" 
d="M278 667c47.333 0 85.165 -2.83301 113.498 -8.5s53.833 -15.5 76.5 -29.5c40.667 -24.667 72.667 -61.167 96 -109.5s35 -102.166 35 -161.499c0 -38 -4.66699 -74.333 -14 -109s-22.666 -66.5 -39.999 -95.5s-38.166 -54.333 -62.499 -76s-51.5 -38.834 -81.5 -51.501
c-12 -4.66699 -23.833 -8.66699 -35.5 -12s-24.5 -6 -38.5 -8s-29.833 -3.5 -47.5 -4.5s-38.5 -1.5 -62.5 -1.5h-155l38 313h-56l8 68h57l35 286h134zM181.999 381h154.001l-9 -68h-153l-30 -245h83c46 0 82.5 3.16699 109.5 9.5s51.833 17.166 74.5 32.499
c16.667 12 32 27 46 45s26 38 36 60s17.667 45.333 23 70s8 49.667 8 75c0 54 -11 100.833 -33 140.5s-52 66.834 -90 81.501c-14.667 6 -31.334 10.333 -50.001 13s-41.667 4 -69 4h-73z" />
    <glyph glyph-name="Ntilde" unicode="&#xd1;" horiz-adv-x="742" 
d="M620 -33l-421 550l-64 -517h-73l86 696l420 -549l64 520h74zM593 804c-15.333 -26 -30 -44.333 -44 -55s-30.667 -16 -50 -16c-5.33301 0 -10.333 0.333008 -15 1s-10 2 -16 4s-13 4.83301 -21 8.5s-18.667 8.83398 -32 15.501
c-9.33301 4.66699 -16.833 7.83398 -22.5 9.50098s-10.834 2.5 -15.501 2.5c-10 0 -18.667 -3 -26 -9s-14.666 -16.333 -21.999 -31l-45 28c17.333 27.333 32.833 46 46.5 56s30.167 15 49.5 15c5.33301 0 9.83301 -0.166992 13.5 -0.5s8.16699 -1.33301 13.5 -3
s12.166 -4.33398 20.499 -8.00098l33.5 -15.5c20.667 -9.33301 35.334 -14 44.001 -14c8 0 15 2.66699 21 8s13.667 15.666 23 30.999z" />
    <glyph glyph-name="Ograve" unicode="&#xd2;" horiz-adv-x="785" 
d="M412 680c50 0 95.6689 -7.83398 137.002 -23.501s76.833 -37.834 106.5 -66.501s52.5 -63 68.5 -103s24 -84.333 24 -133c0 -52.667 -8.83301 -101.5 -26.5 -146.5s-42.167 -83.833 -73.5 -116.5s-68.333 -58.167 -111 -76.5s-89.334 -27.5 -140.001 -27.5
c-48.667 0 -93.334 8.16699 -134.001 24.5s-75.667 39 -105 68s-52.333 63.5 -69 103.5s-25 83.667 -25 131c0 52.667 8.83301 101.334 26.5 146.001s42 83.334 73 116.001s67.667 58.167 110 76.5s88.5 27.5 138.5 27.5zM417.002 609.999
c-40 0 -76.833 -7.33301 -110.5 -22s-63 -34.834 -88 -60.501s-44.5 -56.167 -58.5 -91.5s-21 -73.666 -21 -114.999c0 -38 6.5 -73.167 19.5 -105.5s31 -60.333 54 -84s50.333 -42 82 -55s66.167 -19.5 103.5 -19.5c40 0 76.667 7.5 110 22.5s62.333 35.667 87 62
s43.834 57.666 57.501 93.999s20.5 75.833 20.5 118.5c0 38.667 -6 73.834 -18 105.501s-29.167 58.667 -51.5 81s-49.333 39.5 -81 51.5s-66.834 18 -105.501 18zM411.002 880.999l75 -133l-43 -25l-97 120z" />
    <glyph glyph-name="Oacute" unicode="&#xd3;" horiz-adv-x="785" 
d="M412 680c50 0 95.6689 -7.83398 137.002 -23.501s76.833 -37.834 106.5 -66.501s52.5 -63 68.5 -103s24 -84.333 24 -133c0 -52.667 -8.83301 -101.5 -26.5 -146.5s-42.167 -83.833 -73.5 -116.5s-68.333 -58.167 -111 -76.5s-89.334 -27.5 -140.001 -27.5
c-48.667 0 -93.334 8.16699 -134.001 24.5s-75.667 39 -105 68s-52.333 63.5 -69 103.5s-25 83.667 -25 131c0 52.667 8.83301 101.334 26.5 146.001s42 83.334 73 116.001s67.667 58.167 110 76.5s88.5 27.5 138.5 27.5zM417.002 609.999
c-40 0 -76.833 -7.33301 -110.5 -22s-63 -34.834 -88 -60.501s-44.5 -56.167 -58.5 -91.5s-21 -73.666 -21 -114.999c0 -38 6.5 -73.167 19.5 -105.5s31 -60.333 54 -84s50.333 -42 82 -55s66.167 -19.5 103.5 -19.5c40 0 76.667 7.5 110 22.5s62.333 35.667 87 62
s43.834 57.666 57.501 93.999s20.5 75.833 20.5 118.5c0 38.667 -6 73.834 -18 105.501s-29.167 58.667 -51.5 81s-49.333 39.5 -81 51.5s-66.834 18 -105.501 18zM465.002 722.999l-37 25l107 133l56 -39z" />
    <glyph glyph-name="Ocircumflex" unicode="&#xd4;" horiz-adv-x="785" 
d="M412 680c50 0 95.6689 -7.83398 137.002 -23.501s76.833 -37.834 106.5 -66.501s52.5 -63 68.5 -103s24 -84.333 24 -133c0 -52.667 -8.83301 -101.5 -26.5 -146.5s-42.167 -83.833 -73.5 -116.5s-68.333 -58.167 -111 -76.5s-89.334 -27.5 -140.001 -27.5
c-48.667 0 -93.334 8.16699 -134.001 24.5s-75.667 39 -105 68s-52.333 63.5 -69 103.5s-25 83.667 -25 131c0 52.667 8.83301 101.334 26.5 146.001s42 83.334 73 116.001s67.667 58.167 110 76.5s88.5 27.5 138.5 27.5zM417.002 609.999
c-40 0 -76.833 -7.33301 -110.5 -22s-63 -34.834 -88 -60.501s-44.5 -56.167 -58.5 -91.5s-21 -73.666 -21 -114.999c0 -38 6.5 -73.167 19.5 -105.5s31 -60.333 54 -84s50.333 -42 82 -55s66.167 -19.5 103.5 -19.5c40 0 76.667 7.5 110 22.5s62.333 35.667 87 62
s43.834 57.666 57.501 93.999s20.5 75.833 20.5 118.5c0 38.667 -6 73.834 -18 105.501s-29.167 58.667 -51.5 81s-49.333 39.5 -81 51.5s-66.834 18 -105.501 18zM370.002 722.999l-34 37l139 122l105 -122l-37 -36l-74 85z" />
    <glyph glyph-name="Otilde" unicode="&#xd5;" horiz-adv-x="785" 
d="M412 680c50 0 95.6689 -7.83398 137.002 -23.501s76.833 -37.834 106.5 -66.501s52.5 -63 68.5 -103s24 -84.333 24 -133c0 -52.667 -8.83301 -101.5 -26.5 -146.5s-42.167 -83.833 -73.5 -116.5s-68.333 -58.167 -111 -76.5s-89.334 -27.5 -140.001 -27.5
c-48.667 0 -93.334 8.16699 -134.001 24.5s-75.667 39 -105 68s-52.333 63.5 -69 103.5s-25 83.667 -25 131c0 52.667 8.83301 101.334 26.5 146.001s42 83.334 73 116.001s67.667 58.167 110 76.5s88.5 27.5 138.5 27.5zM417.002 609.999
c-40 0 -76.833 -7.33301 -110.5 -22s-63 -34.834 -88 -60.501s-44.5 -56.167 -58.5 -91.5s-21 -73.666 -21 -114.999c0 -38 6.5 -73.167 19.5 -105.5s31 -60.333 54 -84s50.333 -42 82 -55s66.167 -19.5 103.5 -19.5c40 0 76.667 7.5 110 22.5s62.333 35.667 87 62
s43.834 57.666 57.501 93.999s20.5 75.833 20.5 118.5c0 38.667 -6 73.834 -18 105.501s-29.167 58.667 -51.5 81s-49.333 39.5 -81 51.5s-66.834 18 -105.501 18zM615.002 803.999c-15.333 -26 -30 -44.333 -44 -55s-30.667 -16 -50 -16c-5.33301 0 -10.333 0.333008 -15 1
s-10 2 -16 4s-13 4.83301 -21 8.5s-18.667 8.83398 -32 15.501c-9.33301 4.66699 -16.833 7.83398 -22.5 9.50098s-10.834 2.5 -15.501 2.5c-10 0 -18.667 -3 -26 -9s-14.666 -16.333 -21.999 -31l-45 28c17.333 27.333 32.833 46 46.5 56s30.167 15 49.5 15
c5.33301 0 9.83301 -0.166992 13.5 -0.5s8.16699 -1.33301 13.5 -3s12.166 -4.33398 20.499 -8.00098l33.5 -15.5c20.667 -9.33301 35.334 -14 44.001 -14c8 0 15 2.66699 21 8s13.667 15.666 23 30.999z" />
    <glyph glyph-name="Odieresis" unicode="&#xd6;" horiz-adv-x="785" 
d="M412 680c50 0 95.6689 -7.83398 137.002 -23.501s76.833 -37.834 106.5 -66.501s52.5 -63 68.5 -103s24 -84.333 24 -133c0 -52.667 -8.83301 -101.5 -26.5 -146.5s-42.167 -83.833 -73.5 -116.5s-68.333 -58.167 -111 -76.5s-89.334 -27.5 -140.001 -27.5
c-48.667 0 -93.334 8.16699 -134.001 24.5s-75.667 39 -105 68s-52.333 63.5 -69 103.5s-25 83.667 -25 131c0 52.667 8.83301 101.334 26.5 146.001s42 83.334 73 116.001s67.667 58.167 110 76.5s88.5 27.5 138.5 27.5zM417.002 609.999
c-40 0 -76.833 -7.33301 -110.5 -22s-63 -34.834 -88 -60.501s-44.5 -56.167 -58.5 -91.5s-21 -73.666 -21 -114.999c0 -38 6.5 -73.167 19.5 -105.5s31 -60.333 54 -84s50.333 -42 82 -55s66.167 -19.5 103.5 -19.5c40 0 76.667 7.5 110 22.5s62.333 35.667 87 62
s43.834 57.666 57.501 93.999s20.5 75.833 20.5 118.5c0 38.667 -6 73.834 -18 105.501s-29.167 58.667 -51.5 81s-49.333 39.5 -81 51.5s-66.834 18 -105.501 18zM541.002 824.999c12.667 0 23.499 -4.33398 32.499 -13.001s13.5 -18.667 13.5 -30
c0 -14 -4.66699 -25.667 -14 -35s-20.666 -14 -33.999 -14c-12 0 -22.333 4.33301 -31 13s-13 19.334 -13 32.001s4.5 23.667 13.5 33s19.833 14 32.5 14zM384.001 823.998c12 0 22.333 -4.33301 31 -13s13 -19 13 -31c0 -13.333 -4.5 -24.5 -13.5 -33.5
s-20.5 -13.5 -34.5 -13.5c-11.333 0 -21.333 4.33301 -30 13s-13 19 -13 31c0 13.333 4.5 24.5 13.5 33.5s20.167 13.5 33.5 13.5z" />
    <glyph glyph-name="multiply" unicode="&#xd7;" 
d="M138 539l158 -158l157 158l44 -44l-157 -157l157 -159l-39 -39l-156 159l-157 -159l-43 44l156 158l-160 159z" />
    <glyph glyph-name="Oslash" unicode="&#xd8;" horiz-adv-x="785" 
d="M72 -11l-44.999 50.001l94 85c-38 57.333 -57 120.666 -57 189.999c0 52.667 8.83301 101.334 26.5 146.001s42 83.334 73 116.001s67.667 58.167 110 76.5s88.5 27.5 138.5 27.5c48 0 90.667 -6.33301 128 -19s72 -32.667 104 -60l93 84l45 -48l-93 -86
c40 -54.667 60 -120.667 60 -198c0 -52.667 -8.83301 -101.334 -26.5 -146.001s-42.167 -83.334 -73.5 -116.001s-68.333 -58.167 -111 -76.5s-89.334 -27.5 -140.001 -27.5c-92.667 0 -170.667 28.667 -234 86zM220.001 124.001c25.333 -23.333 52.666 -40.333 81.999 -51
s61.666 -16 96.999 -16c39.333 0 75.833 7.5 109.5 22.5s62.834 35.667 87.501 62s43.834 57.5 57.501 93.5s20.5 75 20.5 117c0 58 -13 108 -39 150zM591.001 552.001c-46.667 38.667 -104.666 58 -173.999 58c-40 0 -76.833 -7.33301 -110.5 -22s-63 -34.834 -88 -60.501
s-44.5 -56.167 -58.5 -91.5s-21 -73.666 -21 -114.999c0 -27.333 3.16699 -52.333 9.5 -75s16.166 -46 29.499 -70z" />
    <glyph glyph-name="Ugrave" unicode="&#xd9;" horiz-adv-x="659" 
d="M573 258c-5.33301 -41.333 -11.9951 -75.168 -19.9951 -101.501s-18.667 -49.5 -32 -69.5c-22.667 -32.667 -50.667 -57.5 -84 -74.5s-71.333 -25.5 -114 -25.5c-34 0 -65.333 5 -94 15s-53.334 24.167 -74.001 42.5s-36.667 40.166 -48 65.499s-17 53 -17 83
c0 12.667 0.333008 24.167 1 34.5s1.66699 21.833 3 34.5l50 405h73l-50 -413c-1.33301 -9.33301 -2.33301 -18.666 -3 -27.999s-1 -17 -1 -23c0 -45.333 14.167 -81 42.5 -107s66.5 -39 114.5 -39c25.333 0 48.666 4.5 69.999 13.5s39.666 21.833 54.999 38.5
s27.166 36.834 35.499 60.501s15.166 55.5 20.499 95.5l49 402h73zM348.005 880.998l75 -133l-43 -25l-97 120z" />
    <glyph glyph-name="Uacute" unicode="&#xda;" horiz-adv-x="659" 
d="M573 258c-5.33301 -41.333 -11.9951 -75.168 -19.9951 -101.501s-18.667 -49.5 -32 -69.5c-22.667 -32.667 -50.667 -57.5 -84 -74.5s-71.333 -25.5 -114 -25.5c-34 0 -65.333 5 -94 15s-53.334 24.167 -74.001 42.5s-36.667 40.166 -48 65.499s-17 53 -17 83
c0 12.667 0.333008 24.167 1 34.5s1.66699 21.833 3 34.5l50 405h73l-50 -413c-1.33301 -9.33301 -2.33301 -18.666 -3 -27.999s-1 -17 -1 -23c0 -45.333 14.167 -81 42.5 -107s66.5 -39 114.5 -39c25.333 0 48.666 4.5 69.999 13.5s39.666 21.833 54.999 38.5
s27.166 36.834 35.499 60.501s15.166 55.5 20.499 95.5l49 402h73zM402.005 722.998l-37 25l107 133l56 -39z" />
    <glyph glyph-name="Ucircumflex" unicode="&#xdb;" horiz-adv-x="659" 
d="M573 258c-5.33301 -41.333 -11.9951 -75.168 -19.9951 -101.501s-18.667 -49.5 -32 -69.5c-22.667 -32.667 -50.667 -57.5 -84 -74.5s-71.333 -25.5 -114 -25.5c-34 0 -65.333 5 -94 15s-53.334 24.167 -74.001 42.5s-36.667 40.166 -48 65.499s-17 53 -17 83
c0 12.667 0.333008 24.167 1 34.5s1.66699 21.833 3 34.5l50 405h73l-50 -413c-1.33301 -9.33301 -2.33301 -18.666 -3 -27.999s-1 -17 -1 -23c0 -45.333 14.167 -81 42.5 -107s66.5 -39 114.5 -39c25.333 0 48.666 4.5 69.999 13.5s39.666 21.833 54.999 38.5
s27.166 36.834 35.499 60.501s15.166 55.5 20.499 95.5l49 402h73zM307.005 722.998l-34 37l139 122l105 -122l-37 -36l-74 85z" />
    <glyph glyph-name="Udieresis" unicode="&#xdc;" horiz-adv-x="659" 
d="M573 258c-5.33301 -41.333 -11.9951 -75.168 -19.9951 -101.501s-18.667 -49.5 -32 -69.5c-22.667 -32.667 -50.667 -57.5 -84 -74.5s-71.333 -25.5 -114 -25.5c-34 0 -65.333 5 -94 15s-53.334 24.167 -74.001 42.5s-36.667 40.166 -48 65.499s-17 53 -17 83
c0 12.667 0.333008 24.167 1 34.5s1.66699 21.833 3 34.5l50 405h73l-50 -413c-1.33301 -9.33301 -2.33301 -18.666 -3 -27.999s-1 -17 -1 -23c0 -45.333 14.167 -81 42.5 -107s66.5 -39 114.5 -39c25.333 0 48.666 4.5 69.999 13.5s39.666 21.833 54.999 38.5
s27.166 36.834 35.499 60.501s15.166 55.5 20.499 95.5l49 402h73zM478.005 824.998c12.667 0 23.499 -4.33398 32.499 -13.001s13.5 -18.667 13.5 -30c0 -14 -4.66699 -25.667 -14 -35s-20.666 -14 -33.999 -14c-12 0 -22.333 4.33301 -31 13s-13 19.334 -13 32.001
s4.5 23.667 13.5 33s19.833 14 32.5 14zM321.004 823.997c12 0 22.333 -4.33301 31 -13s13 -19 13 -31c0 -13.333 -4.5 -24.5 -13.5 -33.5s-20.5 -13.5 -34.5 -13.5c-11.333 0 -21.333 4.33301 -30 13s-13 19 -13 31c0 13.333 4.5 24.5 13.5 33.5s20.167 13.5 33.5 13.5z
" />
    <glyph glyph-name="Yacute" unicode="&#xdd;" horiz-adv-x="520" 
d="M266 0h-74l38 304l-173 363h80l138 -293l202 293h86l-261 -371zM332 723l-37 25l106 133l57 -39z" />
    <glyph glyph-name="Thorn" unicode="&#xde;" horiz-adv-x="480" 
d="M217 667l-11.002 -93.998h53c65.333 0 115 -15 149 -45s51 -73.667 51 -131c0 -38.667 -8.66699 -73.334 -26 -104.001s-41.666 -54.667 -72.999 -72c-16.667 -8.66699 -35.167 -14.834 -55.5 -18.501s-46.166 -5.5 -77.499 -5.5h-67l-25 -197h-73l82 667h73z
M167.998 265.002h63.999c49.333 0 87 11.333 113 34s39 55 39 97c0 36 -10.667 63.167 -32 81.5s-52.666 27.5 -93.999 27.5h-60z" />
    <glyph glyph-name="germandbls" unicode="&#xdf;" horiz-adv-x="483" 
d="M83 350l-43 0.000976562l7 54h43l18 143c8 66.667 26 115.667 54 147s67.333 47 118 47c50 0 90.167 -15.333 120.5 -46s45.5 -71 45.5 -121c0 -44.667 -11.333 -83.5 -34 -116.5s-54.667 -56.833 -96 -71.5c79.333 -34 119 -90.333 119 -169
c0 -32 -5.16699 -61.667 -15.5 -89s-24.666 -51 -42.999 -71s-40 -35.667 -65 -47s-52.167 -17 -81.5 -17c-10.667 0 -20.334 0.666992 -29.001 2s-20.334 3.66602 -35.001 6.99902l8 62c11.333 -2.66699 20.833 -4.5 28.5 -5.5s15.834 -1.5 24.501 -1.5
c40.667 0 73.5 14.833 98.5 44.5s37.5 69.167 37.5 118.5c0 46 -12.5 80.5 -37.5 103.5s-63.5 35.167 -115.5 36.5l7 54h7c46 0 82.5 14.833 109.5 44.5s40.5 69.5 40.5 119.5c0 30 -8.5 54 -25.5 72s-39.5 27 -67.5 27c-30 0 -53.5 -10.833 -70.5 -32.5
s-28.167 -56.5 -33.5 -104.5l-67 -540h-70z" />
    <glyph glyph-name="agrave" unicode="&#xe0;" horiz-adv-x="523" 
d="M427 0l-70.0039 0.000976562l7 57c-25.333 -25.333 -48 -42.833 -68 -52.5s-44 -14.5 -72 -14.5s-53.5 4.83301 -76.5 14.5s-42.667 23.167 -59 40.5s-29.166 38.166 -38.499 62.499s-14 50.833 -14 79.5c0 32.667 5.33301 62.834 16 90.501s25.334 51.667 44.001 72
s40.834 36.166 66.501 47.499s53.5 17 83.5 17c34 0 62.333 -5.5 85 -16.5s45.334 -30.833 68.001 -59.5l8 66h70zM253.996 350.001c-20.667 0 -40 -4.16797 -58 -12.501s-33.5 -19.666 -46.5 -33.999s-23.167 -31.5 -30.5 -51.5s-11 -41.667 -11 -65
c0 -18.667 3.33301 -36.167 10 -52.5s15.667 -30.5 27 -42.5s25 -21.333 41 -28s33 -10 51 -10c20.667 0 40 4.33301 58 13s33.833 20.5 47.5 35.5s24.5 32.5 32.5 52.5s12 41.333 12 64c0 38.667 -12.333 70.167 -37 94.5s-56.667 36.5 -96 36.5zM247.996 624l75 -133
l-43 -24l-97 119z" />
    <glyph glyph-name="aacute" unicode="&#xe1;" horiz-adv-x="523" 
d="M427 0l-70.0039 0.000976562l7 57c-25.333 -25.333 -48 -42.833 -68 -52.5s-44 -14.5 -72 -14.5s-53.5 4.83301 -76.5 14.5s-42.667 23.167 -59 40.5s-29.166 38.166 -38.499 62.499s-14 50.833 -14 79.5c0 32.667 5.33301 62.834 16 90.501s25.334 51.667 44.001 72
s40.834 36.166 66.501 47.499s53.5 17 83.5 17c34 0 62.333 -5.5 85 -16.5s45.334 -30.833 68.001 -59.5l8 66h70zM253.996 350.001c-20.667 0 -40 -4.16797 -58 -12.501s-33.5 -19.666 -46.5 -33.999s-23.167 -31.5 -30.5 -51.5s-11 -41.667 -11 -65
c0 -18.667 3.33301 -36.167 10 -52.5s15.667 -30.5 27 -42.5s25 -21.333 41 -28s33 -10 51 -10c20.667 0 40 4.33301 58 13s33.833 20.5 47.5 35.5s24.5 32.5 32.5 52.5s12 41.333 12 64c0 38.667 -12.333 70.167 -37 94.5s-56.667 36.5 -96 36.5zM301.996 467l-37 25
l107 132l56 -39z" />
    <glyph glyph-name="acircumflex" unicode="&#xe2;" horiz-adv-x="523" 
d="M427 0l-70.0039 0.000976562l7 57c-25.333 -25.333 -48 -42.833 -68 -52.5s-44 -14.5 -72 -14.5s-53.5 4.83301 -76.5 14.5s-42.667 23.167 -59 40.5s-29.166 38.166 -38.499 62.499s-14 50.833 -14 79.5c0 32.667 5.33301 62.834 16 90.501s25.334 51.667 44.001 72
s40.834 36.166 66.501 47.499s53.5 17 83.5 17c34 0 62.333 -5.5 85 -16.5s45.334 -30.833 68.001 -59.5l8 66h70zM253.996 350.001c-20.667 0 -40 -4.16797 -58 -12.501s-33.5 -19.666 -46.5 -33.999s-23.167 -31.5 -30.5 -51.5s-11 -41.667 -11 -65
c0 -18.667 3.33301 -36.167 10 -52.5s15.667 -30.5 27 -42.5s25 -21.333 41 -28s33 -10 51 -10c20.667 0 40 4.33301 58 13s33.833 20.5 47.5 35.5s24.5 32.5 32.5 52.5s12 41.333 12 64c0 38.667 -12.333 70.167 -37 94.5s-56.667 36.5 -96 36.5zM206.996 467l-34 36
l139 122l105 -122l-37 -36l-74 85z" />
    <glyph glyph-name="atilde" unicode="&#xe3;" horiz-adv-x="523" 
d="M427 0l-70.0039 0.000976562l7 57c-25.333 -25.333 -48 -42.833 -68 -52.5s-44 -14.5 -72 -14.5s-53.5 4.83301 -76.5 14.5s-42.667 23.167 -59 40.5s-29.166 38.166 -38.499 62.499s-14 50.833 -14 79.5c0 32.667 5.33301 62.834 16 90.501s25.334 51.667 44.001 72
s40.834 36.166 66.501 47.499s53.5 17 83.5 17c34 0 62.333 -5.5 85 -16.5s45.334 -30.833 68.001 -59.5l8 66h70zM253.996 350.001c-20.667 0 -40 -4.16797 -58 -12.501s-33.5 -19.666 -46.5 -33.999s-23.167 -31.5 -30.5 -51.5s-11 -41.667 -11 -65
c0 -18.667 3.33301 -36.167 10 -52.5s15.667 -30.5 27 -42.5s25 -21.333 41 -28s33 -10 51 -10c20.667 0 40 4.33301 58 13s33.833 20.5 47.5 35.5s24.5 32.5 32.5 52.5s12 41.333 12 64c0 38.667 -12.333 70.167 -37 94.5s-56.667 36.5 -96 36.5zM450.996 540
c-15.333 -25.333 -30.001 -43.332 -44.001 -53.999s-30.667 -16 -50 -16c-5.33301 0 -10.333 0.333008 -15 1s-10 2 -16 4s-13.167 5 -21.5 9l-31.5 15c-9.33301 4.66699 -16.833 7.83398 -22.5 9.50098s-11.167 2.5 -16.5 2.5c-10 0 -18.5 -3 -25.5 -9
s-14.167 -16.333 -21.5 -31l-45 28c17.333 27.333 32.833 46 46.5 56s30.167 15 49.5 15c4.66699 0 9 -0.333008 13 -1s8.83301 -1.83398 14.5 -3.50098s12.667 -4.33398 21 -8.00098l32.5 -14.5c20.667 -9.33301 35.334 -14 44.001 -14c8 0 15 2.5 21 7.5
s13.667 15.167 23 30.5z" />
    <glyph glyph-name="adieresis" unicode="&#xe4;" horiz-adv-x="523" 
d="M427 0l-70.0039 0.000976562l7 57c-25.333 -25.333 -48 -42.833 -68 -52.5s-44 -14.5 -72 -14.5s-53.5 4.83301 -76.5 14.5s-42.667 23.167 -59 40.5s-29.166 38.166 -38.499 62.499s-14 50.833 -14 79.5c0 32.667 5.33301 62.834 16 90.501s25.334 51.667 44.001 72
s40.834 36.166 66.501 47.499s53.5 17 83.5 17c34 0 62.333 -5.5 85 -16.5s45.334 -30.833 68.001 -59.5l8 66h70zM253.996 350.001c-20.667 0 -40 -4.16797 -58 -12.501s-33.5 -19.666 -46.5 -33.999s-23.167 -31.5 -30.5 -51.5s-11 -41.667 -11 -65
c0 -18.667 3.33301 -36.167 10 -52.5s15.667 -30.5 27 -42.5s25 -21.333 41 -28s33 -10 51 -10c20.667 0 40 4.33301 58 13s33.833 20.5 47.5 35.5s24.5 32.5 32.5 52.5s12 41.333 12 64c0 38.667 -12.333 70.167 -37 94.5s-56.667 36.5 -96 36.5zM376.996 562
c12.667 0 23.499 -4.33398 32.499 -13.001s13.5 -18.667 13.5 -30c0 -14 -4.66699 -25.667 -14 -35s-20.666 -14 -33.999 -14c-12 0 -22.333 4.33301 -31 13s-13 19.334 -13 32.001s4.5 23.667 13.5 33s19.833 14 32.5 14zM219.995 562.999c12 0 22.333 -4.33301 31 -13
s13 -19 13 -31c0 -13.333 -4.5 -24.5 -13.5 -33.5s-20.5 -13.5 -34.5 -13.5c-11.333 0 -21.333 4.33301 -30 13s-13 19 -13 31c0 13.333 4.5 24.5 13.5 33.5s20.167 13.5 33.5 13.5z" />
    <glyph glyph-name="aring" unicode="&#xe5;" horiz-adv-x="523" 
d="M427 0l-70.0039 0.000976562l7 57c-25.333 -25.333 -48 -42.833 -68 -52.5s-44 -14.5 -72 -14.5s-53.5 4.83301 -76.5 14.5s-42.667 23.167 -59 40.5s-29.166 38.166 -38.499 62.499s-14 50.833 -14 79.5c0 32.667 5.33301 62.834 16 90.501s25.334 51.667 44.001 72
s40.834 36.166 66.501 47.499s53.5 17 83.5 17c34 0 62.333 -5.5 85 -16.5s45.334 -30.833 68.001 -59.5l8 66h70zM253.996 350.001c-20.667 0 -40 -4.16797 -58 -12.501s-33.5 -19.666 -46.5 -33.999s-23.167 -31.5 -30.5 -51.5s-11 -41.667 -11 -65
c0 -18.667 3.33301 -36.167 10 -52.5s15.667 -30.5 27 -42.5s25 -21.333 41 -28s33 -10 51 -10c20.667 0 40 4.33301 58 13s33.833 20.5 47.5 35.5s24.5 32.5 32.5 52.5s12 41.333 12 64c0 38.667 -12.333 70.167 -37 94.5s-56.667 36.5 -96 36.5zM301.996 631
c21.333 0 39.998 -7.50195 55.998 -22.502s24 -33.167 24 -54.5c0 -23.333 -7.66699 -43.166 -23 -59.499s-34.666 -24.5 -57.999 -24.5c-22 0 -40.833 7.83301 -56.5 23.5s-23.5 34.834 -23.5 57.501c0 22 7.83301 40.833 23.5 56.5s34.834 23.5 57.501 23.5z
M301.994 584.998c-9.33301 0 -17.5 -3.16797 -24.5 -9.50098s-10.5 -14.166 -10.5 -23.499c0 -10 3.33301 -18.5 10 -25.5s14.667 -10.5 24 -10.5c10 0 18.333 3.33301 25 10s10 15.667 10 27c0 8.66699 -3.33301 16.167 -10 22.5s-14.667 9.5 -24 9.5z" />
    <glyph glyph-name="ae" unicode="&#xe6;" horiz-adv-x="745" 
d="M384 186c-0.666992 -3.33301 -0.998047 -6.16504 -0.998047 -8.49805v-5.5c0 -36 12.167 -65.167 36.5 -87.5s56.166 -33.5 95.499 -33.5c24.667 0 46 4.33301 64 13s35.667 22.667 53 42l49 -36c-42 -55.333 -97.333 -83 -166 -83c-40.667 0 -74.5 7.33301 -101.5 22
s-48.833 37.334 -65.5 68.001c-19.333 -32 -41.333 -55 -66 -69s-55 -21 -91 -21c-24 0 -46.333 3.66699 -67 11s-38.5 17.166 -53.5 29.499s-26.833 27.166 -35.5 44.499s-13 36 -13 56c0 18.667 4.16699 36 12.5 52s19.833 30 34.5 42s31.667 21.5 51 28.5
s40.333 10.5 63 10.5c54.667 0 99.334 -17.333 134.001 -52l1.5 12c0.333008 2.66699 0.833008 5.5 1.5 8.5s1.33398 7 2.00098 12l3 22.5c0.666992 4 1 7.66699 1 11v10c0 21.333 -9.33301 38 -28 50s-45.334 18 -80.001 18c-17.333 0 -34.333 -1.33301 -51 -4
s-35.334 -6.66699 -56.001 -12l8 65c22.667 5.33301 42 9.16602 58 11.499s32.667 3.5 50 3.5c40 0 72 -6 96 -18s42.333 -31.333 55 -58c38 50.667 85.333 76 142 76c28.667 0 54.667 -5 78 -15s43.166 -24.167 59.499 -42.5s29 -40.5 38 -66.5s13.5 -55 13.5 -87v-20h-325
zM195.002 197.001c-30 0 -54.333 -6.66895 -73 -20.002s-28 -30.666 -28 -51.999c0 -20.667 9.83301 -38.167 29.5 -52.5s43.834 -21.5 72.501 -21.5c33.333 0 60.166 6.83301 80.499 20.5s30.5 31.834 30.5 54.501c0 21.333 -10.333 38.5 -31 51.5s-47.667 19.5 -81 19.5z
M642.002 243.999c-3.33301 34 -15.666 60.667 -36.999 80s-49 29 -83 29c-66.667 0 -110.334 -36.333 -131.001 -109h251z" />
    <glyph glyph-name="ccedilla" unicode="&#xe7;" horiz-adv-x="411" 
d="M384 287c-21.333 24 -41.668 41.001 -61.001 51.001s-42.666 15 -69.999 15c-20.667 0 -40 -4 -58 -12s-33.333 -19.167 -46 -33.5s-22.667 -31.333 -30 -51s-11 -41.167 -11 -64.5c0 -42 13 -76 39 -102s60 -39 102 -39c20.667 0 39.334 3.33301 56.001 10
s35.334 18.667 56.001 36l-10 -79c-20 -11.333 -38.5 -19.333 -55.5 -24s-36.833 -7 -59.5 -7c-28.667 0 -55.334 5 -80.001 15s-45.834 24 -63.501 42s-31.5 39.5 -41.5 64.5s-15 52.167 -15 81.5c0 32 5.5 61.833 16.5 89.5s26 51.667 45 72s41.333 36.333 67 48
s53.5 17.5 83.5 17.5s55.5 -3.83301 76.5 -11.5s43.833 -21.834 68.5 -42.501zM134.998 -204.999l-42 25l80 133l69 -37z" />
    <glyph glyph-name="egrave" unicode="&#xe8;" horiz-adv-x="469" 
d="M108 185c1.33301 -42.667 13.334 -75.6709 36.001 -99.0039s54.334 -35 95.001 -35c46.667 0 84 18 112 54l54 -32c-21.333 -30 -45.333 -51.833 -72 -65.5s-58.334 -20.5 -95.001 -20.5c-30.667 0 -58.334 4.66699 -83.001 14s-45.834 22.833 -63.501 40.5
s-31.334 38.834 -41.001 63.501s-14.5 52 -14.5 82c0 32.667 5.33301 63 16 91s25.334 52.333 44.001 73s40.667 36.834 66 48.501s53 17.5 83 17.5c40.667 0 76.334 -10.667 107.001 -32s52.667 -50.666 66 -87.999c5.33301 -15.333 9 -31.166 11 -47.499
s3 -37.833 3 -64.5h-324zM360.001 242.996c-2.66699 34.667 -14.5 61.667 -35.5 81s-48.5 29 -82.5 29c-67.333 0 -110 -36.667 -128 -110h246zM221.001 623.996l75 -133l-43 -24l-97 119z" />
    <glyph glyph-name="eacute" unicode="&#xe9;" horiz-adv-x="469" 
d="M108 185c1.33301 -42.667 13.334 -75.6709 36.001 -99.0039s54.334 -35 95.001 -35c46.667 0 84 18 112 54l54 -32c-21.333 -30 -45.333 -51.833 -72 -65.5s-58.334 -20.5 -95.001 -20.5c-30.667 0 -58.334 4.66699 -83.001 14s-45.834 22.833 -63.501 40.5
s-31.334 38.834 -41.001 63.501s-14.5 52 -14.5 82c0 32.667 5.33301 63 16 91s25.334 52.333 44.001 73s40.667 36.834 66 48.501s53 17.5 83 17.5c40.667 0 76.334 -10.667 107.001 -32s52.667 -50.666 66 -87.999c5.33301 -15.333 9 -31.166 11 -47.499
s3 -37.833 3 -64.5h-324zM360.001 242.996c-2.66699 34.667 -14.5 61.667 -35.5 81s-48.5 29 -82.5 29c-67.333 0 -110 -36.667 -128 -110h246zM274.001 466.996l-37 25l107 132l56 -39z" />
    <glyph glyph-name="ecircumflex" unicode="&#xea;" horiz-adv-x="469" 
d="M108 185c1.33301 -42.667 13.334 -75.6709 36.001 -99.0039s54.334 -35 95.001 -35c46.667 0 84 18 112 54l54 -32c-21.333 -30 -45.333 -51.833 -72 -65.5s-58.334 -20.5 -95.001 -20.5c-30.667 0 -58.334 4.66699 -83.001 14s-45.834 22.833 -63.501 40.5
s-31.334 38.834 -41.001 63.501s-14.5 52 -14.5 82c0 32.667 5.33301 63 16 91s25.334 52.333 44.001 73s40.667 36.834 66 48.501s53 17.5 83 17.5c40.667 0 76.334 -10.667 107.001 -32s52.667 -50.666 66 -87.999c5.33301 -15.333 9 -31.166 11 -47.499
s3 -37.833 3 -64.5h-324zM360.001 242.996c-2.66699 34.667 -14.5 61.667 -35.5 81s-48.5 29 -82.5 29c-67.333 0 -110 -36.667 -128 -110h246zM180.001 466.996l-34 36l139 122l105 -122l-37 -36l-74 85z" />
    <glyph glyph-name="edieresis" unicode="&#xeb;" horiz-adv-x="469" 
d="M108 185c1.33301 -42.667 13.334 -75.6709 36.001 -99.0039s54.334 -35 95.001 -35c46.667 0 84 18 112 54l54 -32c-21.333 -30 -45.333 -51.833 -72 -65.5s-58.334 -20.5 -95.001 -20.5c-30.667 0 -58.334 4.66699 -83.001 14s-45.834 22.833 -63.501 40.5
s-31.334 38.834 -41.001 63.501s-14.5 52 -14.5 82c0 32.667 5.33301 63 16 91s25.334 52.333 44.001 73s40.667 36.834 66 48.501s53 17.5 83 17.5c40.667 0 76.334 -10.667 107.001 -32s52.667 -50.666 66 -87.999c5.33301 -15.333 9 -31.166 11 -47.499
s3 -37.833 3 -64.5h-324zM360.001 242.996c-2.66699 34.667 -14.5 61.667 -35.5 81s-48.5 29 -82.5 29c-67.333 0 -110 -36.667 -128 -110h246zM350.001 561.996c12.667 0 23.499 -4.33398 32.499 -13.001s13.5 -18.667 13.5 -30c0 -14 -4.66699 -25.667 -14 -35
s-20.666 -14 -33.999 -14c-12 0 -22.333 4.33301 -31 13s-13 19.334 -13 32.001s4.5 23.667 13.5 33s19.833 14 32.5 14zM193 562.995c12 0 22.333 -4.33301 31 -13s13 -19 13 -31c0 -13.333 -4.5 -24.5 -13.5 -33.5s-20.5 -13.5 -34.5 -13.5
c-11.333 0 -21.333 4.33301 -30 13s-13 19 -13 31c0 13.333 4.5 24.5 13.5 33.5s20.167 13.5 33.5 13.5z" />
    <glyph glyph-name="igrave" unicode="&#xec;" horiz-adv-x="206" 
d="M110 0h-70l50 404h70zM90 624l75 -133l-43 -24l-97 119z" />
    <glyph glyph-name="iacute" unicode="&#xed;" horiz-adv-x="206" 
d="M110 0h-70l50 404h70zM143 467l-37 25l107 132l56 -39z" />
    <glyph glyph-name="icircumflex" unicode="&#xee;" horiz-adv-x="206" 
d="M110 0h-70l50 404h70zM49 467l-34 36l139 122l105 -122l-37 -36l-74 85z" />
    <glyph glyph-name="idieresis" unicode="&#xef;" horiz-adv-x="206" 
d="M110 0h-70l50 404h70zM209 562c12.667 0 23.499 -4.33398 32.499 -13.001s13.5 -18.667 13.5 -30c0 -14 -4.66699 -25.667 -14 -35s-20.666 -14 -33.999 -14c-12 0 -22.333 4.33301 -31 13s-13 19.334 -13 32.001s4.5 23.667 13.5 33s19.833 14 32.5 14zM71.999 562.999
c12 0 22.333 -4.33301 31 -13s13 -19 13 -31c0 -13.333 -4.5 -24.5 -13.5 -33.5s-20.5 -13.5 -34.5 -13.5c-11.333 0 -21.333 4.33301 -30 13s-13 19 -13 31c0 13.333 4.5 24.5 13.5 33.5s20.167 13.5 33.5 13.5z" />
    <glyph glyph-name="eth" unicode="&#xf0;" horiz-adv-x="516" 
d="M178 732c26 -12.667 47.9951 -24.332 65.9951 -34.999s37.667 -23.667 59 -39l125 68l24 -48l-106 -57c46 -48.667 79.5 -101.167 100.5 -157.5s31.5 -120.833 31.5 -193.5c0 -89.333 -19.833 -158.833 -59.5 -208.5s-95.167 -74.5 -166.5 -74.5
c-30.667 0 -59.167 5.33301 -85.5 16s-49 25.167 -68 43.5s-34 40.166 -45 65.499s-16.5 53 -16.5 83c0 31.333 5.83301 60.5 17.5 87.5s27.5 50.5 47.5 70.5s43.5 35.667 70.5 47s56.167 17 87.5 17c28.667 0 54.334 -4.66699 77.001 -14s44.334 -24 65.001 -44
c-2.66699 25.333 -6.66699 48.333 -12 69s-12.333 40.167 -21 58.5s-19.167 36 -31.5 53s-27.166 34.5 -44.499 52.5l-132 -66l-23 47l112 57c-15.333 11.333 -30.666 22 -45.999 32s-34.666 21.333 -57.999 34zM259.995 353.002c-21.333 0 -41.167 -4 -59.5 -12
s-34.333 -19 -48 -33s-24.334 -30.5 -32.001 -49.5s-11.5 -39.5 -11.5 -61.5c0 -20.667 3.66699 -40 11 -58s17.333 -33.5 30 -46.5s27.834 -23.167 45.501 -30.5s36.5 -11 56.5 -11c21.333 0 41 3.83301 59 11.5s33.5 18.5 46.5 32.5s23.167 30.667 30.5 50
s11 40.333 11 63c0 42.667 -12.833 77.5 -38.5 104.5s-59.167 40.5 -100.5 40.5z" />
    <glyph glyph-name="ntilde" unicode="&#xf1;" horiz-adv-x="464" 
d="M153 354c12.667 11.333 24.002 20.832 34.002 28.499s19.833 13.834 29.5 18.501s19.5 8 29.5 10s21 3 33 3c36.667 0 66.167 -10.667 88.5 -32s33.5 -50 33.5 -86c0 -17.333 -2 -41 -6 -71l-27 -225h-70l29 236c1.33301 9.33301 2.33301 18.666 3 27.999s1 16.333 1 21
c0 43.333 -24.333 65 -73 65c-14 0 -28.333 -3 -43 -9s-27.334 -14 -38.001 -24c-12.667 -12 -21.834 -25.167 -27.501 -39.5s-10.167 -36.166 -13.5 -65.499l-26 -212h-70l50 404h70zM422.002 539.999c-15.333 -25.333 -30.001 -43.332 -44.001 -53.999
s-30.667 -16 -50 -16c-5.33301 0 -10.333 0.333008 -15 1s-10 2 -16 4s-13.167 5 -21.5 9l-31.5 15c-9.33301 4.66699 -16.833 7.83398 -22.5 9.50098s-11.167 2.5 -16.5 2.5c-10 0 -18.5 -3 -25.5 -9s-14.167 -16.333 -21.5 -31l-45 28c17.333 27.333 32.833 46 46.5 56
s30.167 15 49.5 15c4.66699 0 9 -0.333008 13 -1s8.83301 -1.83398 14.5 -3.50098s12.667 -4.33398 21 -8.00098l32.5 -14.5c20.667 -9.33301 35.334 -14 44.001 -14c8 0 15 2.5 21 7.5s13.667 15.167 23 30.5z" />
    <glyph glyph-name="ograve" unicode="&#xf2;" horiz-adv-x="513" 
d="M262 417c30 0 57.833 -5.16309 83.5 -15.4961s47.667 -24.833 66 -43.5s32.666 -40.834 42.999 -66.501s15.5 -53.834 15.5 -84.501c0 -31.333 -5.5 -60.333 -16.5 -87s-26.333 -49.834 -46 -69.501s-42.667 -35.167 -69 -46.5s-55.166 -17 -86.499 -17
c-30.667 0 -59.167 5.33301 -85.5 16s-49 25.167 -68 43.5s-34 40.166 -45 65.499s-16.5 53 -16.5 83c0 31.333 5.83301 60.5 17.5 87.5s27.5 50.5 47.5 70.5s43.667 35.667 71 47s57 17 89 17zM259 353.004c-21.333 0 -41.168 -4 -59.501 -12s-34.166 -19 -47.499 -33
s-23.833 -30.5 -31.5 -49.5s-11.5 -39.5 -11.5 -61.5c0 -20.667 3.66699 -40 11 -58s17.333 -33.5 30 -46.5s27.667 -23.167 45 -30.5s36 -11 56 -11c21.333 0 41 3.83301 59 11.5s33.5 18.5 46.5 32.5s23.167 30.667 30.5 50s11 40.333 11 63
c0 42.667 -12.833 77.5 -38.5 104.5s-59.167 40.5 -100.5 40.5zM242.998 624.004l75 -133l-43 -24l-97 119z" />
    <glyph glyph-name="oacute" unicode="&#xf3;" horiz-adv-x="513" 
d="M262 417c30 0 57.833 -5.16309 83.5 -15.4961s47.667 -24.833 66 -43.5s32.666 -40.834 42.999 -66.501s15.5 -53.834 15.5 -84.501c0 -31.333 -5.5 -60.333 -16.5 -87s-26.333 -49.834 -46 -69.501s-42.667 -35.167 -69 -46.5s-55.166 -17 -86.499 -17
c-30.667 0 -59.167 5.33301 -85.5 16s-49 25.167 -68 43.5s-34 40.166 -45 65.499s-16.5 53 -16.5 83c0 31.333 5.83301 60.5 17.5 87.5s27.5 50.5 47.5 70.5s43.667 35.667 71 47s57 17 89 17zM259 353.004c-21.333 0 -41.168 -4 -59.501 -12s-34.166 -19 -47.499 -33
s-23.833 -30.5 -31.5 -49.5s-11.5 -39.5 -11.5 -61.5c0 -20.667 3.66699 -40 11 -58s17.333 -33.5 30 -46.5s27.667 -23.167 45 -30.5s36 -11 56 -11c21.333 0 41 3.83301 59 11.5s33.5 18.5 46.5 32.5s23.167 30.667 30.5 50s11 40.333 11 63
c0 42.667 -12.833 77.5 -38.5 104.5s-59.167 40.5 -100.5 40.5zM296.998 467.004l-37 25l107 132l56 -39z" />
    <glyph glyph-name="ocircumflex" unicode="&#xf4;" horiz-adv-x="513" 
d="M262 417c30 0 57.833 -5.16309 83.5 -15.4961s47.667 -24.833 66 -43.5s32.666 -40.834 42.999 -66.501s15.5 -53.834 15.5 -84.501c0 -31.333 -5.5 -60.333 -16.5 -87s-26.333 -49.834 -46 -69.501s-42.667 -35.167 -69 -46.5s-55.166 -17 -86.499 -17
c-30.667 0 -59.167 5.33301 -85.5 16s-49 25.167 -68 43.5s-34 40.166 -45 65.499s-16.5 53 -16.5 83c0 31.333 5.83301 60.5 17.5 87.5s27.5 50.5 47.5 70.5s43.667 35.667 71 47s57 17 89 17zM259 353.004c-21.333 0 -41.168 -4 -59.501 -12s-34.166 -19 -47.499 -33
s-23.833 -30.5 -31.5 -49.5s-11.5 -39.5 -11.5 -61.5c0 -20.667 3.66699 -40 11 -58s17.333 -33.5 30 -46.5s27.667 -23.167 45 -30.5s36 -11 56 -11c21.333 0 41 3.83301 59 11.5s33.5 18.5 46.5 32.5s23.167 30.667 30.5 50s11 40.333 11 63
c0 42.667 -12.833 77.5 -38.5 104.5s-59.167 40.5 -100.5 40.5zM201.998 467.004l-34 36l139 122l105 -122l-37 -36l-74 85z" />
    <glyph glyph-name="otilde" unicode="&#xf5;" horiz-adv-x="513" 
d="M262 417c30 0 57.833 -5.16309 83.5 -15.4961s47.667 -24.833 66 -43.5s32.666 -40.834 42.999 -66.501s15.5 -53.834 15.5 -84.501c0 -31.333 -5.5 -60.333 -16.5 -87s-26.333 -49.834 -46 -69.501s-42.667 -35.167 -69 -46.5s-55.166 -17 -86.499 -17
c-30.667 0 -59.167 5.33301 -85.5 16s-49 25.167 -68 43.5s-34 40.166 -45 65.499s-16.5 53 -16.5 83c0 31.333 5.83301 60.5 17.5 87.5s27.5 50.5 47.5 70.5s43.667 35.667 71 47s57 17 89 17zM259 353.004c-21.333 0 -41.168 -4 -59.501 -12s-34.166 -19 -47.499 -33
s-23.833 -30.5 -31.5 -49.5s-11.5 -39.5 -11.5 -61.5c0 -20.667 3.66699 -40 11 -58s17.333 -33.5 30 -46.5s27.667 -23.167 45 -30.5s36 -11 56 -11c21.333 0 41 3.83301 59 11.5s33.5 18.5 46.5 32.5s23.167 30.667 30.5 50s11 40.333 11 63
c0 42.667 -12.833 77.5 -38.5 104.5s-59.167 40.5 -100.5 40.5zM446.998 540.004c-15.333 -25.333 -30.001 -43.332 -44.001 -53.999s-30.667 -16 -50 -16c-5.33301 0 -10.333 0.333008 -15 1s-10 2 -16 4s-13.167 5 -21.5 9l-31.5 15
c-9.33301 4.66699 -16.833 7.83398 -22.5 9.50098s-11.167 2.5 -16.5 2.5c-10 0 -18.5 -3 -25.5 -9s-14.167 -16.333 -21.5 -31l-45 28c17.333 27.333 32.833 46 46.5 56s30.167 15 49.5 15c4.66699 0 9 -0.333008 13 -1s8.83301 -1.83398 14.5 -3.50098
s12.667 -4.33398 21 -8.00098l32.5 -14.5c20.667 -9.33301 35.334 -14 44.001 -14c8 0 15 2.5 21 7.5s13.667 15.167 23 30.5z" />
    <glyph glyph-name="odieresis" unicode="&#xf6;" horiz-adv-x="513" 
d="M262 417c30 0 57.833 -5.16309 83.5 -15.4961s47.667 -24.833 66 -43.5s32.666 -40.834 42.999 -66.501s15.5 -53.834 15.5 -84.501c0 -31.333 -5.5 -60.333 -16.5 -87s-26.333 -49.834 -46 -69.501s-42.667 -35.167 -69 -46.5s-55.166 -17 -86.499 -17
c-30.667 0 -59.167 5.33301 -85.5 16s-49 25.167 -68 43.5s-34 40.166 -45 65.499s-16.5 53 -16.5 83c0 31.333 5.83301 60.5 17.5 87.5s27.5 50.5 47.5 70.5s43.667 35.667 71 47s57 17 89 17zM259 353.004c-21.333 0 -41.168 -4 -59.501 -12s-34.166 -19 -47.499 -33
s-23.833 -30.5 -31.5 -49.5s-11.5 -39.5 -11.5 -61.5c0 -20.667 3.66699 -40 11 -58s17.333 -33.5 30 -46.5s27.667 -23.167 45 -30.5s36 -11 56 -11c21.333 0 41 3.83301 59 11.5s33.5 18.5 46.5 32.5s23.167 30.667 30.5 50s11 40.333 11 63
c0 42.667 -12.833 77.5 -38.5 104.5s-59.167 40.5 -100.5 40.5zM371.998 562.004c12.667 0 23.499 -4.33398 32.499 -13.001s13.5 -18.667 13.5 -30c0 -14 -4.66699 -25.667 -14 -35s-20.666 -14 -33.999 -14c-12 0 -22.333 4.33301 -31 13s-13 19.334 -13 32.001
s4.5 23.667 13.5 33s19.833 14 32.5 14zM214.997 563.003c12 0 22.333 -4.33301 31 -13s13 -19 13 -31c0 -13.333 -4.5 -24.5 -13.5 -33.5s-20.5 -13.5 -34.5 -13.5c-11.333 0 -21.333 4.33301 -30 13s-13 19 -13 31c0 13.333 4.5 24.5 13.5 33.5s20.167 13.5 33.5 13.5z
" />
    <glyph glyph-name="divide" unicode="&#xf7;" horiz-adv-x="549" 
d="M273 120c17.333 0 32 -6 44 -18s18 -26.667 18 -44s-6 -32 -18 -44s-26.667 -18 -44 -18s-32 6 -44 18s-18 26.667 -18 44s6 32 18 44s26.667 18 44 18zM273 519c17.333 0 32 -6 44 -18s18 -26.667 18 -44s-6 -32 -18 -44s-26.667 -18 -44 -18s-32 6 -44 18
s-18 26.667 -18 44s6 32 18 44s26.667 18 44 18zM536 288v-55h-526v55h526z" />
    <glyph glyph-name="oslash" unicode="&#xf8;" horiz-adv-x="554" 
d="M55 -32l-40.001 45.001l75 67c-11.333 19.333 -19.666 38 -24.999 56s-8 37.667 -8 59c0 31.333 5.83301 60.5 17.5 87.5s27.5 50.5 47.5 70.5s43.667 35.667 71 47s56.666 17 87.999 17c52 0 97.667 -15.667 137 -47l75 67l40 -45l-75 -67
c21.333 -36 32 -75.333 32 -118c0 -31.333 -5.5 -60.333 -16.5 -87s-26.333 -49.834 -46 -69.501s-42.667 -35.167 -69 -46.5s-55.166 -17 -86.499 -17c-52.667 0 -100 16 -142 48zM181.999 81.001c15.333 -10.667 29.832 -18.333 43.499 -23s28.834 -7 45.501 -7
c21.333 0 41 3.83301 59 11.5s33.5 18.5 46.5 32.5s23.167 30.667 30.5 50s11 40.333 11 63c0 13.333 -1 24.833 -3 34.5s-5.66699 21.167 -11 34.5zM365.998 324.002c-13.333 10.667 -26.835 18.167 -40.502 22.5s-29.167 6.5 -46.5 6.5c-21.333 0 -41.166 -4 -59.499 -12
s-34.166 -19 -47.499 -33s-23.833 -30.5 -31.5 -49.5s-11.5 -39.5 -11.5 -61.5c0 -12.667 1.16699 -24 3.5 -34s6.5 -21.667 12.5 -35z" />
    <glyph glyph-name="ugrave" unicode="&#xf9;" horiz-adv-x="464" 
d="M389 166c-4.66699 -34.667 -10.1709 -60.833 -16.5039 -78.5s-16.166 -33.5 -29.499 -47.5c-15.333 -16 -34.333 -28.333 -57 -37s-47.334 -13 -74.001 -13c-47.333 0 -84.666 12.333 -111.999 37s-41 58 -41 100c0 16 1 33.333 3 52l28 225h70l-28 -232
c-1.33301 -8 -2.16602 -15.167 -2.49902 -21.5s-0.5 -13.833 -0.5 -22.5c0 -22.667 7.83301 -40.667 23.5 -54s36.834 -20 63.501 -20c32 0 55.833 8.16699 71.5 24.5s25.834 43.833 30.501 82.5l30 243h70zM218.996 624.001l75 -133l-43 -24l-97 119z" />
    <glyph glyph-name="uacute" unicode="&#xfa;" horiz-adv-x="464" 
d="M389 166c-4.66699 -34.667 -10.1709 -60.833 -16.5039 -78.5s-16.166 -33.5 -29.499 -47.5c-15.333 -16 -34.333 -28.333 -57 -37s-47.334 -13 -74.001 -13c-47.333 0 -84.666 12.333 -111.999 37s-41 58 -41 100c0 16 1 33.333 3 52l28 225h70l-28 -232
c-1.33301 -8 -2.16602 -15.167 -2.49902 -21.5s-0.5 -13.833 -0.5 -22.5c0 -22.667 7.83301 -40.667 23.5 -54s36.834 -20 63.501 -20c32 0 55.833 8.16699 71.5 24.5s25.834 43.833 30.501 82.5l30 243h70zM272.996 467.001l-37 25l107 132l56 -39z" />
    <glyph glyph-name="ucircumflex" unicode="&#xfb;" horiz-adv-x="464" 
d="M389 166c-4.66699 -34.667 -10.1709 -60.833 -16.5039 -78.5s-16.166 -33.5 -29.499 -47.5c-15.333 -16 -34.333 -28.333 -57 -37s-47.334 -13 -74.001 -13c-47.333 0 -84.666 12.333 -111.999 37s-41 58 -41 100c0 16 1 33.333 3 52l28 225h70l-28 -232
c-1.33301 -8 -2.16602 -15.167 -2.49902 -21.5s-0.5 -13.833 -0.5 -22.5c0 -22.667 7.83301 -40.667 23.5 -54s36.834 -20 63.501 -20c32 0 55.833 8.16699 71.5 24.5s25.834 43.833 30.501 82.5l30 243h70zM177.996 467.001l-34 36l139 122l105 -122l-37 -36l-74 85z" />
    <glyph glyph-name="udieresis" unicode="&#xfc;" horiz-adv-x="464" 
d="M389 166c-4.66699 -34.667 -10.1709 -60.833 -16.5039 -78.5s-16.166 -33.5 -29.499 -47.5c-15.333 -16 -34.333 -28.333 -57 -37s-47.334 -13 -74.001 -13c-47.333 0 -84.666 12.333 -111.999 37s-41 58 -41 100c0 16 1 33.333 3 52l28 225h70l-28 -232
c-1.33301 -8 -2.16602 -15.167 -2.49902 -21.5s-0.5 -13.833 -0.5 -22.5c0 -22.667 7.83301 -40.667 23.5 -54s36.834 -20 63.501 -20c32 0 55.833 8.16699 71.5 24.5s25.834 43.833 30.501 82.5l30 243h70zM347.996 562.001c12.667 0 23.499 -4.33398 32.499 -13.001
s13.5 -18.667 13.5 -30c0 -14 -4.66699 -25.667 -14 -35s-20.666 -14 -33.999 -14c-12 0 -22.333 4.33301 -31 13s-13 19.334 -13 32.001s4.5 23.667 13.5 33s19.833 14 32.5 14zM190.995 563c12 0 22.333 -4.33301 31 -13s13 -19 13 -31c0 -13.333 -4.5 -24.5 -13.5 -33.5
s-20.5 -13.5 -34.5 -13.5c-11.333 0 -21.333 4.33301 -30 13s-13 19 -13 31c0 13.333 4.5 24.5 13.5 33.5s20.167 13.5 33.5 13.5z" />
    <glyph glyph-name="yacute" unicode="&#xfd;" horiz-adv-x="423" 
d="M81 -229h-80l153 267l-132 366h75l99 -289l163 289h79zM253 467l-38 25l107 132l56 -39z" />
    <glyph glyph-name="thorn" unicode="&#xfe;" horiz-adv-x="527" 
d="M153 349c13.333 12.667 25.5 23.168 36.5 31.501s22 15 33 20s22.333 8.5 34 10.5s24.5 3 38.5 3c27.333 0 52.5 -5 75.5 -15s43 -23.833 60 -41.5s30.333 -38.667 40 -63s14.5 -50.5 14.5 -78.5c0 -31.333 -5.5 -60.833 -16.5 -88.5s-26.167 -51.667 -45.5 -72
s-42 -36.333 -68 -48s-54 -17.5 -84 -17.5c-16.667 0 -31.667 1.33301 -45 4s-25.833 7 -37.5 13s-23.167 14.167 -34.5 24.5s-23.333 23.166 -36 38.499l-37 -303h-70l118 962h70zM283 350.001c-21.333 0 -41.166 -4.16895 -59.499 -12.502s-34.333 -19.666 -48 -33.999
s-24.5 -31.166 -32.5 -50.499s-12 -40 -12 -62c0 -40 12.333 -72.833 37 -98.5s56.334 -38.5 95.001 -38.5c22 0 42.167 3.83301 60.5 11.5s34.166 18.5 47.499 32.5s23.666 30.5 30.999 49.5s11 39.833 11 62.5c0 41.333 -12.167 75 -36.5 101s-55.5 39 -93.5 39z" />
    <glyph glyph-name="ydieresis" unicode="&#xff;" horiz-adv-x="423" 
d="M81 -229h-80l153 267l-132 366h75l99 -289l163 289h79zM327 562c12.667 0 23.499 -4.33398 32.499 -13.001s13.5 -18.667 13.5 -30c0 -14 -4.66699 -25.667 -14 -35s-20.666 -14 -33.999 -14c-12 0 -22.333 4.33301 -31 13s-13 19.334 -13 32.001s4.5 23.667 13.5 33
s19.833 14 32.5 14zM169.999 562.999c12 0 22.333 -4.33301 31 -13s13 -19 13 -31c0 -13.333 -4.5 -24.5 -13.5 -33.5s-20.5 -13.5 -34.5 -13.5c-11.333 0 -21.333 4.33301 -30 13s-13 19 -13 31c0 13.333 4.5 24.5 13.5 33.5s20.167 13.5 33.5 13.5z" />
    <glyph glyph-name="dotlessi" unicode="&#x131;" horiz-adv-x="206" 
d="M110 0h-70l50 404h70z" />
    <glyph glyph-name="Lslash" unicode="&#x141;" horiz-adv-x="359" 
d="M173 400l123 80l-9 -77l-124 -80l-31 -255h203l-8 -68h-277l35 284l-73 -47l9 77l74 47l37 306h73z" />
    <glyph glyph-name="lslash" unicode="&#x142;" horiz-adv-x="206" 
d="M161 409l69 47l-9 -77l-70 -47l-41 -332h-70l36 293l-70 -47l9 76l71 47l44 360h70z" />
    <glyph glyph-name="OE" unicode="&#x152;" horiz-adv-x="1049" 
d="M1042 599h-258.001l-26 -206h261l-8 -68h-261l-31 -257h260l-8 -68h-335l14 109c-21.333 -22.667 -41.833 -41.834 -61.5 -57.501s-39.5 -28.167 -59.5 -37.5s-40.833 -16.166 -62.5 -20.499s-45.5 -6.5 -71.5 -6.5c-48 0 -92.167 8.33301 -132.5 25
s-75.333 39.667 -105 69s-52.834 64 -69.501 104s-25 83.667 -25 131c0 52 9 100.333 27 145s42.667 83.167 74 115.5s68.5 57.833 111.5 76.5s89.5 28 139.5 28c32.667 0 62.334 -3 89.001 -9s51.5 -15.667 74.5 -29s44.333 -30.333 64 -51s38.834 -45.667 57.501 -75
l18 150h333zM413.999 612c-39.333 0 -75.8311 -7.66504 -109.498 -22.998s-62.834 -36.5 -87.501 -63.5s-44 -58.833 -58 -95.5s-21 -76.334 -21 -119.001c0 -36.667 6.5 -70.667 19.5 -102s31 -58.333 54 -81s50.167 -40.334 81.5 -53.001s65.666 -19 102.999 -19
c40.667 0 78 7.16699 112 21.5s63.333 34.5 88 60.5s44 56.667 58 92s21 74 21 116c0 39.333 -6.33301 75.333 -19 108s-30.5 60.667 -53.5 84s-50.5 41.5 -82.5 54.5s-67.333 19.5 -106 19.5z" />
    <glyph glyph-name="oe" unicode="&#x153;" horiz-adv-x="840" 
d="M478 184c1.33301 -43.333 13.335 -76.335 36.002 -99.002s55 -34 97 -34c47.333 0 84.666 20 111.999 60l55 -34c-22.667 -31.333 -47.334 -54.166 -74.001 -68.499s-57 -21.5 -91 -21.5c-42 0 -77.167 7.83301 -105.5 23.5s-52.166 40.5 -71.499 74.5
c-42.667 -65.333 -102.667 -98 -180 -98c-31.333 0 -60.333 5.33301 -87 16s-49.834 25.167 -69.501 43.5s-35 40.333 -46 66s-16.5 53.5 -16.5 83.5c0 32 5.5 61.5 16.5 88.5s26.5 50.333 46.5 70s43.667 35 71 46s57.333 16.5 90 16.5c84 0 146 -34.333 186 -103
c42 68.667 99.667 103 173 103c28 0 53.167 -4.83301 75.5 -14.5s41.5 -23.5 57.5 -41.5s28.333 -39.667 37 -65s13 -53.666 13 -84.999v-27h-325zM260.002 352.998c-22 0 -42.1699 -3.83301 -60.5029 -11.5s-34.166 -18.334 -47.499 -32.001s-23.833 -30 -31.5 -49
s-11.5 -39.833 -11.5 -62.5c0 -21.333 3.5 -41 10.5 -59s17 -33.5 30 -46.5s28.5 -23.167 46.5 -30.5s37.667 -11 59 -11c22 0 42.5 4 61.5 12s35.333 19.167 49 33.5s24.5 31.166 32.5 50.499s12 40.333 12 63c0 20.667 -3.66699 39.834 -11 57.501
s-17.666 32.834 -30.999 45.501s-29.166 22.5 -47.499 29.5s-38.5 10.5 -60.5 10.5zM734.999 241.998c-2.66699 36 -14.002 63.5 -34.002 82.5s-48 28.5 -84 28.5c-35.333 0 -64.666 -9.5 -87.999 -28.5s-38.666 -46.5 -45.999 -82.5h252z" />
    <glyph glyph-name="Scaron" unicode="&#x160;" horiz-adv-x="482" 
d="M413 528c-15.333 28.667 -32.3359 49.666 -51.0029 62.999s-41.334 20 -68.001 20c-16 0 -30.833 -2.83301 -44.5 -8.5s-25.5 -13.334 -35.5 -23.001s-18 -21.167 -24 -34.5s-9 -27.666 -9 -42.999c0 -12 1.5 -23 4.5 -33s8.5 -19.667 16.5 -29s18.833 -19 32.5 -29
s30.834 -21.333 51.501 -34c28.667 -16.667 52.334 -32.5 71.001 -47.5s33.667 -30.167 45 -45.5s19.333 -31.333 24 -48s7 -35.667 7 -57c0 -28 -5 -53.667 -15 -77s-23.833 -43.5 -41.5 -60.5s-38.667 -30.333 -63 -40s-51.166 -14.5 -80.499 -14.5
c-92 0 -159.333 47.333 -202 142l58 35c15.333 -38 34.333 -65.333 57 -82s51.334 -25 86.001 -25c38 0 68.5 11.833 91.5 35.5s34.5 55.167 34.5 94.5c0 13.333 -1.83301 25.333 -5.5 36s-9.83398 21.167 -18.501 31.5s-20.334 21 -35.001 32s-33 23.167 -55 36.5
c-26.667 16 -48.667 30.833 -66 44.5s-31.166 27.5 -41.499 41.5s-17.666 28.667 -21.999 44s-6.5 32.666 -6.5 51.999c0 25.333 4.66699 48.833 14 70.5s22.333 40.334 39 56.001s36.5 27.834 59.5 36.501s47.833 13 74.5 13c38 0 70.333 -8.5 97 -25.5
s50.667 -44.5 72 -82.5zM403.997 881.999l34 -37l-138 -122l-106 122l38 36l74 -85z" />
    <glyph glyph-name="scaron" unicode="&#x161;" horiz-adv-x="347" 
d="M273 323c-26.667 20.667 -52.333 30.999 -77 30.999c-19.333 0 -35.333 -5.16699 -48 -15.5s-19 -23.166 -19 -38.499c0 -13.333 4.66699 -24.666 14 -33.999s28.333 -20.666 57 -33.999c37.333 -18 63.166 -35.5 77.499 -52.5s21.5 -39.167 21.5 -66.5
c0 -37.333 -13.5 -67.666 -40.5 -90.999s-61.833 -35 -104.5 -35c-30.667 0 -57 6.83301 -79 20.5s-41.667 35.5 -59 65.5l53 33c12 -19.333 24.667 -33.333 38 -42s29.333 -13 48 -13c21.333 0 38.5 5.5 51.5 16.5s19.5 26.167 19.5 45.5c0 7.33301 -1 13.666 -3 18.999
s-5.66699 10.5 -11 15.5s-13.166 10.333 -23.499 16s-23.5 12.5 -39.5 20.5c-33.333 15.333 -57 31.666 -71 48.999s-21 38.666 -21 63.999c0 17.333 3.5 33.5 10.5 48.5s16.667 27.833 29 38.5s27 19 44 25s35.5 9 55.5 9c23.333 0 44.5 -4 63.5 -12
s38.167 -21.333 57.5 -40zM306.001 624.999l34 -37l-138 -121l-106 122l38 35l74 -84z" />
    <glyph glyph-name="Ydieresis" unicode="&#x178;" horiz-adv-x="520" 
d="M266 0h-74l38 304l-173 363h80l138 -293l202 293h86l-261 -371zM408 825c12.667 0 23.499 -4.33398 32.499 -13.001s13.5 -18.667 13.5 -30c0 -14 -4.66699 -25.667 -14 -35s-20.666 -14 -33.999 -14c-12 0 -22.333 4.33301 -31 13s-13 19.334 -13 32.001
s4.5 23.667 13.5 33s19.833 14 32.5 14zM250.999 823.999c12 0 22.333 -4.33301 31 -13s13 -19 13 -31c0 -13.333 -4.5 -24.5 -13.5 -33.5s-20.5 -13.5 -34.5 -13.5c-11.333 0 -21.333 4.33301 -30 13s-13 19 -13 31c0 13.333 4.5 24.5 13.5 33.5s20.167 13.5 33.5 13.5z
" />
    <glyph glyph-name="Zcaron" unicode="&#x17d;" horiz-adv-x="547" 
d="M476 0h-474l442 599h-321l9 68h446l-442 -599h349zM437 882l34 -37l-138 -122l-106 122l38 36l74 -85z" />
    <glyph glyph-name="zcaron" unicode="&#x17e;" horiz-adv-x="440" 
d="M389 0h-394l303 341h-229l8 63h360l-304 -341h264zM352 625l34 -37l-138 -121l-106 122l38 35l74 -84z" />
    <glyph glyph-name="florin" unicode="&#x192;" 
d="M450 443l-7.99707 -52h-108l-61 -301l-12 -56c-3.33301 -15.333 -6.83301 -28.666 -10.5 -39.999s-7.33398 -21.166 -11.001 -29.499s-7.83398 -16.5 -12.501 -24.5c-26.667 -44.667 -70 -67 -130 -67c-9.33301 0 -17.833 0.5 -25.5 1.5s-17.5 3.16699 -29.5 6.5l12 62
c9.33301 -2.66699 16.833 -4.33398 22.5 -5.00098s12.167 -1 19.5 -1c15.333 0 28.666 2.33301 39.999 7s21.333 13 30 25s16.167 28 22.5 48s12.5 45 18.5 75l59 299h-72l8 52h74l31 153c10 51.333 26.167 88.166 48.5 110.499s54.166 33.5 95.499 33.5
c9.33301 0 17.833 -0.666992 25.5 -2s17.834 -4 30.501 -8l-12 -61c-9.33301 3.33301 -16.833 5.66602 -22.5 6.99902s-12.167 2 -19.5 2c-12 0 -22.333 -1.5 -31 -4.5s-16 -8.16699 -22 -15.5s-11.333 -17.666 -16 -30.999s-9 -30 -13 -50l-28 -134h107z" />
    <glyph glyph-name="circumflex" unicode="&#x2c6;" horiz-adv-x="500" 
d="M196 467l-34 36l139 122l105 -122l-37 -36l-74 85z" />
    <glyph glyph-name="caron" unicode="&#x2c7;" horiz-adv-x="500" 
d="M382 625l34 -37l-138 -121l-106 122l38 35l74 -84z" />
    <glyph glyph-name="breve" unicode="&#x2d8;" horiz-adv-x="500" 
d="M201 592c10.667 -43.333 38.668 -65 84.001 -65c22 0 40.167 4.66699 54.5 14s29.166 26.333 44.499 51h55c-17.333 -43.333 -38.333 -74.5 -63 -93.5s-56.334 -28.5 -95.001 -28.5c-39.333 0 -70.166 10.667 -92.499 32s-34.5 51.333 -36.5 90h49z" />
    <glyph glyph-name="dotaccent" unicode="&#x2d9;" horiz-adv-x="500" 
d="M285 566c12.667 0 23.499 -4.5 32.499 -13.5s13.5 -19.833 13.5 -32.5c0 -14.667 -4.66699 -26.667 -14 -36s-21.666 -14 -36.999 -14c-12 0 -22.5 4.5 -31.5 13.5s-13.5 19.833 -13.5 32.5c0 14 4.83301 25.833 14.5 35.5s21.5 14.5 35.5 14.5z" />
    <glyph glyph-name="ring" unicode="&#x2da;" horiz-adv-x="500" 
d="M291 631c21.333 0 39.998 -7.50195 55.998 -22.502s24 -33.167 24 -54.5c0 -23.333 -7.66699 -43.166 -23 -59.499s-34.666 -24.5 -57.999 -24.5c-22 0 -40.833 7.83301 -56.5 23.5s-23.5 34.834 -23.5 57.501c0 22 7.83301 40.833 23.5 56.5s34.834 23.5 57.501 23.5z
M290.998 584.998c-9.33301 0 -17.5 -3.16797 -24.5 -9.50098s-10.5 -14.166 -10.5 -23.499c0 -10 3.33301 -18.5 10 -25.5s14.667 -10.5 24 -10.5c10 0 18.333 3.33301 25 10s10 15.667 10 27c0 8.66699 -3.33301 16.167 -10 22.5s-14.667 9.5 -24 9.5z" />
    <glyph glyph-name="ogonek" unicode="&#x2db;" horiz-adv-x="500" 
d="M305 0c-33.333 -19.333 -57.1689 -36.501 -71.502 -51.501s-21.5 -30.167 -21.5 -45.5c0 -22.667 12.667 -34 38 -34c9.33301 0 18.5 1.16699 27.5 3.5s19.167 6.5 30.5 12.5l-23 -54c-12 -6.66699 -22.333 -11.167 -31 -13.5s-18.667 -3.5 -30 -3.5
c-21.333 0 -39.166 6.33301 -53.499 19s-21.5 28.334 -21.5 47.001c0 23.333 7.83301 44.333 23.5 63s40.834 37.667 75.501 57h57z" />
    <glyph glyph-name="tilde" unicode="&#x2dc;" horiz-adv-x="500" 
d="M440 540c-15.333 -25.333 -30.001 -43.332 -44.001 -53.999s-30.667 -16 -50 -16c-5.33301 0 -10.333 0.333008 -15 1s-10 2 -16 4s-13.167 5 -21.5 9l-31.5 15c-9.33301 4.66699 -16.833 7.83398 -22.5 9.50098s-11.167 2.5 -16.5 2.5c-10 0 -18.5 -3 -25.5 -9
s-14.167 -16.333 -21.5 -31l-45 28c17.333 27.333 32.833 46 46.5 56s30.167 15 49.5 15c4.66699 0 9 -0.333008 13 -1s8.83301 -1.83398 14.5 -3.50098s12.667 -4.33398 21 -8.00098l32.5 -14.5c20.667 -9.33301 35.334 -14 44.001 -14c8 0 15 2.5 21 7.5
s13.667 15.167 23 30.5z" />
    <glyph glyph-name="hungarumlaut" unicode="&#x2dd;" horiz-adv-x="500" 
d="M234 464l-27 21l96 140l47 -33zM347 464l-27 21l96 140l47 -33z" />
    <glyph glyph-name="pi" unicode="&#x3c0;" horiz-adv-x="549" 
d="M10 348c8.66699 30 17.5 53.5039 26.5 70.5039s20.5 32.5 34.5 46.5c7.33301 7.33301 14.166 13.166 20.499 17.499s13.333 7.83301 21 10.5s16.334 4.5 26.001 5.5s21.167 1.5 34.5 1.5h350v-89h-126c-2 -13.333 -3.66699 -29 -5 -47s-2.5 -36.667 -3.5 -56
s-1.83301 -39.166 -2.5 -59.499s-1 -39.833 -1 -58.5c0 -34 5.33301 -60 16 -78s26.667 -27 48 -27c32.667 0 51.667 24.333 57 73h24c-1.33301 -25.333 -3.5 -44.833 -6.5 -58.5s-8.5 -27.834 -16.5 -42.501c-12 -22.667 -26.167 -40 -42.5 -52s-34.166 -18 -53.499 -18
c-32 0 -56.5 16 -73.5 48s-25.5 77.333 -25.5 136c0 14 0.5 30.667 1.5 50s2.5 39.666 4.5 60.999s4.33301 43.166 7 65.499s5.33398 43.5 8.00098 63.5h-109l-12 -129l-1.5 -20c-0.333008 -4.66699 -0.833008 -9.16699 -1.5 -13.5s-1.33398 -9.66602 -2.00098 -15.999
s-2 -16.166 -4 -29.499c-4.66699 -42.667 -8.33398 -73.334 -11.001 -92.001s-5 -32.334 -7 -41.001c-13.333 -55.333 -38 -83 -74 -83c-15.333 0 -28.166 5.33301 -38.499 16s-15.5 24 -15.5 40c0 10.667 2.83301 20.667 8.5 30s16.167 21 31.5 35
c17.333 16 29.833 30 37.5 42s12.167 25 13.5 39l26 222h-46c-12 0 -22.333 -0.833008 -31 -2.5s-16.5 -4.83398 -23.5 -9.50098s-13.833 -11 -20.5 -19s-14.334 -18.667 -23.001 -32h-20z" />
    <glyph glyph-name="endash" unicode="&#x2013;" 
d="M441 179h-328l8 62h327z" />
    <glyph glyph-name="emdash" unicode="&#x2014;" horiz-adv-x="542" 
d="M536 178h-542l8 62h541z" />
    <glyph glyph-name="quoteleft" unicode="&#x2018;" horiz-adv-x="251" 
d="M212 706l41 -22l-112 -211l-54 30z" />
    <glyph glyph-name="quoteright" unicode="&#x2019;" horiz-adv-x="251" 
d="M128 473l-42 23l112 210l54 -29z" />
    <glyph glyph-name="quotesinglbase" unicode="&#x201a;" horiz-adv-x="251" 
d="M55 -123l-42 23l112 210l54 -30z" />
    <glyph glyph-name="quotedblleft" unicode="&#x201c;" horiz-adv-x="386" 
d="M347 706l42 -22l-112 -211l-55 30zM212 706l41 -22l-112 -211l-54 30z" />
    <glyph glyph-name="quotedblright" unicode="&#x201d;" horiz-adv-x="386" 
d="M128 473l-42 23l112 210l54 -29zM263 473l-42 23l113 210l54 -29z" />
    <glyph glyph-name="quotedblbase" unicode="&#x201e;" horiz-adv-x="380" 
d="M42 -123l-42 23l112 210l54 -30zM177 -123l-42 23l113 210l54 -30z" />
    <glyph glyph-name="dagger" unicode="&#x2020;" 
d="M359 555h161l-9 -67h-160l-82 -664h-70l82 664h-162l8 67h162l21 174h70z" />
    <glyph glyph-name="daggerdbl" unicode="&#x2021;" 
d="M359 555h160l-8 -67h-161l-38 -313h161l-9 -67h-160l-35 -284h-70l35 284h-162l8 67h162l39 313h-162l8 67h162l21 174h70z" />
    <glyph glyph-name="bullet" unicode="&#x2022;" horiz-adv-x="667" 
d="M348 477c18.667 0 36.334 -3.66699 53.001 -11s31.167 -17.166 43.5 -29.499s22.166 -26.833 29.499 -43.5s11 -34.667 11 -54s-3.66699 -37.5 -11 -54.5s-17.166 -31.667 -29.499 -44s-26.833 -22.166 -43.5 -29.499s-34.334 -11 -53.001 -11
c-19.333 0 -37.5 3.66699 -54.5 11s-31.833 17.166 -44.5 29.499s-22.667 27 -30 44s-11 35.167 -11 54.5s3.66699 37.333 11 54s17.333 31.167 30 43.5s27.5 22.166 44.5 29.499s35.167 11 54.5 11z" />
    <glyph glyph-name="ellipsis" unicode="&#x2026;" horiz-adv-x="660" 
d="M87 87c13.333 0 24.666 -4.50098 33.999 -13.501s14 -20.167 14 -33.5s-4.83301 -24.666 -14.5 -33.999s-21.167 -14 -34.5 -14s-24.5 4.83301 -33.5 14.5s-13.167 21.167 -12.5 34.5s5.33398 24.333 14.001 33s19.667 13 33 13zM307 86.999
c13.333 0 24.666 -4.50098 33.999 -13.501s14 -20.167 14 -33.5s-4.83301 -24.666 -14.5 -33.999s-21.167 -14 -34.5 -14s-24.5 4.83301 -33.5 14.5s-13.167 21.167 -12.5 34.5s5.33398 24.333 14.001 33s19.667 13 33 13zM527 86.998
c13.333 0 24.666 -4.50098 33.999 -13.501s14 -20.167 14 -33.5s-4.83301 -24.666 -14.5 -33.999s-21.167 -14 -34.5 -14s-24.5 4.83301 -33.5 14.5s-13.167 21.167 -12.5 34.5s5.33398 24.333 14.001 33s19.667 13 33 13z" />
    <glyph glyph-name="perthousand" unicode="&#x2030;" horiz-adv-x="1049" 
d="M202 676c34.667 0 62.667 -13.666 84 -40.999s32 -63.333 32 -108c0 -28 -3.5 -53.833 -10.5 -77.5s-16.667 -44.167 -29 -61.5s-26.833 -31 -43.5 -41s-35 -15 -55 -15c-34.667 0 -62.667 13.667 -84 41s-32 63.666 -32 108.999c0 27.333 3.5 52.833 10.5 76.5
s16.667 44.167 29 61.5s27 31 44 41s35.167 15 54.5 15zM201 628.001c-12 0 -23.167 -4.00098 -33.5 -12.001s-19.5 -18.667 -27.5 -32s-14.333 -28.833 -19 -46.5s-7 -36.5 -7 -56.5c0 -30.667 6 -55.167 18 -73.5s28 -27.5 48 -27.5c12 0 23.333 3.83301 34 11.5
s20 18.334 28 32.001s14.333 29.5 19 47.5s7 37 7 57c0 30.667 -6 55 -18 73s-28.333 27 -49 27zM606 677l35 -27l-490 -660l-34 26zM577 335c35.333 0 63.666 -13.6641 84.999 -40.9971s32 -63.333 32 -108c0 -28 -3.5 -53.833 -10.5 -77.5s-16.667 -44.334 -29 -62.001
s-26.833 -31.334 -43.5 -41.001s-35 -14.5 -55 -14.5c-35.333 0 -63.666 13.667 -84.999 41s-32 63.666 -32 108.999c0 27.333 3.5 52.833 10.5 76.5s16.667 44.167 29 61.5s27 31 44 41s35.167 15 54.5 15zM576 287.003c-12 0 -23.167 -4.00098 -33.5 -12.001
s-19.5 -18.667 -27.5 -32s-14.333 -28.833 -19 -46.5s-7 -36.5 -7 -56.5c0 -30.667 6 -55.167 18 -73.5s28.333 -27.5 49 -27.5c12 0 23.333 3.83301 34 11.5s20 18.334 28 32.001s14.333 29.5 19 47.5s7 37 7 57c0 30.667 -6 55 -18 73s-28.667 27 -50 27zM893 335.002
c35.333 0 63.666 -13.6641 84.999 -40.9971s32 -63.333 32 -108c0 -28 -3.5 -53.833 -10.5 -77.5s-16.667 -44.334 -29 -62.001s-26.833 -31.334 -43.5 -41.001s-35 -14.5 -55 -14.5c-35.333 0 -63.666 13.667 -84.999 41s-32 63.666 -32 108.999
c0 27.333 3.5 52.833 10.5 76.5s16.667 44.167 29 61.5s27 31 44 41s35.167 15 54.5 15zM892 287.005c-12 0 -23.167 -4.00098 -33.5 -12.001s-19.5 -18.667 -27.5 -32s-14.333 -28.833 -19 -46.5s-7 -36.5 -7 -56.5c0 -30.667 6 -55.167 18 -73.5s28.333 -27.5 49 -27.5
c12 0 23.333 3.83301 34 11.5s20 18.334 28 32.001s14.333 29.5 19 47.5s7 37 7 57c0 30.667 -6 55 -18 73s-28.667 27 -50 27z" />
    <glyph glyph-name="guilsinglleft" unicode="&#x2039;" horiz-adv-x="242" 
d="M34 210l144 180l40 -33l-122 -151l87 -157l-44 -25z" />
    <glyph glyph-name="guilsinglright" unicode="&#x203a;" horiz-adv-x="242" 
d="M203 209l-144 -179l-40 32l122 151l-87 157l43 25z" />
    <glyph glyph-name="fraction" unicode="&#x2044;" horiz-adv-x="147" 
d="M314 680l39 -29l-493 -664l-39 28z" />
    <glyph glyph-name="trademark" unicode="&#x2122;" horiz-adv-x="771" 
d="M163 287h-57l41 329h-100l6 51h253l-6 -51h-96zM438 703l92 -312l171 315l66 -419h-58l-40 256l-156 -283l-82 282l-106 -255h-60z" />
    <glyph glyph-name="Omega" unicode="&#x2126;" horiz-adv-x="768" 
d="M34 0l0.000976562 153h24c3.33301 -22 10.666 -38 21.999 -48s27 -15 47 -15h146l-3 38c-64.667 23.333 -114.5 56.833 -149.5 100.5s-52.5 94.834 -52.5 153.501c0 41.333 8.5 80.333 25.5 117s39.833 68.834 68.5 96.501s62.334 49.667 101.001 66
s79.334 24.5 122.001 24.5c43.333 0 84.166 -8.16699 122.499 -24.5s71.833 -38.333 100.5 -66s51.5 -59.834 68.5 -96.501s25.5 -75.667 25.5 -117c0 -58.667 -17.5 -109.834 -52.5 -153.501s-84.833 -77.167 -149.5 -100.5l-3 -38h146c20 0 35.667 5 47 15
s18.666 26 21.999 48h24v-153h-292l18 155c39.333 22 70.5 53.5 93.5 94.5s34.5 85.167 34.5 132.5c0 36.667 -5.33301 70.834 -16 102.501s-25.167 59.167 -43.5 82.5s-40 41.666 -65 54.999s-51.833 20 -80.5 20s-55.5 -6.66699 -80.5 -20s-46.667 -31.666 -65 -54.999
s-32.833 -50.833 -43.5 -82.5s-16 -65.834 -16 -102.501c0 -47.333 11.5 -91.5 34.5 -132.5s54.167 -72.5 93.5 -94.5l18 -155h-292z" />
    <glyph glyph-name="partialdiff" unicode="&#x2202;" horiz-adv-x="494" 
d="M66 725c28 10.667 51.6709 18.0029 71.0039 22.0029s38.666 6 57.999 6c38 0 73.333 -8.83301 106 -26.5s61 -42.167 85 -73.5s42.667 -68.5 56 -111.5s20 -89.5 20 -139.5c0 -30.667 -2.16699 -61.667 -6.5 -93s-10.166 -61.5 -17.499 -90.5s-16.333 -55.667 -27 -80
s-22 -44.833 -34 -61.5c-20.667 -28.667 -44.834 -50.334 -72.501 -65.001s-57.834 -22 -90.501 -22c-26.667 0 -51.5 5 -74.5 15s-42.833 23.833 -59.5 41.5s-29.834 38.667 -39.501 63s-14.5 50.5 -14.5 78.5c0 29.333 5.33301 57.5 16 84.5s24.834 50.833 42.501 71.5
s38.167 37.167 61.5 49.5s47.666 18.5 72.999 18.5c13.333 0 25.666 -1 36.999 -3s23 -5.5 35 -10.5s24.5 -11.833 37.5 -20.5s27.5 -19.334 43.5 -32.001c3.33301 25.333 5.33301 45 6 59s1 29.333 1 46c0 81.333 -14 144.166 -42 188.499s-68 66.5 -120 66.5
c-31.333 0 -68 -10.667 -110 -32zM366.004 312.003c-21.333 21.333 -39.334 35.834 -54.001 43.501s-31.667 11.5 -51 11.5c-20 0 -39 -5.5 -57 -16.5s-33.833 -26 -47.5 -45s-24.334 -41 -32.001 -66s-11.5 -51.833 -11.5 -80.5c0 -44 7.83301 -78 23.5 -102
s37.834 -36 66.501 -36c20.667 0 41 7.83301 61 23.5s36.667 36.5 50 62.5c16.667 34 28.334 69 35.001 105c6 29.333 10.5 53.166 13.5 71.499s4.16699 27.833 3.5 28.5z" />
    <glyph glyph-name="Delta" unicode="&#x2206;" horiz-adv-x="612" 
d="M327 688l281 -688h-602zM479 51l-189 458l-213 -458h402z" />
    <glyph glyph-name="product" unicode="&#x220f;" horiz-adv-x="823" 
d="M25 -98l2.99414 -0.000976562c16.667 0 31.334 2.83301 44.001 8.5s22.667 13.167 30 22.5c5.33301 8.66699 9 18.5 11 29.5s3 29.5 3 55.5v591c0 26 -1 44.5 -3 55.5s-5.66699 20.833 -11 29.5c-7.33301 9.33301 -17.333 16.833 -30 22.5s-27.334 8.5 -44.001 8.5h-3v26
h778v-26h-3c-16.667 0 -31.334 -2.83301 -44.001 -8.5s-22.667 -13.167 -30 -22.5c-5.33301 -8.66699 -9 -18.5 -11 -29.5s-3 -29.5 -3 -55.5v-591c0 -26 1 -44.5 3 -55.5s5.66699 -20.833 11 -29.5c7.33301 -9.33301 17.333 -16.833 30 -22.5s27.334 -8.5 44.001 -8.5h3
v-26h-290v26h3c16.667 0 31.334 2.83301 44.001 8.5s22.667 13.167 30 22.5c5.33301 8.66699 9 18.5 11 29.5s3 29.5 3 55.5v576c0 31.333 -1.16699 53.5 -3.5 66.5s-7.16602 22.833 -14.499 29.5c-5.33301 5.33301 -12.666 9.16602 -21.999 11.499
s-21.666 4.16602 -36.999 5.49902c-4.66699 0.666992 -10.167 1 -16.5 1h-31.5h-67h-63.5c-15.667 0 -28.167 -0.166992 -37.5 -0.5s-16.5 -0.666016 -21.5 -0.999023s-10.5 -1.16602 -16.5 -2.49902c-10 -2 -18.333 -4.83301 -25 -8.5s-11.667 -9.5 -15 -17.5
s-5.66602 -18.667 -6.99902 -32s-2 -30.666 -2 -51.999v-576c0 -26 1 -44.5 3 -55.5s5.66699 -20.833 11 -29.5c7.33301 -9.33301 17.333 -16.833 30 -22.5s27.334 -8.5 44.001 -8.5h3v-26h-290v26z" />
    <glyph glyph-name="summation" unicode="&#x2211;" horiz-adv-x="713" 
d="M364 341l-201 -351.999h328c29.333 0 53.5 1.33301 72.5 4s35 7.5 48 14.5s23.833 17 32.5 30s17 29.5 25 49.5h26l-54 -210h-627l242 408l-233 467h599l10 -165h-26c-4 25.333 -9.33301 46 -16 62s-16 28.667 -28 38s-27.5 15.666 -46.5 18.999s-42.833 5 -71.5 5h-268z
" />
    <glyph glyph-name="minus" unicode="&#x2212;" 
d="M61 370h471v-60h-471v60z" />
    <glyph glyph-name="radical" unicode="&#x221a;" horiz-adv-x="549" 
d="M121 461l-95 -47l-16 35l146 71l195 -394l127 787l37 -5l-152 -943z" />
    <glyph glyph-name="infinity" unicode="&#x221e;" horiz-adv-x="713" 
d="M357 303c56 74 118.998 111.002 188.998 111.002c20.667 0 39.834 -3.66699 57.501 -11s32.834 -17.5 45.501 -30.5s22.5 -28.333 29.5 -46s10.5 -37.167 10.5 -58.5c0 -46 -12.833 -83 -38.5 -111s-59.834 -42 -102.501 -42c-32 0 -64.5 9.83301 -97.5 29.5
s-64.167 47.5 -93.5 83.5l-19.5 -22.5c-3.66699 -4.33301 -7.16699 -8.83301 -10.5 -13.5c-22 -24 -46.833 -42.833 -74.5 -56.5s-55.5 -20.5 -83.5 -20.5c-43.333 0 -78.166 13.667 -104.499 41s-39.5 63.333 -39.5 108c0 21.333 3.66699 41.166 11 59.499
s17.333 34.166 30 47.499s28 23.833 46 31.5s37.333 11.5 58 11.5c32 0 64 -9.5 96 -28.5s62.333 -46.5 91 -82.5zM390.998 265.002c18 -19.333 33.832 -35.333 47.499 -48s26.5 -22.667 38.5 -30s23.667 -12.5 35 -15.5s24 -4.5 38 -4.5c27.333 0 49 9 65 27s24 42 24 72
c0 28 -8.83301 51 -26.5 69s-40.5 27 -68.5 27c-15.333 0 -32.166 -3.83301 -50.499 -11.5s-35.833 -18.5 -52.5 -32.5c-16.667 -12.667 -31.334 -28 -44.001 -46c-1.33301 -1.33301 -2.66602 -3 -3.99902 -5zM323.997 266.002c-32.667 35.333 -60.498 60.167 -83.498 74.5
s-47.167 21.5 -72.5 21.5c-28.667 0 -51.334 -8.83301 -68.001 -26.5s-25 -41.5 -25 -71.5c0 -28.667 8.16699 -52 24.5 -70s37.5 -27 63.5 -27c44 0 88.667 22.667 134 68c8.66699 8.66699 16 17 22 25c1.33301 2 2.66602 3.66699 3.99902 5z" />
    <glyph glyph-name="integral" unicode="&#x222b;" horiz-adv-x="274" 
d="M180 232c0 -54 -2.33105 -104.166 -6.99805 -150.499s-10.667 -83.166 -18 -110.499c-7.33301 -24.667 -19 -43.834 -35 -57.501s-35 -20.5 -57 -20.5c-18.667 0 -33.5 4 -44.5 12s-16.5 18.667 -16.5 32c0 9.33301 3.33301 17.166 10 23.499s15.334 9.5 26.001 9.5
c12 0 22 -7.33301 30 -22c5.33301 -12 12.333 -18 21 -18c9.33301 0 16.833 5.33301 22.5 16s8.5 25.334 8.5 44.001c0 7.33301 -0.166992 17.833 -0.5 31.5s-1.16602 27.5 -2.49902 41.5c-0.666992 15.333 -1.33398 29.5 -2.00098 42.5s-1.16699 26 -1.5 39
s-0.5 26.5 -0.5 40.5v47v345c0 52.667 2.33301 102.5 7 149.5s10.667 84.167 18 111.5c7.33301 24.667 19.166 43.834 35.499 57.501s35.166 20.5 56.499 20.5c19.333 0 34.333 -4 45 -12s16 -19.333 16 -34c0 -9.33301 -3.5 -16.833 -10.5 -22.5s-15.5 -8.5 -25.5 -8.5
c-8 0 -14.5 2.16699 -19.5 6.5s-11.833 13.166 -20.5 26.499c-2 4 -6.33301 6 -13 6c-19.333 0 -29 -21.667 -29 -65c0 -6.66699 0.166992 -16 0.5 -28s1.16602 -25 2.49902 -39c1.33301 -25.333 2.33301 -51.333 3 -78s1 -57.334 1 -92.001v-344z" />
    <glyph glyph-name="approxequal" unicode="&#x2248;" horiz-adv-x="549" 
d="M527 217c-30.667 -56.667 -77.667 -85.001 -141 -85.001c-22 0 -44 3.33301 -66 10l-16 5l-22 7c-4 1.33301 -7.66699 2.5 -11 3.5l-14.5 4.5c-6.33301 2 -17.5 5.33301 -33.5 10c-17.333 5.33301 -30 8.66602 -38 9.99902s-16.333 2 -25 2
c-10 0 -18.833 -0.833008 -26.5 -2.5s-15.167 -4.66699 -22.5 -9s-15.166 -10.666 -23.499 -18.999s-18.5 -19.166 -30.5 -32.499l-43 34c39.333 56 88 84 146 84c7.33301 0 14.5 -0.333008 21.5 -1s15.167 -2 24.5 -4s20.333 -4.83301 33 -8.5s28 -8.5 46 -14.5l43 -13
c10.667 -3.33301 19.5 -5.83301 26.5 -7.5s12.667 -2.66699 17 -3s9.16602 -0.5 14.499 -0.5c18.667 0 35 4.33301 49 13s32 25.667 54 51zM527 374.999c-30 -57.333 -77 -86.002 -141 -86.002c-22 0 -44 3.33301 -66 10l-16 5l-22 7c-4 1.33301 -7.66699 2.5 -11 3.5
l-14.5 4.5c-6.33301 2 -17.5 5.33301 -33.5 10c-17.333 5.33301 -30 8.83301 -38 10.5s-16.333 2.5 -25 2.5c-10 0 -18.833 -0.833008 -26.5 -2.5s-15.167 -4.66699 -22.5 -9s-15.166 -10.666 -23.499 -18.999s-18.5 -19.166 -30.5 -32.499l-43 33
c40 56.667 88.667 85 146 85c7.33301 0 14.5 -0.333008 21.5 -1s15.167 -2 24.5 -4s20.333 -4.83301 33 -8.5s28 -8.5 46 -14.5l43 -14c10.667 -3.33301 19.5 -5.83301 26.5 -7.5s12.667 -2.66699 17 -3s9.16602 -0.5 14.499 -0.5c18.667 0 35 4.33301 49 13
s32 25.667 54 51z" />
    <glyph glyph-name="notequal" unicode="&#x2260;" horiz-adv-x="549" 
d="M15 141v55h199l70 139h-269v55h297l80 159l47 -24l-68 -135h169v-55h-197l-70 -139h267v-55h-295l-84 -166l-46 24l72 142h-172z" />
    <glyph glyph-name="lessequal" unicode="&#x2264;" horiz-adv-x="549" 
d="M526 0h-497v55h497v-55zM526 577l-418 -199l418 -199v-62l-497 233v55l497 234v-62z" />
    <glyph glyph-name="greaterequal" unicode="&#x2265;" horiz-adv-x="549" 
d="M526 0h-497v55h497v-55zM526 405v-55l-497 -233v62l418 199l-418 199v62z" />
    <glyph glyph-name="lozenge" unicode="&#x25ca;" horiz-adv-x="494" 
d="M18 377l196 363h63l189 -366l-197 -374h-60zM402 374l-157 309l-164 -306l159 -319z" />
    <glyph glyph-name="fi" unicode="&#xfb01;" horiz-adv-x="436" 
d="M110 0h-70.001l43 345h-55l8 63h54l24 196c6 46.667 18.333 80.667 37 102s46 32 82 32c10.667 0 20.167 -1 28.5 -3s19.5 -6.33301 33.5 -13l-8 -64c-9.33301 6 -17.166 10.167 -23.499 12.5s-13.833 3.5 -22.5 3.5c-18 0 -31.333 -6.5 -40 -19.5s-15 -36.5 -19 -70.5
l-22 -176h81l-8 -63h-80zM378.999 623c11.333 0 21.333 -4 30 -12s13 -17.333 13 -28c0 -13.333 -4.33301 -24.5 -13 -33.5s-19.667 -13.5 -33 -13.5c-11.333 0 -21 4.16699 -29 12.5s-12 18.833 -12 31.5c0 11.333 4.5 21.333 13.5 30s19.167 13 30.5 13zM339.999 0h-70
l50 404h70z" />
    <glyph glyph-name="fl" unicode="&#xfb02;" horiz-adv-x="436" 
d="M110 0h-70.001l43 345h-55l8 63h54l24 196c6 46.667 18.333 80.667 37 102s46 32 82 32c10.667 0 20.167 -1 28.5 -3s19.5 -6.33301 33.5 -13l-8 -64c-9.33301 6 -17.166 10.167 -23.499 12.5s-13.833 3.5 -22.5 3.5c-18 0 -31.333 -6.5 -40 -19.5s-15 -36.5 -19 -70.5
l-22 -176h81l-8 -63h-80zM339.999 0h-70l90 729h70z" />
    <glyph glyph-name="apple" horiz-adv-x="790" 
d="M570 687c0 -22 -4.99902 -42.833 -14.999 -62.5s-23.333 -37.167 -40 -52.5s-35.834 -27.333 -57.501 -36s-44.5 -13 -68.5 -13c1.33301 48.667 17.833 88.5 49.5 119.5s75.5 49.5 131.5 55.5v-11zM714.001 461c-30 -22.667 -50.999 -44.6748 -62.999 -66.0078
s-18 -46.333 -18 -75c0 -34 8.66699 -64.167 26 -90.5s42 -46.166 74 -59.499c-30 -61.333 -62.5 -109.5 -97.5 -144.5s-68.5 -52.5 -100.5 -52.5c-18.667 0 -40.334 5.66699 -65.001 17c-6 2.66699 -11.167 4.83398 -15.5 6.50098s-8.83301 2.83398 -13.5 3.50098
s-9.66699 1.16699 -15 1.5s-12.666 0.5 -21.999 0.5c-12.667 0 -22.5 -0.666992 -29.5 -2s-15.833 -4.66602 -26.5 -9.99902c-15.333 -6.66699 -27.833 -11.167 -37.5 -13.5s-19.5 -3.5 -29.5 -3.5c-25.333 0 -51.333 10.5 -78 31.5s-50.834 47.833 -72.501 80.5
s-39.5 69 -53.5 109s-21 79.333 -21 118c0 30.667 5.5 59.334 16.5 86.001s25.833 50 44.5 70s40.5 35.833 65.5 47.5s51.833 17.5 80.5 17.5c12.667 0 26 -1.5 40 -4.5s30.667 -8.16699 50 -15.5c23.333 -8 40.333 -12 51 -12c10 0 23.667 3.33301 41 10
c12 4.66699 22.167 8.33398 30.5 11.001s15.833 4.83398 22.5 6.50098s13 2.83398 19 3.50098s12.667 1 20 1c74.667 0 133.667 -24 177 -72z" />
  </font>
</defs>
</svg>
